{
.appVersion = "1342";
DisplayStrings = (
"HHHOOOHOHOHHH\012HH/Placeholder HO/Placeholder OOno\012ABCDEFGHIJKOLMN\012OPQRSOTOUOVOWOXOYOZO\0120123456789",
"HHBHOOOOJQRVæðnoøgkþbvyp/Be-cy/De-cy/U-cy/Ef-cy/Softsign-cy/Dje-cy/Yat-cy/Yusbig-cy/be-cy/ve-cy/ef-cy 125¼¾?{}¤£/approxequal ~/radical/partialdiff @§/ampersand.salt/tildecomb",
"nnnnnoooonnononnn\012nn/Placeholder no/Placeholder oo\012abcdefghijkolmnf/longs \012opqrostouovonowoxoyozo",
"/Eng/Yat-cy/tildecomb",
"./ellipsis ,no;no:",
"/f_f/space/f_f_i/space/f_f_l/space/fi/space/fl/space/longs_t/space/s_t/space/t_i/space/t_u \012ff/space ffi/space ffl/space fi/space fl/space/longs t/space st/space ti/space tu",
"ils/longs tu",
"no/quotedblbase no/quotedblright mbp",
"/quotedblright"
);
classes = (
{
automatic = 1;

glyphs = (
{
glyphname = .notdef;
lastChange = "2021-05-19 22:43:31 +0000";
layers = (
{
background = {
paths = (
{
closed = 1;
nodes = (
"58 0 LINE",
"378 0 LINE",
"387 8 LINE",
"387 621 LINE",
"378 630 LINE",
"58 630 LINE",
"50 620 LINE",
"50 9 LINE"
);
},
{
closed = 1;
nodes = (
"124 541 LINE",
"313 541 LINE",
"313 88 LINE",
"124 88 LINE"
);
},
{
closed = 1;
nodes = (
"86 9 LINE",
"387 621 LINE",
"351 621 LINE",
"50 9 LINE"
);
},
{
closed = 1;
nodes = (
"86 621 LINE",
"50 621 LINE",
"351 9 LINE",
"387 9 LINE"
);
}
);
};
layerId = "8A3706BD-364F-4FE3-9C2E-7E87DF0DB4CC";
paths = (
{
closed = 1;
nodes = (
"378 0 LINE",
"387 8 LINE",
"387 621 LINE",
"378 630 LINE",
"58 630 LINE",
"50 620 LINE",
"50 9 LINE",
"58 0 LINE"
);
},
{
closed = 1;
nodes = (
"86 9 LINE",
"387 621 LINE",
"351 621 LINE",
"50 9 LINE"
);
},
{
closed = 1;
nodes = (
"387 9 LINE",
"86 621 LINE",
"50 621 LINE",
"351 9 LINE"
);
},
{
closed = 1;
nodes = (
"124 541 LINE",
"313 541 LINE",
"313 88 LINE",
"124 88 LINE"
);
}
);
width = 437;
},
{
hints = (
{
horizontal = 1;
place = "{9.16, 593.688}";
type = Stem;
},
{
place = "{42.514, 315.698}";
type = Stem;
},
{
horizontal = 1;
place = "{9.16, 593.689}";
type = Stem;
},
{
place = "{369.986, 315.698}";
type = Stem;
}
);
layerId = "D84909E6-9227-4984-810E-91F1FC034344";
paths = (
{
closed = 1;
nodes = (
"378 0 LINE",
"387 8 LINE",
"387 621 LINE",
"378 630 LINE",
"58 630 LINE",
"50 620 LINE",
"50 9 LINE",
"58 0 LINE"
);
},
{
closed = 1;
nodes = (
"67 9 LINE",
"387 621 LINE",
"371 621 LINE",
"50 9 LINE"
);
},
{
closed = 1;
nodes = (
"387 9 LINE",
"66 621 LINE",
"50 621 LINE",
"370 9 LINE"
);
},
{
closed = 1;
nodes = (
"69 611 LINE",
"368 611 LINE",
"368 18 LINE",
"69 18 LINE"
);
}
);
width = 437;
}
);
},
{
glyphname = A;
lastChange = "2021-05-19 22:43:31 +0000";
layers = (
{
background = {
paths = (
{
closed = 1;
nodes = (
"136 0 LINE",
"155 86 LINE",
"192 86 LINE",
"187 0 LINE",
"366 0 LINE",
"367 591 LINE",
"132 591 LINE",
"-37 0 LINE"
);
},
{
closed = 1;
nodes = (
"227 466 LINE",
"202 163 LINE",
"166 163 LINE"
);
}
);
};
layerId = "8A3706BD-364F-4FE3-9C2E-7E87DF0DB4CC";
paths = (
{
closed = 1;
nodes = (
"136 0 LINE",
"155 86 LINE",
"192 86 LINE",
"187 0 LINE",
"366 0 LINE",
"367 591 LINE",
"132 591 LINE",
"-37 0 LINE"
);
},
{
closed = 1;
nodes = (
"227 466 LINE",
"202 163 LINE",
"166 163 LINE"
);
}
);
width = 413;
},
{
layerId = "D84909E6-9227-4984-810E-91F1FC034344";
paths = (
{
closed = 1;
nodes = (
"5 0 LINE",
"68 158 LINE",
"257 158 LINE",
"275 0 LINE",
"299 0 LINE",
"235 591 LINE",
"215 591 LINE",
"-18 0 LINE"
);
},
{
closed = 1;
nodes = (
"216 534 LINE",
"256 175 LINE",
"73 175 LINE"
);
}
);
width = 352;
}
);
leftKerningGroup = A;
rightKerningGroup = A;
unicode = 0041;
},
{
glyphname = AE;
lastChange = "2021-05-19 22:43:31 +0000";
layers = (
{
background = {
paths = (
{
closed = 1;
nodes = (
"136 0 LINE",
"165 86 LINE",
"202 86 LINE",
"187 0 LINE",
"518 0 LINE",
"534 108 LINE",
"379 108 LINE",
"395 240 LINE",
"527 240 LINE",
"545 365 LINE",
"411 365 LINE",
"425 480 LINE",
"574 480 LINE",
"590 591 LINE",
"204 591 LINE",
"-37 0 LINE"
);
},
{
closed = 1;
nodes = (
"186 163 LINE",
"275 441 LINE",
"284 466 LINE",
"278 441 LINE",
"222 163 LINE"
);
}
);
};
layerId = "8A3706BD-364F-4FE3-9C2E-7E87DF0DB4CC";
paths = (
{
closed = 1;
nodes = (
"136 0 LINE",
"165 86 LINE",
"202 86 LINE",
"187 0 LINE",
"518 0 LINE",
"534 108 LINE",
"379 108 LINE",
"395 240 LINE",
"527 240 LINE",
"545 365 LINE",
"411 365 LINE",
"425 480 LINE",
"574 480 LINE",
"590 591 LINE",
"204 591 LINE",
"-37 0 LINE"
);
},
{
closed = 1;
nodes = (
"275 441 LINE",
"284 466 LINE",
"278 441 LINE",
"222 163 LINE",
"186 163 LINE"
);
}
);
width = 580;
},
{
layerId = "D84909E6-9227-4984-810E-91F1FC034344";
paths = (
{
closed = 1;
nodes = (
"-5 0 LINE",
"77 158 LINE",
"219 158 LINE",
"199 0 LINE",
"444 0 LINE",
"448 19 LINE",
"226 19 LINE",
"262 302 LINE",
"450 302 LINE",
"453 321 LINE",
"264 321 LINE",
"297 572 LINE",
"515 572 LINE",
"518 591 LINE",
"277 591 LINE",
"-27 0 LINE"
);
},
{
closed = 1;
nodes = (
"268 526 LINE",
"271 534 LINE",
"269 524 LINE",
"222 175 LINE",
"84 175 LINE"
);
}
);
width = 526;
}
);
unicode = 00C6;
},
{
glyphname = B;
lastChange = "2021-05-19 22:43:31 +0000";
layers = (
{
background = {
paths = (
{
closed = 1;
nodes = (
"212 0 LINE",
"305 0 OFFCURVE",
"366 30 OFFCURVE",
"379 125 CURVE",
"390 202 LINE",
"401 280 OFFCURVE",
"360 316 OFFCURVE",
"303 316 CURVE",
"303 316 OFFCURVE",
"302 317 OFFCURVE",
"302 317 CURVE",
"302 317 OFFCURVE",
"303 318 OFFCURVE",
"303 318 CURVE",
"367 325 OFFCURVE",
"398 370 OFFCURVE",
"406 426 CURVE",
"415 490 LINE",
"424 549 OFFCURVE",
"393 591 OFFCURVE",
"305 591 CURVE",
"73 591 LINE",
"-11 0 LINE"
);
},
{
closed = 1;
nodes = (
"190 249 LINE",
"205 249 LINE",
"222 249 OFFCURVE",
"219 215 OFFCURVE",
"213 171 CURVE",
"212 165 LINE",
"205 118 OFFCURVE",
"196 81 OFFCURVE",
"182 81 CURVE",
"167 81 LINE"
);
},
{
closed = 1;
nodes = (
"242 507 LINE",
"259 507 OFFCURVE",
"255 474 OFFCURVE",
"249 431 CURVE",
"248 427 LINE",
"242 383 OFFCURVE",
"230 348 OFFCURVE",
"216 348 CURVE",
"204 348 LINE",
"227 507 LINE"
);
}
);
};
layerId = "8A3706BD-364F-4FE3-9C2E-7E87DF0DB4CC";
paths = (
{
closed = 1;
nodes = (
"208 0 LINE SMOOTH",
"297 0 OFFCURVE",
"355 30 OFFCURVE",
"369 125 CURVE SMOOTH",
"379 202 LINE SMOOTH",
"386 248 OFFCURVE",
"374 279 OFFCURVE",
"353 297 CURVE SMOOTH",
"334 312 OFFCURVE",
"316 316 OFFCURVE",
"298 316 CURVE",
"299 318 LINE",
"322 320 OFFCURVE",
"343 330 OFFCURVE",
"359 343 CURVE SMOOTH",
"383 363 OFFCURVE",
"396 392 OFFCURVE",
"401 426 CURVE SMOOTH",
"410 490 LINE SMOOTH",
"418 549 OFFCURVE",
"387 591 OFFCURVE",
"305 591 CURVE SMOOTH",
"73 591 LINE",
"-10 0 LINE"
);
},
{
closed = 1;
nodes = (
"185 249 LINE",
"204 249 LINE SMOOTH",
"219 249 OFFCURVE",
"224 241 OFFCURVE",
"218 197 CURVE SMOOTH",
"209 134 LINE SMOOTH",
"203 92 OFFCURVE",
"194 81 OFFCURVE",
"181 81 CURVE SMOOTH",
"161 81 LINE"
);
},
{
closed = 1;
nodes = (
"221 507 LINE",
"239 507 LINE SMOOTH",
"254 507 OFFCURVE",
"259 496 OFFCURVE",
"254 461 CURVE SMOOTH",
"246 408 LINE SMOOTH",
"239 359 OFFCURVE",
"227 348 OFFCURVE",
"215 348 CURVE SMOOTH",
"199 348 LINE"
);
}
);
width = 401;
},
{
layerId = "D84909E6-9227-4984-810E-91F1FC034344";
paths = (
{
closed = 1;
nodes = (
"197 0 LINE SMOOTH",
"269 0 OFFCURVE",
"321 16 OFFCURVE",
"336 120 CURVE SMOOTH",
"348 209 LINE SMOOTH",
"353 245 OFFCURVE",
"346 272 OFFCURVE",
"331 292 CURVE SMOOTH",
"318 309 OFFCURVE",
"288 314 OFFCURVE",
"258 314 CURVE",
"258 311 LINE",
"274 311 OFFCURVE",
"307 314 OFFCURVE",
"331 334 CURVE SMOOTH",
"350 351 OFFCURVE",
"367 380 OFFCURVE",
"373 419 CURVE SMOOTH",
"383 494 LINE SMOOTH",
"394 566 OFFCURVE",
"348 591 OFFCURVE",
"289 591 CURVE SMOOTH",
"126 591 LINE",
"43 0 LINE"
);
},
{
closed = 1;
nodes = (
"109 301 LINE",
"226 301 LINE SMOOTH",
"289 301 OFFCURVE",
"335 283 OFFCURVE",
"325 211 CURVE SMOOTH",
"312 123 LINE SMOOTH",
"299 33 OFFCURVE",
"258 18 OFFCURVE",
"198 18 CURVE SMOOTH",
"69 18 LINE"
);
},
{
closed = 1;
nodes = (
"147 573 LINE",
"286 573 LINE SMOOTH",
"331 573 OFFCURVE",
"367 546 OFFCURVE",
"359 490 CURVE SMOOTH",
"348 416 LINE SMOOTH",
"340 357 OFFCURVE",
"299 320 OFFCURVE",
"229 320 CURVE SMOOTH",
"112 320 LINE"
);
}
);
width = 416;
}
);
leftKerningGroup = H;
leftMetricsKey = H;
rightKerningGroup = B;
rightMetricsKey = "=O-5";
unicode = 0042;
},
{
glyphname = C;
lastChange = "2021-05-19 22:43:31 +0000";
layers = (
{
background = {
paths = (
{
closed = 1;
nodes = (
"199 110 LINE",
"196 87 OFFCURVE",
"188 80 OFFCURVE",
"179 80 CURVE",
"169 80 OFFCURVE",
"164 87 OFFCURVE",
"167 110 CURVE",
"218 473 LINE",
"221 496 OFFCURVE",
"228 503 OFFCURVE",
"238 503 CURVE",
"247 503 OFFCURVE",
"253 496 OFFCURVE",
"250 473 CURVE",
"230 327 LINE",
"389 327 LINE",
"408 465 LINE",
"422 564 OFFCURVE",
"361 600 OFFCURVE",
"252 600 CURVE",
"143 600 OFFCURVE",
"65 564 OFFCURVE",
"51 465 CURVE",
"10 173 LINE",
"-12 14 OFFCURVE",
"57 -12 OFFCURVE",
"166 -12 CURVE",
"275 -12 OFFCURVE",
"345 14 OFFCURVE",
"367 174 CURVE",
"378 248 LINE",
"219 248 LINE"
);
}
);
};
layerId = "8A3706BD-364F-4FE3-9C2E-7E87DF0DB4CC";
paths = (
{
closed = 1;
nodes = (
"275 -12 OFFCURVE",
"345 14 OFFCURVE",
"367 174 CURVE SMOOTH",
"378 248 LINE",
"219 248 LINE",
"199 110 LINE SMOOTH",
"196 87 OFFCURVE",
"188 80 OFFCURVE",
"179 80 CURVE SMOOTH",
"169 80 OFFCURVE",
"164 87 OFFCURVE",
"167 110 CURVE SMOOTH",
"218 473 LINE SMOOTH",
"221 496 OFFCURVE",
"228 503 OFFCURVE",
"238 503 CURVE SMOOTH",
"247 503 OFFCURVE",
"253 496 OFFCURVE",
"250 473 CURVE SMOOTH",
"230 327 LINE",
"389 327 LINE",
"408 465 LINE SMOOTH",
"422 564 OFFCURVE",
"361 600 OFFCURVE",
"252 600 CURVE SMOOTH",
"143 600 OFFCURVE",
"65 564 OFFCURVE",
"51 465 CURVE SMOOTH",
"10 173 LINE SMOOTH",
"-12 14 OFFCURVE",
"57 -12 OFFCURVE",
"166 -12 CURVE SMOOTH"
);
}
);
width = 396;
},
{
layerId = "D84909E6-9227-4984-810E-91F1FC034344";
paths = (
{
closed = 1;
nodes = (
"248 -12 OFFCURVE",
"308 2 OFFCURVE",
"324 120 CURVE SMOOTH",
"334 191 LINE",
"310 191 LINE",
"301 121 LINE SMOOTH",
"286 19 OFFCURVE",
"238 6 OFFCURVE",
"170 6 CURVE SMOOTH",
"103 6 OFFCURVE",
"58 19 OFFCURVE",
"73 121 CURVE SMOOTH",
"121 467 LINE SMOOTH",
"136 569 OFFCURVE",
"184 582 OFFCURVE",
"252 582 CURVE SMOOTH",
"318 582 OFFCURVE",
"364 569 OFFCURVE",
"349 467 CURVE SMOOTH",
"337 379 LINE",
"361 379 LINE",
"374 469 LINE SMOOTH",
"390 582 OFFCURVE",
"334 599 OFFCURVE",
"255 599 CURVE SMOOTH",
"176 599 OFFCURVE",
"115 584 OFFCURVE",
"99 469 CURVE SMOOTH",
"49 120 LINE SMOOTH",
"33 4 OFFCURVE",
"89 -12 OFFCURVE",
"167 -12 CURVE SMOOTH"
);
}
);
width = 402;
}
);
leftKerningGroup = O;
leftMetricsKey = O;
rightKerningGroup = C;
unicode = 0043;
},
{
glyphname = D;
lastChange = "2021-05-20 00:58:28 +0000";
layers = (
{
background = {
paths = (
{
closed = 1;
nodes = (
"198 0 LINE",
"291 0 OFFCURVE",
"352 30 OFFCURVE",
"365 125 CURVE",
"416 490 LINE",
"425 549 OFFCURVE",
"394 591 OFFCURVE",
"306 591 CURVE",
"74 591 LINE",
"-10 0 LINE"
);
},
{
closed = 1;
nodes = (
"227 503 LINE",
"242 503 LINE",
"252 503 OFFCURVE",
"258 496 OFFCURVE",
"255 473 CURVE",
"204 110 LINE",
"201 87 OFFCURVE",
"193 80 OFFCURVE",
"183 80 CURVE",
"168 80 LINE"
);
}
);
};
layerId = "8A3706BD-364F-4FE3-9C2E-7E87DF0DB4CC";
paths = (
{
closed = 1;
nodes = (
"198 0 LINE SMOOTH",
"291 0 OFFCURVE",
"352 30 OFFCURVE",
"365 125 CURVE SMOOTH",
"416 490 LINE SMOOTH",
"425 549 OFFCURVE",
"394 591 OFFCURVE",
"306 591 CURVE SMOOTH",
"74 591 LINE",
"-10 0 LINE"
);
},
{
closed = 1;
nodes = (
"227 503 LINE",
"242 503 LINE SMOOTH",
"252 503 OFFCURVE",
"258 496 OFFCURVE",
"255 473 CURVE SMOOTH",
"204 110 LINE SMOOTH",
"201 87 OFFCURVE",
"193 80 OFFCURVE",
"183 80 CURVE SMOOTH",
"168 80 LINE"
);
}
);
width = 402;
},
{
layerId = "D84909E6-9227-4984-810E-91F1FC034344";
paths = (
{
closed = 1;
nodes = (
"197 0 LINE SMOOTH",
"269 0 OFFCURVE",
"323 25 OFFCURVE",
"338 130 CURVE SMOOTH",
"384 462 LINE SMOOTH",
"399 566 OFFCURVE",
"353 591 OFFCURVE",
"282 591 CURVE SMOOTH",
"127 591 LINE",
"43 0 LINE"
);
},
{
closed = 1;
nodes = (
"147 573 LINE",
"277 573 LINE SMOOTH",
"336 573 OFFCURVE",
"373 547 OFFCURVE",
"360 458 CURVE SMOOTH",
"314 132 LINE SMOOTH",
"301 43 OFFCURVE",
"259 18 OFFCURVE",
"200 18 CURVE SMOOTH",
"70 18 LINE"
);
}
);
width = 422;
}
);
leftMetricsKey = H;
rightMetricsKey = O;
unicode = 0044;
},
{
glyphname = Eth;
lastChange = "2021-05-19 22:43:31 +0000";
layers = (
{
background = {
paths = (
{
closed = 1;
nodes = (
"238 0 LINE",
"331 0 OFFCURVE",
"392 30 OFFCURVE",
"405 125 CURVE",
"456 490 LINE",
"465 549 OFFCURVE",
"434 591 OFFCURVE",
"346 591 CURVE",
"92 591 LINE",
"8 0 LINE"
);
},
{
closed = 1;
nodes = (
"245 503 LINE",
"270 503 LINE",
"292 503 OFFCURVE",
"298 496 OFFCURVE",
"295 473 CURVE",
"244 110 LINE",
"241 87 OFFCURVE",
"233 80 OFFCURVE",
"211 80 CURVE",
"186 80 LINE"
);
},
{
closed = 1;
nodes = (
"3 246 LINE",
"232 246 LINE",
"245 335 LINE",
"16 335 LINE"
);
}
);
};
layerId = "8A3706BD-364F-4FE3-9C2E-7E87DF0DB4CC";
paths = (
{
closed = 1;
nodes = (
"238 0 LINE SMOOTH",
"331 0 OFFCURVE",
"392 30 OFFCURVE",
"405 125 CURVE SMOOTH",
"456 490 LINE SMOOTH",
"465 549 OFFCURVE",
"434 591 OFFCURVE",
"346 591 CURVE SMOOTH",
"92 591 LINE",
"8 0 LINE"
);
},
{
closed = 1;
nodes = (
"232 246 LINE",
"245 335 LINE",
"16 335 LINE",
"3 246 LINE"
);
},
{
closed = 1;
nodes = (
"245 503 LINE",
"270 503 LINE SMOOTH",
"292 503 OFFCURVE",
"298 496 OFFCURVE",
"295 473 CURVE SMOOTH",
"244 110 LINE SMOOTH",
"241 87 OFFCURVE",
"233 80 OFFCURVE",
"211 80 CURVE SMOOTH",
"186 80 LINE"
);
}
);
width = 454;
},
{
hints = (
{
horizontal = 1;
place = "{-40.765, -25.235}";
type = Stem;
},
{
horizontal = 1;
place = "{170.824, -26.206}";
type = Stem;
},
{
horizontal = 1;
place = "{517.324, -25.235}";
type = Stem;
},
{
place = "{67.941, -22.324}";
type = Stem;
},
{
place = "{313.5, -21.353}";
type = Stem;
},
{
horizontal = 1;
place = "{124.235, -22.324}";
type = Stem;
},
{
place = "{-35.912, 152.382}";
type = Stem;
}
);
layerId = "D84909E6-9227-4984-810E-91F1FC034344";
paths = (
{
closed = 1;
nodes = (
"195 0 LINE SMOOTH",
"267 0 OFFCURVE",
"321 25 OFFCURVE",
"336 130 CURVE SMOOTH",
"382 462 LINE SMOOTH",
"397 566 OFFCURVE",
"352 591 OFFCURVE",
"280 591 CURVE SMOOTH",
"125 591 LINE",
"41 0 LINE"
);
},
{
closed = 1;
nodes = (
"179 278 LINE",
"181 299 LINE",
"20 299 LINE",
"18 278 LINE"
);
},
{
closed = 1;
nodes = (
"145 573 LINE",
"275 573 LINE SMOOTH",
"335 573 OFFCURVE",
"371 547 OFFCURVE",
"358 458 CURVE SMOOTH",
"312 132 LINE SMOOTH",
"299 43 OFFCURVE",
"257 18 OFFCURVE",
"197 18 CURVE SMOOTH",
"68 18 LINE"
);
}
);
width = 428;
}
);
note = Eth;
rightKerningGroup = parenright;
unicode = 00D0;
},
{
glyphname = E;
lastChange = "2021-05-19 22:43:31 +0000";
layers = (
{
background = {
paths = (
{
closed = 1;
nodes = (
"276 0 LINE",
"292 108 LINE",
"172 108 LINE",
"190 240 LINE",
"300 240 LINE",
"318 365 LINE",
"208 365 LINE",
"224 480 LINE",
"344 480 LINE",
"360 591 LINE",
"74 591 LINE",
"-10 0 LINE"
);
}
);
};
layerId = "8A3706BD-364F-4FE3-9C2E-7E87DF0DB4CC";
paths = (
{
closed = 1;
nodes = (
"276 0 LINE",
"292 108 LINE",
"172 108 LINE",
"190 240 LINE",
"300 240 LINE",
"318 365 LINE",
"208 365 LINE",
"224 480 LINE",
"344 480 LINE",
"360 591 LINE",
"74 591 LINE",
"-10 0 LINE"
);
}
);
width = 329;
},
{
layerId = "D84909E6-9227-4984-810E-91F1FC034344";
paths = (
{
closed = 1;
nodes = (
"286 0 LINE",
"289 19 LINE",
"71 19 LINE",
"110 302 LINE",
"279 302 LINE",
"281 321 LINE",
"113 321 LINE",
"148 572 LINE",
"366 572 LINE",
"370 591 LINE",
"127 591 LINE",
"43 0 LINE"
);
}
);
width = 349;
}
);
leftKerningGroup = H;
leftMetricsKey = H;
rightKerningGroup = E;
unicode = 0045;
},
{
glyphname = F;
lastChange = "2021-05-19 22:43:31 +0000";
layers = (
{
background = {
paths = (
{
closed = 1;
nodes = (
"156 0 LINE",
"190 240 LINE",
"300 240 LINE",
"318 365 LINE",
"208 365 LINE",
"224 480 LINE",
"344 480 LINE",
"360 591 LINE",
"74 591 LINE",
"-10 0 LINE"
);
}
);
};
layerId = "8A3706BD-364F-4FE3-9C2E-7E87DF0DB4CC";
paths = (
{
closed = 1;
nodes = (
"156 0 LINE",
"190 240 LINE",
"300 240 LINE",
"318 365 LINE",
"208 365 LINE",
"224 480 LINE",
"344 480 LINE",
"360 591 LINE",
"74 591 LINE",
"-10 0 LINE"
);
}
);
width = 327;
},
{
layerId = "D84909E6-9227-4984-810E-91F1FC034344";
paths = (
{
closed = 1;
nodes = (
"68 0 LINE",
"110 302 LINE",
"279 302 LINE",
"281 321 LINE",
"113 321 LINE",
"148 572 LINE",
"366 572 LINE",
"370 591 LINE",
"127 591 LINE",
"43 0 LINE"
);
}
);
width = 338;
}
);
leftKerningGroup = H;
leftMetricsKey = H;
rightKerningGroup = F;
unicode = 0046;
},
{
glyphname = G;
lastChange = "2021-05-19 22:43:31 +0000";
layers = (
{
background = {
paths = (
{
closed = 1;
nodes = (
"342 0 LINE",
"385 311 LINE",
"206 311 LINE",
"194 222 LINE",
"219 222 LINE",
"203 110 LINE",
"200 87 OFFCURVE",
"190 80 OFFCURVE",
"177 80 CURVE",
"164 80 OFFCURVE",
"156 87 OFFCURVE",
"159 110 CURVE",
"210 473 LINE",
"213 496 OFFCURVE",
"223 503 OFFCURVE",
"236 503 CURVE",
"249 503 OFFCURVE",
"257 496 OFFCURVE",
"254 473 CURVE",
"240 373 LINE",
"394 373 LINE",
"407 463 LINE",
"421 562 OFFCURVE",
"351 598 OFFCURVE",
"245 598 CURVE",
"139 598 OFFCURVE",
"64 562 OFFCURVE",
"50 463 CURVE",
"6 151 LINE",
"-13 14 OFFCURVE",
"50 -10 OFFCURVE",
"112 -10 CURVE",
"174 -10 OFFCURVE",
"206 18 OFFCURVE",
"219 38 CURVE",
"219 38 OFFCURVE",
"219 38 OFFCURVE",
"219 38 CURVE SMOOTH",
"219 38 OFFCURVE",
"222 0 OFFCURVE",
"222 0 CURVE"
);
}
);
};
layerId = "8A3706BD-364F-4FE3-9C2E-7E87DF0DB4CC";
paths = (
{
closed = 1;
nodes = (
"174 -10 OFFCURVE",
"206 18 OFFCURVE",
"219 38 CURVE",
"219 38 OFFCURVE",
"219 38 OFFCURVE",
"219 38 CURVE",
"222 0 LINE",
"342 0 LINE",
"385 311 LINE",
"206 311 LINE",
"194 222 LINE",
"219 222 LINE",
"203 110 LINE SMOOTH",
"200 87 OFFCURVE",
"190 80 OFFCURVE",
"177 80 CURVE SMOOTH",
"164 80 OFFCURVE",
"156 87 OFFCURVE",
"159 110 CURVE SMOOTH",
"210 473 LINE SMOOTH",
"213 496 OFFCURVE",
"223 503 OFFCURVE",
"236 503 CURVE SMOOTH",
"249 503 OFFCURVE",
"257 496 OFFCURVE",
"254 473 CURVE SMOOTH",
"240 373 LINE",
"394 373 LINE",
"407 463 LINE SMOOTH",
"421 562 OFFCURVE",
"351 598 OFFCURVE",
"245 598 CURVE SMOOTH",
"139 598 OFFCURVE",
"64 562 OFFCURVE",
"50 463 CURVE SMOOTH",
"6 151 LINE SMOOTH",
"-13 14 OFFCURVE",
"50 -10 OFFCURVE",
"112 -10 CURVE SMOOTH"
);
}
);
width = 395;
},
{
layerId = "D84909E6-9227-4984-810E-91F1FC034344";
paths = (
{
closed = 1;
nodes = (
"211 -12 OFFCURVE",
"245 1 OFFCURVE",
"272 29 CURVE",
"280 38 OFFCURVE",
"290 52 OFFCURVE",
"299 64 CURVE",
"291 0 LINE",
"308 0 LINE",
"345 267 LINE",
"224 267 LINE",
"222 249 LINE",
"319 249 LINE",
"301 121 LINE SMOOTH",
"290 48 OFFCURVE",
"237 6 OFFCURVE",
"170 6 CURVE SMOOTH",
"103 6 OFFCURVE",
"58 19 OFFCURVE",
"73 121 CURVE SMOOTH",
"121 466 LINE SMOOTH",
"135 568 OFFCURVE",
"184 581 OFFCURVE",
"252 581 CURVE SMOOTH",
"320 581 OFFCURVE",
"364 568 OFFCURVE",
"349 466 CURVE SMOOTH",
"340 400 LINE",
"364 400 LINE",
"374 469 LINE SMOOTH",
"390 582 OFFCURVE",
"335 599 OFFCURVE",
"256 599 CURVE SMOOTH",
"176 599 OFFCURVE",
"114 584 OFFCURVE",
"99 469 CURVE SMOOTH",
"49 119 LINE SMOOTH",
"33 4 OFFCURVE",
"89 -12 OFFCURVE",
"165 -12 CURVE SMOOTH"
);
}
);
width = 406;
}
);
leftKerningGroup = O;
leftMetricsKey = O;
rightKerningGroup = G;
unicode = 0047;
},
{
glyphname = H;
lastChange = "2021-05-19 22:43:31 +0000";
layers = (
{
background = {
paths = (
{
closed = 1;
nodes = (
"149 0 LINE",
"184 245 LINE",
"220 245 LINE",
"185 0 LINE",
"344 0 LINE",
"428 591 LINE",
"269 591 LINE",
"236 362 LINE",
"200 362 LINE",
"233 591 LINE",
"74 591 LINE",
"-10 0 LINE"
);
}
);
};
layerId = "8A3706BD-364F-4FE3-9C2E-7E87DF0DB4CC";
paths = (
{
closed = 1;
nodes = (
"149 0 LINE",
"184 245 LINE",
"220 245 LINE",
"185 0 LINE",
"344 0 LINE",
"428 591 LINE",
"269 591 LINE",
"236 362 LINE",
"200 362 LINE",
"233 591 LINE",
"74 591 LINE",
"-10 0 LINE"
);
}
);
width = 405;
},
{
layerId = "D84909E6-9227-4984-810E-91F1FC034344";
paths = (
{
closed = 1;
nodes = (
"67 0 LINE",
"110 301 LINE",
"338 301 LINE",
"296 0 LINE",
"319 0 LINE",
"403 591 LINE",
"380 591 LINE",
"341 321 LINE",
"113 321 LINE",
"151 591 LINE",
"127 591 LINE",
"43 0 LINE"
);
}
);
width = 433;
}
);
leftKerningGroup = H;
rightKerningGroup = H;
unicode = 0048;
},
{
glyphname = I;
lastChange = "2021-05-20 00:58:28 +0000";
layers = (
{
background = {
paths = (
{
closed = 1;
nodes = (
"149 0 LINE",
"233 591 LINE",
"74 591 LINE",
"-10 0 LINE"
);
}
);
};
layerId = "8A3706BD-364F-4FE3-9C2E-7E87DF0DB4CC";
paths = (
{
closed = 1;
nodes = (
"149 0 LINE",
"233 591 LINE",
"74 591 LINE",
"-10 0 LINE"
);
}
);
width = 210;
},
{
layerId = "D84909E6-9227-4984-810E-91F1FC034344";
paths = (
{
closed = 1;
nodes = (
"67 0 LINE",
"151 591 LINE",
"127 591 LINE",
"43 0 LINE"
);
}
);
width = 181;
}
);
leftKerningGroup = H;
leftMetricsKey = H;
rightKerningGroup = H;
rightMetricsKey = H;
unicode = 0049;
},
{
color = 4;
glyphname = J;
lastChange = "2021-05-19 22:43:31 +0000";
layers = (
{
background = {
paths = (
{
closed = 1;
nodes = (
"-27 -1 OFFCURVE",
"6 -1 OFFCURVE",
"17 -1 CURVE",
"144 -1 OFFCURVE",
"202 33 OFFCURVE",
"220 159 CURVE",
"281 591 LINE",
"122 591 LINE",
"60 156 LINE",
"55 117 OFFCURVE",
"46 108 OFFCURVE",
"8 108 CURVE",
"-21 108 LINE",
"-36 0 LINE"
);
}
);
};
layerId = "8A3706BD-364F-4FE3-9C2E-7E87DF0DB4CC";
paths = (
{
closed = 1;
nodes = (
"144 -1 OFFCURVE",
"202 33 OFFCURVE",
"219 159 CURVE SMOOTH",
"280 591 LINE",
"121 591 LINE",
"60 156 LINE SMOOTH",
"55 117 OFFCURVE",
"45 108 OFFCURVE",
"7 108 CURVE SMOOTH",
"-22 108 LINE",
"-37 0 LINE",
"-27 -1 OFFCURVE",
"6 -1 OFFCURVE",
"17 -1 CURVE SMOOTH"
);
}
);
width = 257;
},
{
layerId = "D84909E6-9227-4984-810E-91F1FC034344";
paths = (
{
closed = 1;
nodes = (
"86 -1 OFFCURVE",
"98 29 OFFCURVE",
"111 118 CURVE SMOOTH",
"177 591 LINE",
"153 591 LINE",
"81 82 LINE SMOOTH",
"74 33 OFFCURVE",
"53 18 OFFCURVE",
"11 19 CURVE SMOOTH",
"-23 20 LINE",
"-26 0 LINE",
"-13 -1 OFFCURVE",
"-4 -1 OFFCURVE",
"8 -1 CURVE SMOOTH"
);
}
);
width = 201;
}
);
leftKerningGroup = J;
rightKerningGroup = O;
rightMetricsKey = "=O+5";
unicode = 004A;
},
{
glyphname = K;
lastChange = "2021-05-19 22:43:31 +0000";
layers = (
{
background = {
paths = (
{
closed = 1;
nodes = (
"399 0 LINE",
"345 307 LINE",
"481 591 LINE",
"312 591 LINE",
"190 306 LINE",
"228 0 LINE"
);
},
{
closed = 1;
nodes = (
"149 0 LINE",
"233 591 LINE",
"74 591 LINE",
"-10 0 LINE"
);
}
);
};
layerId = "8A3706BD-364F-4FE3-9C2E-7E87DF0DB4CC";
paths = (
{
closed = 1;
nodes = (
"399 0 LINE",
"345 307 LINE",
"481 591 LINE",
"312 591 LINE",
"190 306 LINE",
"228 0 LINE"
);
},
{
closed = 1;
nodes = (
"149 0 LINE",
"233 591 LINE",
"74 591 LINE",
"-10 0 LINE"
);
}
);
width = 439;
},
{
layerId = "D84909E6-9227-4984-810E-91F1FC034344";
paths = (
{
closed = 1;
nodes = (
"298 0 LINE",
"157 306 LINE",
"375 591 LINE",
"347 591 LINE",
"131 308 LINE",
"269 0 LINE"
);
},
{
closed = 1;
nodes = (
"67 0 LINE",
"151 591 LINE",
"127 591 LINE",
"43 0 LINE"
);
}
);
width = 349;
}
);
leftKerningGroup = H;
leftMetricsKey = H;
rightKerningGroup = K;
unicode = 004B;
},
{
glyphname = L;
lastChange = "2021-05-19 22:43:31 +0000";
layers = (
{
background = {
paths = (
{
closed = 1;
nodes = (
"256 0 LINE",
"272 108 LINE",
"163 108 LINE",
"231 591 LINE",
"74 591 LINE",
"-10 0 LINE"
);
}
);
};
layerId = "8A3706BD-364F-4FE3-9C2E-7E87DF0DB4CC";
paths = (
{
closed = 1;
nodes = (
"256 0 LINE",
"272 108 LINE",
"163 108 LINE",
"231 591 LINE",
"74 591 LINE",
"-10 0 LINE"
);
}
);
width = 300;
},
{
layerId = "D84909E6-9227-4984-810E-91F1FC034344";
paths = (
{
closed = 1;
nodes = (
"255 0 LINE",
"258 19 LINE",
"71 19 LINE",
"151 591 LINE",
"127 591 LINE",
"43 0 LINE"
);
}
);
width = 296;
}
);
leftKerningGroup = H;
leftMetricsKey = H;
rightKerningGroup = L;
unicode = 004C;
},
{
glyphname = Lslash;
lastChange = "2021-05-19 22:43:31 +0000";
layers = (
{
background = {
paths = (
{
closed = 1;
nodes = (
"292 0 LINE",
"307 108 LINE",
"198 108 LINE",
"215 225 LINE",
"279 253 LINE",
"288 316 LINE",
"224 289 LINE",
"265 585 LINE",
"108 585 LINE",
"57 219 LINE",
"1 196 LINE",
"-8 132 LINE",
"48 155 LINE",
"26 0 LINE"
);
}
);
};
layerId = "8A3706BD-364F-4FE3-9C2E-7E87DF0DB4CC";
paths = (
{
closed = 1;
nodes = (
"292 0 LINE",
"307 108 LINE",
"198 108 LINE",
"215 225 LINE",
"279 253 LINE",
"288 316 LINE",
"224 289 LINE",
"265 585 LINE",
"108 585 LINE",
"57 219 LINE",
"1 196 LINE",
"-8 132 LINE",
"48 155 LINE",
"26 0 LINE"
);
}
);
width = 353;
},
{
hints = (
{
horizontal = 1;
place = "{0, 8.735}";
type = Stem;
},
{
horizontal = 1;
place = "{573.618, -20}";
target = down;
type = TopGhost;
},
{
place = "{110.647, 19.412}";
type = Stem;
}
);
layerId = "D84909E6-9227-4984-810E-91F1FC034344";
paths = (
{
closed = 1;
nodes = (
"282 0 LINE",
"286 19 LINE",
"98 19 LINE",
"122 189 LINE",
"239 240 LINE",
"242 262 LINE",
"125 211 LINE",
"179 591 LINE",
"155 591 LINE",
"100 201 LINE",
"32 172 LINE",
"29 149 LINE",
"97 178 LINE",
"71 0 LINE"
);
}
);
width = 373;
}
);
note = Lslash;
unicode = 0141;
},
{
glyphname = M;
lastChange = "2021-05-19 22:43:31 +0000";
layers = (
{
background = {
paths = (
{
closed = 1;
nodes = (
"129 0 LINE",
"187 412 LINE",
"182 0 LINE",
"288 0 LINE",
"399 412 LINE",
"341 0 LINE",
"480 0 LINE",
"564 591 LINE",
"362 591 LINE",
"276 289 LINE",
"276 591 LINE",
"74 591 LINE",
"-10 0 LINE"
);
}
);
};
layerId = "8A3706BD-364F-4FE3-9C2E-7E87DF0DB4CC";
paths = (
{
closed = 1;
nodes = (
"129 0 LINE",
"187 412 LINE",
"182 0 LINE",
"288 0 LINE",
"399 412 LINE",
"341 0 LINE",
"480 0 LINE",
"564 591 LINE",
"362 591 LINE",
"276 289 LINE",
"276 591 LINE",
"74 591 LINE",
"-10 0 LINE"
);
}
);
width = 541;
},
{
layerId = "D84909E6-9227-4984-810E-91F1FC034344";
paths = (
{
closed = 1;
nodes = (
"67 0 LINE",
"138 505 LINE",
"218 0 LINE",
"239 0 LINE",
"461 505 LINE",
"390 0 LINE",
"413 0 LINE",
"497 591 LINE",
"478 591 LINE",
"234 38 LINE",
"150 591 LINE",
"127 591 LINE",
"43 0 LINE"
);
}
);
width = 527;
}
);
leftKerningGroup = H;
leftMetricsKey = H;
rightKerningGroup = H;
rightMetricsKey = H;
unicode = 004D;
},
{
glyphname = N;
lastChange = "2021-05-19 22:43:31 +0000";
layers = (
{
background = {
paths = (
{
closed = 1;
nodes = (
"129 0 LINE",
"164 245 LINE",
"202 0 LINE",
"339 0 LINE",
"423 591 LINE",
"284 591 LINE",
"245 316 LINE",
"212 591 LINE",
"74 591 LINE",
"-10 0 LINE"
);
}
);
};
layerId = "8A3706BD-364F-4FE3-9C2E-7E87DF0DB4CC";
paths = (
{
closed = 1;
nodes = (
"129 0 LINE",
"164 245 LINE",
"202 0 LINE",
"339 0 LINE",
"423 591 LINE",
"284 591 LINE",
"245 316 LINE",
"212 591 LINE",
"74 591 LINE",
"-10 0 LINE"
);
}
);
width = 400;
},
{
layerId = "D84909E6-9227-4984-810E-91F1FC034344";
paths = (
{
closed = 1;
nodes = (
"67 0 LINE",
"142 526 LINE",
"295 0 LINE",
"319 0 LINE",
"403 591 LINE",
"380 591 LINE",
"304 54 LINE",
"149 591 LINE",
"127 591 LINE",
"43 0 LINE"
);
}
);
width = 433;
}
);
leftKerningGroup = H;
leftMetricsKey = H;
rightKerningGroup = H;
rightMetricsKey = H;
unicode = 004E;
},
{
color = 4;
glyphname = Eng;
lastChange = "2021-05-19 22:43:31 +0000";
layers = (
{
background = {
paths = (
{
closed = 1;
nodes = (
"138 -249 OFFCURVE",
"172 -250 OFFCURVE",
"183 -250 CURVE SMOOTH",
"310 -250 OFFCURVE",
"363 -215 OFFCURVE",
"363 -90 CURVE SMOOTH",
"363 591 LINE",
"224 591 LINE",
"224 316 LINE",
"152 591 LINE",
"14 591 LINE",
"14 0 LINE",
"153 0 LINE",
"153 245 LINE",
"204 74 LINE",
"204 -93 LINE SMOOTH",
"204 -132 OFFCURVE",
"197 -141 OFFCURVE",
"158 -141 CURVE SMOOTH",
"129 -141 LINE",
"129 -249 LINE"
);
}
);
};
layerId = "8A3706BD-364F-4FE3-9C2E-7E87DF0DB4CC";
paths = (
{
closed = 1;
nodes = (
"251 -250 OFFCURVE",
"309 -215 OFFCURVE",
"326 -90 CURVE SMOOTH",
"422 591 LINE",
"283 591 LINE",
"244 316 LINE",
"211 591 LINE",
"73 591 LINE",
"-10 0 LINE",
"129 0 LINE",
"163 245 LINE",
"190 74 LINE",
"167 -93 LINE SMOOTH",
"161 -132 OFFCURVE",
"153 -141 OFFCURVE",
"114 -141 CURVE SMOOTH",
"85 -141 LINE",
"70 -249 LINE",
"124 -250 LINE SMOOTH"
);
}
);
width = 399;
},
{
layerId = "D84909E6-9227-4984-810E-91F1FC034344";
paths = (
{
closed = 1;
nodes = (
"282 -249 OFFCURVE",
"289 -216 OFFCURVE",
"303 -111 CURVE SMOOTH",
"402 591 LINE",
"379 591 LINE",
"303 54 LINE",
"148 591 LINE",
"126 591 LINE",
"43 0 LINE",
"67 0 LINE",
"141 526 LINE",
"295 2 LINE",
"272 -160 LINE SMOOTH",
"264 -216 OFFCURVE",
"236 -229 OFFCURVE",
"200 -229 CURVE SMOOTH",
"166 -229 LINE",
"163 -249 LINE",
"198 -249 LINE SMOOTH"
);
}
);
width = 432;
}
);
leftMetricsKey = H;
rightMetricsKey = H;
unicode = 014A;
},
{
glyphname = O;
lastChange = "2021-05-19 22:43:31 +0000";
layers = (
{
background = {
paths = (
{
closed = 1;
nodes = (
"275 -12 OFFCURVE",
"355 14 OFFCURVE",
"377 174 CURVE",
"418 465 LINE",
"432 564 OFFCURVE",
"361 600 OFFCURVE",
"252 600 CURVE",
"143 600 OFFCURVE",
"65 564 OFFCURVE",
"51 465 CURVE",
"10 173 LINE",
"-12 14 OFFCURVE",
"57 -12 OFFCURVE",
"166 -12 CURVE"
);
},
{
closed = 1;
nodes = (
"169 80 OFFCURVE",
"154 87 OFFCURVE",
"157 110 CURVE",
"208 473 LINE",
"211 496 OFFCURVE",
"228 503 OFFCURVE",
"238 503 CURVE",
"247 503 OFFCURVE",
"263 496 OFFCURVE",
"260 473 CURVE",
"209 110 LINE",
"206 87 OFFCURVE",
"188 80 OFFCURVE",
"179 80 CURVE"
);
}
);
};
layerId = "8A3706BD-364F-4FE3-9C2E-7E87DF0DB4CC";
paths = (
{
closed = 1;
nodes = (
"275 -12 OFFCURVE",
"355 14 OFFCURVE",
"377 174 CURVE SMOOTH",
"418 465 LINE SMOOTH",
"432 564 OFFCURVE",
"361 600 OFFCURVE",
"252 600 CURVE SMOOTH",
"143 600 OFFCURVE",
"65 564 OFFCURVE",
"51 465 CURVE SMOOTH",
"10 173 LINE SMOOTH",
"-12 14 OFFCURVE",
"57 -12 OFFCURVE",
"166 -12 CURVE SMOOTH"
);
},
{
closed = 1;
nodes = (
"169 80 OFFCURVE",
"154 87 OFFCURVE",
"157 110 CURVE SMOOTH",
"208 473 LINE SMOOTH",
"211 496 OFFCURVE",
"228 503 OFFCURVE",
"238 503 CURVE SMOOTH",
"247 503 OFFCURVE",
"263 496 OFFCURVE",
"260 473 CURVE SMOOTH",
"209 110 LINE SMOOTH",
"206 87 OFFCURVE",
"188 80 OFFCURVE",
"179 80 CURVE SMOOTH"
);
}
);
width = 407;
},
{
layerId = "D84909E6-9227-4984-810E-91F1FC034344";
paths = (
{
closed = 1;
nodes = (
"248 -12 OFFCURVE",
"308 2 OFFCURVE",
"325 120 CURVE SMOOTH",
"374 469 LINE SMOOTH",
"390 582 OFFCURVE",
"334 599 OFFCURVE",
"255 599 CURVE SMOOTH",
"176 599 OFFCURVE",
"115 584 OFFCURVE",
"99 469 CURVE SMOOTH",
"49 120 LINE SMOOTH",
"33 4 OFFCURVE",
"89 -12 OFFCURVE",
"167 -12 CURVE SMOOTH"
);
},
{
closed = 1;
nodes = (
"103 6 OFFCURVE",
"58 19 OFFCURVE",
"73 121 CURVE SMOOTH",
"121 466 LINE SMOOTH",
"135 568 OFFCURVE",
"184 581 OFFCURVE",
"252 581 CURVE SMOOTH",
"318 581 OFFCURVE",
"364 568 OFFCURVE",
"349 466 CURVE SMOOTH",
"301 121 LINE SMOOTH",
"287 19 OFFCURVE",
"238 6 OFFCURVE",
"170 6 CURVE SMOOTH"
);
}
);
width = 410;
}
);
leftKerningGroup = O;
rightKerningGroup = O;
unicode = 004F;
},
{
glyphname = Oslash;
lastChange = "2021-05-19 22:43:31 +0000";
layers = (
{
background = {
paths = (
{
closed = 1;
nodes = (
"273 -12 OFFCURVE",
"343 14 OFFCURVE",
"365 174 CURVE",
"406 465 LINE",
"420 564 OFFCURVE",
"359 600 OFFCURVE",
"250 600 CURVE",
"141 600 OFFCURVE",
"63 564 OFFCURVE",
"49 465 CURVE",
"8 173 LINE",
"-14 14 OFFCURVE",
"55 -12 OFFCURVE",
"164 -12 CURVE"
);
},
{
closed = 1;
nodes = (
"167 80 OFFCURVE",
"162 87 OFFCURVE",
"165 110 CURVE",
"216 473 LINE",
"220 496 OFFCURVE",
"227 503 OFFCURVE",
"237 503 CURVE",
"246 503 OFFCURVE",
"252 496 OFFCURVE",
"248 473 CURVE",
"197 110 LINE",
"194 87 OFFCURVE",
"186 80 OFFCURVE",
"177 80 CURVE"
);
},
{
closed = 1;
nodes = (
"43 -15 LINE",
"435 591 LINE",
"368 591 LINE",
"-23 -15 LINE"
);
}
);
};
layerId = "8A3706BD-364F-4FE3-9C2E-7E87DF0DB4CC";
paths = (
{
closed = 1;
nodes = (
"43 -15 LINE",
"435 591 LINE",
"368 591 LINE",
"-23 -15 LINE"
);
},
{
closed = 1;
nodes = (
"273 -12 OFFCURVE",
"343 14 OFFCURVE",
"365 174 CURVE SMOOTH",
"406 465 LINE SMOOTH",
"420 564 OFFCURVE",
"359 600 OFFCURVE",
"250 600 CURVE SMOOTH",
"141 600 OFFCURVE",
"63 564 OFFCURVE",
"49 465 CURVE SMOOTH",
"8 173 LINE SMOOTH",
"-14 14 OFFCURVE",
"55 -12 OFFCURVE",
"164 -12 CURVE SMOOTH"
);
},
{
closed = 1;
nodes = (
"167 80 OFFCURVE",
"162 87 OFFCURVE",
"165 110 CURVE SMOOTH",
"216 473 LINE SMOOTH",
"220 496 OFFCURVE",
"227 503 OFFCURVE",
"237 503 CURVE SMOOTH",
"246 503 OFFCURVE",
"252 496 OFFCURVE",
"248 473 CURVE SMOOTH",
"197 110 LINE SMOOTH",
"194 87 OFFCURVE",
"186 80 OFFCURVE",
"177 80 CURVE SMOOTH"
);
}
);
width = 411;
},
{
hints = (
{
horizontal = 1;
place = "{-84.441, 617.294}";
type = Stem;
},
{
place = "{-17.471, 309.618}";
type = Stem;
}
);
layerId = "D84909E6-9227-4984-810E-91F1FC034344";
paths = (
{
closed = 1;
nodes = (
"20 -14 LINE",
"409 591 LINE",
"385 591 LINE",
"-4 -14 LINE"
);
},
{
closed = 1;
nodes = (
"250 -12 OFFCURVE",
"310 2 OFFCURVE",
"326 120 CURVE SMOOTH",
"376 469 LINE SMOOTH",
"392 582 OFFCURVE",
"336 599 OFFCURVE",
"257 599 CURVE SMOOTH",
"178 599 OFFCURVE",
"116 584 OFFCURVE",
"100 469 CURVE SMOOTH",
"51 120 LINE SMOOTH",
"35 4 OFFCURVE",
"91 -12 OFFCURVE",
"169 -12 CURVE SMOOTH"
);
},
{
closed = 1;
nodes = (
"105 6 OFFCURVE",
"60 19 OFFCURVE",
"75 121 CURVE SMOOTH",
"123 466 LINE SMOOTH",
"138 568 OFFCURVE",
"186 581 OFFCURVE",
"254 581 CURVE SMOOTH",
"320 581 OFFCURVE",
"366 568 OFFCURVE",
"351 466 CURVE SMOOTH",
"303 121 LINE SMOOTH",
"288 19 OFFCURVE",
"240 6 OFFCURVE",
"172 6 CURVE SMOOTH"
);
}
);
width = 427;
}
);
unicode = 00D8;
},
{
glyphname = OE;
lastChange = "2021-05-19 22:43:31 +0000";
layers = (
{
background = {
paths = (
{
closed = 1;
nodes = (
"273 -12 OFFCURVE",
"343 14 OFFCURVE",
"365 174 CURVE",
"406 465 LINE",
"420 564 OFFCURVE",
"359 600 OFFCURVE",
"250 600 CURVE",
"141 600 OFFCURVE",
"63 564 OFFCURVE",
"49 465 CURVE",
"8 173 LINE",
"-14 14 OFFCURVE",
"55 -12 OFFCURVE",
"164 -12 CURVE"
);
},
{
closed = 1;
nodes = (
"167 80 OFFCURVE",
"162 87 OFFCURVE",
"165 110 CURVE",
"216 473 LINE",
"219 496 OFFCURVE",
"226 503 OFFCURVE",
"236 503 CURVE",
"245 503 OFFCURVE",
"251 496 OFFCURVE",
"248 473 CURVE",
"197 110 LINE",
"194 87 OFFCURVE",
"186 80 OFFCURVE",
"177 80 CURVE"
);
},
{
closed = 1;
nodes = (
"489 0 LINE",
"504 108 LINE",
"356 108 LINE",
"374 240 LINE",
"512 240 LINE",
"530 365 LINE",
"392 365 LINE",
"408 480 LINE",
"556 480 LINE",
"572 591 LINE",
"266 591 LINE",
"183 0 LINE"
);
}
);
};
layerId = "8A3706BD-364F-4FE3-9C2E-7E87DF0DB4CC";
paths = (
{
closed = 1;
nodes = (
"273 -12 OFFCURVE",
"343 14 OFFCURVE",
"365 174 CURVE SMOOTH",
"406 465 LINE SMOOTH",
"420 564 OFFCURVE",
"359 600 OFFCURVE",
"250 600 CURVE SMOOTH",
"141 600 OFFCURVE",
"63 564 OFFCURVE",
"49 465 CURVE SMOOTH",
"8 173 LINE SMOOTH",
"-14 14 OFFCURVE",
"55 -12 OFFCURVE",
"164 -12 CURVE SMOOTH"
);
},
{
closed = 1;
nodes = (
"167 80 OFFCURVE",
"162 87 OFFCURVE",
"165 110 CURVE SMOOTH",
"216 473 LINE SMOOTH",
"219 496 OFFCURVE",
"226 503 OFFCURVE",
"236 503 CURVE SMOOTH",
"245 503 OFFCURVE",
"251 496 OFFCURVE",
"248 473 CURVE SMOOTH",
"197 110 LINE SMOOTH",
"194 87 OFFCURVE",
"186 80 OFFCURVE",
"177 80 CURVE SMOOTH"
);
},
{
closed = 1;
nodes = (
"489 0 LINE",
"504 108 LINE",
"356 108 LINE",
"374 240 LINE",
"512 240 LINE",
"530 365 LINE",
"392 365 LINE",
"408 480 LINE",
"556 480 LINE",
"572 591 LINE",
"266 591 LINE",
"183 0 LINE"
);
}
);
width = 555;
},
{
layerId = "D84909E6-9227-4984-810E-91F1FC034344";
paths = (
{
closed = 1;
nodes = (
"250 -12 OFFCURVE",
"310 2 OFFCURVE",
"326 120 CURVE SMOOTH",
"376 469 LINE SMOOTH",
"392 582 OFFCURVE",
"336 599 OFFCURVE",
"257 599 CURVE SMOOTH",
"178 599 OFFCURVE",
"116 584 OFFCURVE",
"100 469 CURVE SMOOTH",
"51 120 LINE SMOOTH",
"35 4 OFFCURVE",
"91 -12 OFFCURVE",
"169 -12 CURVE SMOOTH"
);
},
{
closed = 1;
nodes = (
"105 6 OFFCURVE",
"60 19 OFFCURVE",
"75 121 CURVE SMOOTH",
"123 466 LINE SMOOTH",
"137 568 OFFCURVE",
"186 581 OFFCURVE",
"253 581 CURVE SMOOTH",
"320 581 OFFCURVE",
"366 568 OFFCURVE",
"351 466 CURVE SMOOTH",
"303 121 LINE SMOOTH",
"288 19 OFFCURVE",
"240 6 OFFCURVE",
"172 6 CURVE SMOOTH"
);
},
{
closed = 1;
nodes = (
"529 0 LINE",
"531 19 LINE",
"312 19 LINE",
"352 302 LINE",
"521 302 LINE",
"524 321 LINE",
"355 321 LINE",
"391 572 LINE",
"609 572 LINE",
"612 591 LINE",
"369 591 LINE",
"286 0 LINE"
);
}
);
width = 634;
}
);
unicode = 0152;
},
{
glyphname = P;
lastChange = "2021-05-19 22:43:31 +0000";
layers = (
{
background = {
paths = (
{
closed = 1;
nodes = (
"156 0 LINE",
"188 224 LINE",
"262 224 LINE",
"354 224 OFFCURVE",
"390 303 OFFCURVE",
"403 392 CURVE",
"416 490 LINE",
"425 549 OFFCURVE",
"394 591 OFFCURVE",
"306 591 CURVE",
"74 591 LINE",
"-10 0 LINE"
);
},
{
closed = 1;
nodes = (
"243 507 LINE",
"260 507 OFFCURVE",
"257 483 OFFCURVE",
"248 418 CURVE SMOOTH",
"247 408 LINE SMOOTH",
"237 335 OFFCURVE",
"226 310 OFFCURVE",
"212 310 CURVE",
"200 310 LINE",
"228 507 LINE"
);
}
);
};
layerId = "8A3706BD-364F-4FE3-9C2E-7E87DF0DB4CC";
paths = (
{
closed = 1;
nodes = (
"156 0 LINE",
"188 224 LINE",
"262 224 LINE SMOOTH",
"354 224 OFFCURVE",
"390 303 OFFCURVE",
"403 392 CURVE SMOOTH",
"416 490 LINE SMOOTH",
"425 549 OFFCURVE",
"394 591 OFFCURVE",
"306 591 CURVE SMOOTH",
"74 591 LINE",
"-10 0 LINE"
);
},
{
closed = 1;
nodes = (
"228 507 LINE",
"243 507 LINE SMOOTH",
"260 507 OFFCURVE",
"257 483 OFFCURVE",
"248 418 CURVE SMOOTH",
"247 408 LINE SMOOTH",
"237 335 OFFCURVE",
"226 310 OFFCURVE",
"212 310 CURVE SMOOTH",
"200 310 LINE"
);
}
);
width = 399;
},
{
layerId = "D84909E6-9227-4984-810E-91F1FC034344";
paths = (
{
closed = 1;
nodes = (
"68 0 LINE",
"106 267 LINE",
"224 267 LINE SMOOTH",
"332 267 OFFCURVE",
"360 321 OFFCURVE",
"368 381 CURVE SMOOTH",
"384 494 LINE SMOOTH",
"394 566 OFFCURVE",
"349 591 OFFCURVE",
"291 591 CURVE SMOOTH",
"127 591 LINE",
"43 0 LINE"
);
},
{
closed = 1;
nodes = (
"148 573 LINE",
"287 573 LINE SMOOTH",
"331 573 OFFCURVE",
"367 546 OFFCURVE",
"359 489 CURVE SMOOTH",
"345 386 LINE SMOOTH",
"335 319 OFFCURVE",
"294 285 OFFCURVE",
"225 285 CURVE SMOOTH",
"108 285 LINE"
);
}
);
width = 379;
}
);
leftKerningGroup = H;
leftMetricsKey = H;
rightKerningGroup = P;
unicode = 0050;
},
{
glyphname = Thorn;
lastChange = "2021-05-19 22:43:31 +0000";
layers = (
{
background = {
paths = (
{
closed = 1;
nodes = (
"149 0 LINE",
"167 127 LINE",
"192 127 OFFCURVE",
"216 127 OFFCURVE",
"241 127 CURVE SMOOTH",
"333 127 OFFCURVE",
"369 206 OFFCURVE",
"382 295 CURVE SMOOTH",
"396 393 LINE SMOOTH",
"404 453 OFFCURVE",
"373 494 OFFCURVE",
"285 494 CURVE SMOOTH",
"263 494 OFFCURVE",
"242 494 OFFCURVE",
"220 494 CURVE",
"234 591 LINE",
"67 591 LINE",
"-17 0 LINE"
);
},
{
closed = 1;
nodes = (
"207 410 LINE",
"216 410 OFFCURVE",
"216 410 OFFCURVE",
"222 410 CURVE SMOOTH",
"240 410 OFFCURVE",
"237 387 OFFCURVE",
"228 321 CURVE SMOOTH",
"226 311 LINE SMOOTH",
"216 238 OFFCURVE",
"206 213 OFFCURVE",
"191 213 CURVE SMOOTH",
"187 213 OFFCURVE",
"183 213 OFFCURVE",
"179 213 CURVE"
);
}
);
};
layerId = "8A3706BD-364F-4FE3-9C2E-7E87DF0DB4CC";
paths = (
{
closed = 1;
nodes = (
"149 0 LINE",
"167 127 LINE",
"241 127 LINE SMOOTH",
"333 127 OFFCURVE",
"369 206 OFFCURVE",
"382 295 CURVE SMOOTH",
"396 393 LINE SMOOTH",
"404 453 OFFCURVE",
"373 494 OFFCURVE",
"285 494 CURVE SMOOTH",
"220 494 LINE",
"234 591 LINE",
"67 591 LINE",
"-17 0 LINE"
);
},
{
closed = 1;
nodes = (
"207 410 LINE",
"222 410 LINE SMOOTH",
"240 410 OFFCURVE",
"237 387 OFFCURVE",
"228 321 CURVE SMOOTH",
"226 311 LINE SMOOTH",
"216 238 OFFCURVE",
"206 213 OFFCURVE",
"191 213 CURVE SMOOTH",
"179 213 LINE"
);
}
);
width = 407;
},
{
hints = (
{
horizontal = 1;
place = "{-40.765, 21}";
target = up;
type = BottomGhost;
},
{
horizontal = 1;
place = "{104.824, -25.235}";
type = Stem;
},
{
horizontal = 1;
place = "{402.794, -25.235}";
type = Stem;
},
{
horizontal = 1;
place = "{532.853, -20}";
target = down;
type = TopGhost;
},
{
place = "{7.765, -21.353}";
type = Stem;
},
{
place = "{248.471, -21.353}";
type = Stem;
}
);
layerId = "D84909E6-9227-4984-810E-91F1FC034344";
paths = (
{
closed = 1;
nodes = (
"32 0 LINE",
"53 149 LINE",
"172 149 LINE SMOOTH",
"280 149 OFFCURVE",
"307 204 OFFCURVE",
"315 264 CURVE SMOOTH",
"331 377 LINE SMOOTH",
"341 448 OFFCURVE",
"296 474 OFFCURVE",
"238 474 CURVE SMOOTH",
"99 474 LINE",
"116 591 LINE",
"91 591 LINE",
"7 0 LINE"
);
},
{
closed = 1;
nodes = (
"96 456 LINE",
"235 456 LINE SMOOTH",
"279 456 OFFCURVE",
"315 429 OFFCURVE",
"307 371 CURVE SMOOTH",
"292 268 LINE SMOOTH",
"283 201 OFFCURVE",
"243 167 OFFCURVE",
"173 167 CURVE SMOOTH",
"56 167 LINE"
);
}
);
width = 369;
}
);
note = Thorn;
unicode = 00DE;
},
{
color = 4;
glyphname = Q;
lastChange = "2021-05-19 22:43:31 +0000";
layers = (
{
background = {
paths = (
{
closed = 1;
nodes = (
"335 -68 LINE",
"297 20 LINE",
"331 47 OFFCURVE",
"354 93 OFFCURVE",
"365 174 CURVE",
"406 465 LINE",
"420 564 OFFCURVE",
"359 600 OFFCURVE",
"250 600 CURVE",
"141 600 OFFCURVE",
"63 564 OFFCURVE",
"49 465 CURVE",
"8 173 LINE",
"-14 14 OFFCURVE",
"55 -12 OFFCURVE",
"164 -12 CURVE",
"166 -12 OFFCURVE",
"169 -12 OFFCURVE",
"171 -12 CURVE",
"223 -129 LINE"
);
},
{
closed = 1;
nodes = (
"167 80 OFFCURVE",
"162 87 OFFCURVE",
"165 110 CURVE",
"216 473 LINE",
"220 496 OFFCURVE",
"227 503 OFFCURVE",
"237 503 CURVE",
"246 503 OFFCURVE",
"252 496 OFFCURVE",
"248 473 CURVE",
"197 110 LINE",
"194 87 OFFCURVE",
"186 80 OFFCURVE",
"177 80 CURVE"
);
}
);
};
layerId = "8A3706BD-364F-4FE3-9C2E-7E87DF0DB4CC";
paths = (
{
closed = 1;
nodes = (
"341 -68 LINE",
"302 24 LINE",
"339 51 OFFCURVE",
"365 97 OFFCURVE",
"376 178 CURVE SMOOTH",
"416 465 LINE SMOOTH",
"430 564 OFFCURVE",
"367 600 OFFCURVE",
"256 600 CURVE SMOOTH",
"145 600 OFFCURVE",
"65 564 OFFCURVE",
"51 465 CURVE SMOOTH",
"11 177 LINE SMOOTH",
"-12 18 OFFCURVE",
"58 -8 OFFCURVE",
"164 -8 CURVE SMOOTH",
"169 -8 OFFCURVE",
"173 -8 OFFCURVE",
"178 -8 CURVE",
"229 -129 LINE"
);
},
{
closed = 1;
nodes = (
"172 84 OFFCURVE",
"165 91 OFFCURVE",
"168 114 CURVE SMOOTH",
"218 473 LINE SMOOTH",
"222 496 OFFCURVE",
"231 503 OFFCURVE",
"243 503 CURVE SMOOTH",
"254 503 OFFCURVE",
"262 496 OFFCURVE",
"258 473 CURVE SMOOTH",
"208 114 LINE SMOOTH",
"205 91 OFFCURVE",
"195 84 OFFCURVE",
"184 84 CURVE SMOOTH"
);
}
);
width = 406;
},
{
layerId = "D84909E6-9227-4984-810E-91F1FC034344";
paths = (
{
closed = 1;
nodes = (
"285 -99 LINE",
"240 -3 LINE",
"284 9 OFFCURVE",
"314 41 OFFCURVE",
"325 120 CURVE SMOOTH",
"374 469 LINE SMOOTH",
"390 582 OFFCURVE",
"334 599 OFFCURVE",
"255 599 CURVE SMOOTH",
"176 599 OFFCURVE",
"115 584 OFFCURVE",
"99 469 CURVE SMOOTH",
"49 120 LINE SMOOTH",
"33 4 OFFCURVE",
"89 -12 OFFCURVE",
"167 -12 CURVE SMOOTH",
"185 -12 OFFCURVE",
"200 -11 OFFCURVE",
"215 -9 CURVE",
"261 -112 LINE"
);
},
{
closed = 1;
nodes = (
"103 6 OFFCURVE",
"58 19 OFFCURVE",
"73 121 CURVE SMOOTH",
"121 466 LINE SMOOTH",
"136 568 OFFCURVE",
"184 581 OFFCURVE",
"252 581 CURVE SMOOTH",
"318 581 OFFCURVE",
"364 568 OFFCURVE",
"349 466 CURVE SMOOTH",
"301 121 LINE SMOOTH",
"287 19 OFFCURVE",
"239 6 OFFCURVE",
"170 6 CURVE SMOOTH"
);
}
);
width = 410;
}
);
leftKerningGroup = O;
leftMetricsKey = O;
rightKerningGroup = O;
rightMetricsKey = O;
unicode = 0051;
},
{
color = 4;
glyphname = R;
lastChange = "2021-05-19 22:43:31 +0000";
layers = (
{
background = {
paths = (
{
closed = 1;
nodes = (
"155 0 LINE",
"189 237 LINE",
"189 237 LINE",
"193 237 OFFCURVE",
"195 235 OFFCURVE",
"196 215 CURVE",
"206 0 LINE",
"383 0 LINE",
"376 72 OFFCURVE",
"367 143 OFFCURVE",
"359 215 CURVE",
"348 267 OFFCURVE",
"328 276 OFFCURVE",
"303 278 CURVE",
"378 294 OFFCURVE",
"402 344 OFFCURVE",
"410 399 CURVE",
"422 489 LINE",
"431 548 OFFCURVE",
"400 590 OFFCURVE",
"312 590 CURVE",
"73 591 LINE",
"-11 0 LINE"
);
},
{
closed = 1;
nodes = (
"227 507 LINE",
"246 507 LINE",
"263 507 OFFCURVE",
"263 492 OFFCURVE",
"255 441 CURVE SMOOTH",
"250 409 LINE SMOOTH",
"245 374 OFFCURVE",
"239 347 OFFCURVE",
"219 347 CURVE",
"204 347 LINE"
);
}
);
};
layerId = "8A3706BD-364F-4FE3-9C2E-7E87DF0DB4CC";
paths = (
{
closed = 1;
nodes = (
"156 0 LINE",
"190 237 LINE",
"193 237 LINE",
"198 237 OFFCURVE",
"200 221 OFFCURVE",
"201 194 CURVE SMOOTH",
"207 0 LINE",
"384 0 LINE",
"361 204 LINE SMOOTH",
"356 252 OFFCURVE",
"346 269 OFFCURVE",
"301 278 CURVE",
"301 280 LINE",
"373 288 OFFCURVE",
"404 342 OFFCURVE",
"412 400 CURVE SMOOTH",
"424 490 LINE SMOOTH",
"433 549 OFFCURVE",
"402 591 OFFCURVE",
"314 591 CURVE SMOOTH",
"74 591 LINE",
"-10 0 LINE"
);
},
{
closed = 1;
nodes = (
"228 507 LINE",
"247 507 LINE SMOOTH",
"264 507 OFFCURVE",
"269 497 OFFCURVE",
"264 461 CURVE SMOOTH",
"255 396 LINE SMOOTH",
"250 360 OFFCURVE",
"238 347 OFFCURVE",
"221 347 CURVE SMOOTH",
"205 347 LINE"
);
}
);
width = 424;
},
{
layerId = "D84909E6-9227-4984-810E-91F1FC034344";
paths = (
{
closed = 1;
nodes = (
"67 0 LINE",
"108 287 LINE",
"209 287 LINE",
"259 287 OFFCURVE",
"272 242 OFFCURVE",
"279 201 CURVE SMOOTH",
"312 0 LINE",
"336 0 LINE",
"301 203 LINE SMOOTH",
"291 264 OFFCURVE",
"278 294 OFFCURVE",
"235 293 CURVE",
"234 291 LINE",
"303 291 OFFCURVE",
"360 323 OFFCURVE",
"370 396 CURVE SMOOTH",
"384 494 LINE SMOOTH",
"394 566 OFFCURVE",
"349 591 OFFCURVE",
"291 591 CURVE SMOOTH",
"127 591 LINE",
"43 0 LINE"
);
},
{
closed = 1;
nodes = (
"147 573 LINE",
"287 573 LINE SMOOTH",
"331 573 OFFCURVE",
"367 547 OFFCURVE",
"359 490 CURVE SMOOTH",
"347 404 LINE SMOOTH",
"337 331 OFFCURVE",
"297 304 OFFCURVE",
"228 304 CURVE SMOOTH",
"110 304 LINE"
);
}
);
width = 410;
}
);
leftKerningGroup = H;
leftMetricsKey = H;
rightKerningGroup = R;
unicode = 0052;
},
{
glyphname = S;
lastChange = "2021-05-19 22:43:31 +0000";
layers = (
{
background = {
paths = (
{
closed = 1;
nodes = (
"279 -8 OFFCURVE",
"361 36 OFFCURVE",
"380 171 CURVE",
"397 290 OFFCURVE",
"363 313 OFFCURVE",
"279 345 CURVE",
"239 361 OFFCURVE",
"201 368 OFFCURVE",
"209 427 CURVE",
"213 456 OFFCURVE",
"218 467 OFFCURVE",
"235 467 CURVE",
"256 467 OFFCURVE",
"254 453 OFFCURVE",
"246 399 CURVE",
"245 394 OFFCURVE",
"243 378 OFFCURVE",
"242 373 CURVE",
"295 373 OFFCURVE",
"348 373 OFFCURVE",
"401 373 CURVE",
"404 395 OFFCURVE",
"409 427 OFFCURVE",
"412 449 CURVE",
"426 546 OFFCURVE",
"370 593 OFFCURVE",
"250 593 CURVE",
"110 593 OFFCURVE",
"61 548 OFFCURVE",
"43 422 CURVE",
"31 332 OFFCURVE",
"44 279 OFFCURVE",
"114 246 CURVE",
"190 211 OFFCURVE",
"217 211 OFFCURVE",
"208 147 CURVE",
"201 101 OFFCURVE",
"195 92 OFFCURVE",
"180 92 CURVE",
"166 92 OFFCURVE",
"160 101 OFFCURVE",
"168 155 CURVE",
"170 170 OFFCURVE",
"173 191 OFFCURVE",
"175 206 CURVE",
"119 206 OFFCURVE",
"64 206 OFFCURVE",
"8 206 CURVE",
"7 200 OFFCURVE",
"3 175 OFFCURVE",
"3 169 CURVE",
"-17 26 OFFCURVE",
"41 -8 OFFCURVE",
"160 -8 CURVE"
);
}
);
};
layerId = "8A3706BD-364F-4FE3-9C2E-7E87DF0DB4CC";
paths = (
{
closed = 1;
nodes = (
"279 -8 OFFCURVE",
"361 36 OFFCURVE",
"380 171 CURVE SMOOTH",
"397 290 OFFCURVE",
"363 313 OFFCURVE",
"279 345 CURVE SMOOTH",
"239 361 OFFCURVE",
"201 368 OFFCURVE",
"209 427 CURVE SMOOTH",
"213 456 OFFCURVE",
"218 467 OFFCURVE",
"235 467 CURVE SMOOTH",
"256 467 OFFCURVE",
"254 453 OFFCURVE",
"246 399 CURVE SMOOTH",
"242 373 LINE",
"295 373 OFFCURVE",
"348 373 OFFCURVE",
"401 373 CURVE",
"412 449 LINE SMOOTH",
"426 546 OFFCURVE",
"370 593 OFFCURVE",
"250 593 CURVE SMOOTH",
"110 593 OFFCURVE",
"61 548 OFFCURVE",
"43 422 CURVE SMOOTH",
"31 332 OFFCURVE",
"44 279 OFFCURVE",
"114 246 CURVE SMOOTH",
"190 211 OFFCURVE",
"217 211 OFFCURVE",
"208 147 CURVE SMOOTH",
"201 101 OFFCURVE",
"195 92 OFFCURVE",
"180 92 CURVE SMOOTH",
"166 92 OFFCURVE",
"160 101 OFFCURVE",
"168 155 CURVE SMOOTH",
"170 170 OFFCURVE",
"173 191 OFFCURVE",
"175 206 CURVE",
"8 206 LINE",
"7 200 OFFCURVE",
"3 175 OFFCURVE",
"3 169 CURVE",
"-17 26 OFFCURVE",
"41 -8 OFFCURVE",
"160 -8 CURVE SMOOTH"
);
}
);
width = 405;
},
{
layerId = "D84909E6-9227-4984-810E-91F1FC034344";
paths = (
{
closed = 1;
nodes = (
"220 -6 OFFCURVE",
"285 34 OFFCURVE",
"301 150 CURVE SMOOTH",
"315 247 OFFCURVE",
"281 274 OFFCURVE",
"196 310 CURVE SMOOTH",
"140 332 OFFCURVE",
"88 357 OFFCURVE",
"100 444 CURVE SMOOTH",
"113 529 OFFCURVE",
"151 572 OFFCURVE",
"226 572 CURVE SMOOTH",
"294 572 OFFCURVE",
"327 531 OFFCURVE",
"317 463 CURVE SMOOTH",
"309 404 LINE",
"316 404 OFFCURVE",
"324 404 OFFCURVE",
"331 404 CURVE",
"339 465 LINE SMOOTH",
"350 544 OFFCURVE",
"309 591 OFFCURVE",
"229 591 CURVE SMOOTH",
"136 591 OFFCURVE",
"92 539 OFFCURVE",
"78 443 CURVE SMOOTH",
"65 349 OFFCURVE",
"117 318 OFFCURVE",
"174 295 CURVE SMOOTH",
"247 265 OFFCURVE",
"292 247 OFFCURVE",
"278 149 CURVE SMOOTH",
"263 48 OFFCURVE",
"209 13 OFFCURVE",
"143 13 CURVE SMOOTH",
"81 13 OFFCURVE",
"42 48 OFFCURVE",
"58 166 CURVE SMOOTH",
"59 170 OFFCURVE",
"62 194 OFFCURVE",
"63 198 CURVE",
"41 198 LINE",
"40 194 OFFCURVE",
"37 170 OFFCURVE",
"36 166 CURVE",
"18 36 OFFCURVE",
"62 -6 OFFCURVE",
"141 -6 CURVE SMOOTH"
);
}
);
width = 362;
}
);
leftKerningGroup = S;
rightKerningGroup = S;
unicode = 0053;
},
{
color = 0;
glyphname = Germandbls;
lastChange = "2021-05-19 22:43:31 +0000";
layers = (
{
background = {
paths = (
{
closed = 1;
nodes = (
"279 -8 OFFCURVE",
"361 36 OFFCURVE",
"380 171 CURVE",
"397 290 OFFCURVE",
"363 313 OFFCURVE",
"279 345 CURVE",
"239 361 OFFCURVE",
"201 368 OFFCURVE",
"209 427 CURVE",
"213 456 OFFCURVE",
"218 467 OFFCURVE",
"235 467 CURVE",
"256 467 OFFCURVE",
"254 453 OFFCURVE",
"246 399 CURVE",
"245 394 OFFCURVE",
"243 378 OFFCURVE",
"242 373 CURVE",
"295 373 OFFCURVE",
"348 373 OFFCURVE",
"401 373 CURVE",
"404 395 OFFCURVE",
"409 427 OFFCURVE",
"412 449 CURVE",
"426 546 OFFCURVE",
"370 593 OFFCURVE",
"250 593 CURVE",
"110 593 OFFCURVE",
"61 548 OFFCURVE",
"43 422 CURVE",
"31 332 OFFCURVE",
"44 279 OFFCURVE",
"114 246 CURVE",
"190 211 OFFCURVE",
"217 211 OFFCURVE",
"208 147 CURVE",
"201 101 OFFCURVE",
"195 92 OFFCURVE",
"180 92 CURVE",
"166 92 OFFCURVE",
"160 101 OFFCURVE",
"168 155 CURVE",
"170 170 OFFCURVE",
"173 191 OFFCURVE",
"175 206 CURVE",
"119 206 OFFCURVE",
"64 206 OFFCURVE",
"8 206 CURVE",
"7 200 OFFCURVE",
"3 175 OFFCURVE",
"3 169 CURVE",
"-17 26 OFFCURVE",
"41 -8 OFFCURVE",
"160 -8 CURVE"
);
},
{
closed = 1;
nodes = (
"676 -8 OFFCURVE",
"758 36 OFFCURVE",
"777 171 CURVE",
"794 290 OFFCURVE",
"760 313 OFFCURVE",
"676 345 CURVE",
"636 361 OFFCURVE",
"598 368 OFFCURVE",
"606 427 CURVE",
"610 456 OFFCURVE",
"615 467 OFFCURVE",
"632 467 CURVE",
"653 467 OFFCURVE",
"651 453 OFFCURVE",
"643 399 CURVE",
"642 394 OFFCURVE",
"640 378 OFFCURVE",
"639 373 CURVE",
"692 373 OFFCURVE",
"745 373 OFFCURVE",
"798 373 CURVE",
"801 395 OFFCURVE",
"806 427 OFFCURVE",
"809 449 CURVE",
"823 546 OFFCURVE",
"767 593 OFFCURVE",
"647 593 CURVE",
"507 593 OFFCURVE",
"458 548 OFFCURVE",
"440 422 CURVE",
"428 332 OFFCURVE",
"441 279 OFFCURVE",
"511 246 CURVE",
"587 211 OFFCURVE",
"614 211 OFFCURVE",
"605 147 CURVE",
"598 101 OFFCURVE",
"592 92 OFFCURVE",
"577 92 CURVE",
"563 92 OFFCURVE",
"557 101 OFFCURVE",
"565 155 CURVE",
"567 170 OFFCURVE",
"570 191 OFFCURVE",
"572 206 CURVE",
"516 206 OFFCURVE",
"461 206 OFFCURVE",
"405 206 CURVE",
"404 200 OFFCURVE",
"400 175 OFFCURVE",
"400 169 CURVE",
"380 26 OFFCURVE",
"438 -8 OFFCURVE",
"557 -8 CURVE"
);
}
);
};
layerId = "8A3706BD-364F-4FE3-9C2E-7E87DF0DB4CC";
paths = (
{
closed = 1;
nodes = (
"676 -8 OFFCURVE",
"758 36 OFFCURVE",
"777 171 CURVE SMOOTH",
"794 290 OFFCURVE",
"760 313 OFFCURVE",
"676 345 CURVE SMOOTH",
"636 361 OFFCURVE",
"598 368 OFFCURVE",
"606 427 CURVE SMOOTH",
"610 456 OFFCURVE",
"615 467 OFFCURVE",
"632 467 CURVE SMOOTH",
"653 467 OFFCURVE",
"651 453 OFFCURVE",
"643 399 CURVE SMOOTH",
"639 373 LINE",
"692 373 OFFCURVE",
"745 373 OFFCURVE",
"798 373 CURVE",
"809 449 LINE SMOOTH",
"823 546 OFFCURVE",
"767 593 OFFCURVE",
"647 593 CURVE SMOOTH",
"507 593 OFFCURVE",
"458 548 OFFCURVE",
"440 422 CURVE SMOOTH",
"428 332 OFFCURVE",
"441 279 OFFCURVE",
"511 246 CURVE SMOOTH",
"587 211 OFFCURVE",
"614 211 OFFCURVE",
"605 147 CURVE SMOOTH",
"598 101 OFFCURVE",
"592 92 OFFCURVE",
"577 92 CURVE SMOOTH",
"563 92 OFFCURVE",
"557 101 OFFCURVE",
"565 155 CURVE SMOOTH",
"567 170 OFFCURVE",
"570 191 OFFCURVE",
"572 206 CURVE",
"405 206 LINE",
"404 200 OFFCURVE",
"400 175 OFFCURVE",
"400 169 CURVE",
"380 26 OFFCURVE",
"438 -8 OFFCURVE",
"557 -8 CURVE SMOOTH"
);
},
{
closed = 1;
nodes = (
"279 -8 OFFCURVE",
"361 36 OFFCURVE",
"380 171 CURVE SMOOTH",
"397 290 OFFCURVE",
"363 313 OFFCURVE",
"279 345 CURVE SMOOTH",
"239 361 OFFCURVE",
"201 368 OFFCURVE",
"209 427 CURVE SMOOTH",
"213 456 OFFCURVE",
"218 467 OFFCURVE",
"235 467 CURVE SMOOTH",
"256 467 OFFCURVE",
"254 453 OFFCURVE",
"246 399 CURVE SMOOTH",
"242 373 LINE",
"295 373 OFFCURVE",
"348 373 OFFCURVE",
"401 373 CURVE",
"412 449 LINE SMOOTH",
"426 546 OFFCURVE",
"370 593 OFFCURVE",
"250 593 CURVE SMOOTH",
"110 593 OFFCURVE",
"61 548 OFFCURVE",
"43 422 CURVE SMOOTH",
"31 332 OFFCURVE",
"44 279 OFFCURVE",
"114 246 CURVE SMOOTH",
"190 211 OFFCURVE",
"217 211 OFFCURVE",
"208 147 CURVE SMOOTH",
"201 101 OFFCURVE",
"195 92 OFFCURVE",
"180 92 CURVE SMOOTH",
"166 92 OFFCURVE",
"160 101 OFFCURVE",
"168 155 CURVE SMOOTH",
"170 170 OFFCURVE",
"173 191 OFFCURVE",
"175 206 CURVE",
"8 206 LINE",
"7 200 OFFCURVE",
"3 175 OFFCURVE",
"3 169 CURVE",
"-17 26 OFFCURVE",
"41 -8 OFFCURVE",
"160 -8 CURVE SMOOTH"
);
}
);
width = 814;
},
{
layerId = "D84909E6-9227-4984-810E-91F1FC034344";
paths = (
{
closed = 1;
nodes = (
"584 -6 OFFCURVE",
"649 34 OFFCURVE",
"665 150 CURVE SMOOTH",
"679 247 OFFCURVE",
"645 274 OFFCURVE",
"560 310 CURVE SMOOTH",
"504 332 OFFCURVE",
"452 357 OFFCURVE",
"464 444 CURVE SMOOTH",
"477 529 OFFCURVE",
"515 572 OFFCURVE",
"590 572 CURVE SMOOTH",
"658 572 OFFCURVE",
"691 531 OFFCURVE",
"681 463 CURVE SMOOTH",
"673 404 LINE",
"680 404 OFFCURVE",
"688 404 OFFCURVE",
"695 404 CURVE",
"703 465 LINE SMOOTH",
"714 544 OFFCURVE",
"673 591 OFFCURVE",
"593 591 CURVE SMOOTH",
"500 591 OFFCURVE",
"456 539 OFFCURVE",
"442 443 CURVE SMOOTH",
"429 349 OFFCURVE",
"481 318 OFFCURVE",
"538 295 CURVE SMOOTH",
"611 265 OFFCURVE",
"656 247 OFFCURVE",
"642 149 CURVE SMOOTH",
"627 48 OFFCURVE",
"573 13 OFFCURVE",
"507 13 CURVE SMOOTH",
"445 13 OFFCURVE",
"406 48 OFFCURVE",
"422 166 CURVE SMOOTH",
"423 170 OFFCURVE",
"426 194 OFFCURVE",
"427 198 CURVE",
"405 198 LINE",
"404 194 OFFCURVE",
"401 170 OFFCURVE",
"400 166 CURVE",
"382 36 OFFCURVE",
"426 -6 OFFCURVE",
"505 -6 CURVE SMOOTH"
);
},
{
closed = 1;
nodes = (
"239 -6 OFFCURVE",
"305 34 OFFCURVE",
"321 150 CURVE SMOOTH",
"334 247 OFFCURVE",
"301 274 OFFCURVE",
"215 310 CURVE SMOOTH",
"159 332 OFFCURVE",
"108 357 OFFCURVE",
"120 444 CURVE SMOOTH",
"132 529 OFFCURVE",
"170 572 OFFCURVE",
"246 572 CURVE SMOOTH",
"313 572 OFFCURVE",
"346 531 OFFCURVE",
"336 463 CURVE SMOOTH",
"328 404 LINE",
"336 404 OFFCURVE",
"343 404 OFFCURVE",
"351 404 CURVE",
"359 465 LINE SMOOTH",
"370 544 OFFCURVE",
"328 591 OFFCURVE",
"248 591 CURVE SMOOTH",
"156 591 OFFCURVE",
"111 539 OFFCURVE",
"97 443 CURVE SMOOTH",
"84 349 OFFCURVE",
"136 318 OFFCURVE",
"194 295 CURVE SMOOTH",
"267 265 OFFCURVE",
"311 247 OFFCURVE",
"297 149 CURVE SMOOTH",
"283 48 OFFCURVE",
"228 13 OFFCURVE",
"163 13 CURVE SMOOTH",
"100 13 OFFCURVE",
"61 48 OFFCURVE",
"78 166 CURVE SMOOTH",
"79 170 OFFCURVE",
"82 194 OFFCURVE",
"83 198 CURVE",
"60 198 LINE",
"59 194 OFFCURVE",
"56 170 OFFCURVE",
"55 166 CURVE",
"37 36 OFFCURVE",
"82 -6 OFFCURVE",
"160 -6 CURVE SMOOTH"
);
}
);
width = 759;
}
);
unicode = 1E9E;
},
{
glyphname = T;
lastChange = "2021-05-19 22:43:31 +0000";
layers = (
{
background = {
paths = (
{
closed = 1;
nodes = (
"217 0 LINE",
"285 480 LINE",
"370 480 LINE",
"386 591 LINE",
"57 591 LINE",
"41 480 LINE",
"126 480 LINE",
"58 0 LINE"
);
}
);
};
layerId = "8A3706BD-364F-4FE3-9C2E-7E87DF0DB4CC";
paths = (
{
closed = 1;
nodes = (
"217 0 LINE",
"285 480 LINE",
"370 480 LINE",
"386 591 LINE",
"57 591 LINE",
"41 480 LINE",
"126 480 LINE",
"58 0 LINE"
);
}
);
width = 346;
},
{
layerId = "D84909E6-9227-4984-810E-91F1FC034344";
paths = (
{
closed = 1;
nodes = (
"106 0 LINE",
"187 572 LINE",
"294 572 LINE",
"298 591 LINE",
"61 591 LINE",
"58 572 LINE",
"163 572 LINE",
"82 0 LINE"
);
}
);
width = 262;
}
);
leftKerningGroup = T;
rightKerningGroup = T;
unicode = 0054;
},
{
glyphname = U;
lastChange = "2021-05-19 22:43:31 +0000";
layers = (
{
background = {
paths = (
{
closed = 1;
nodes = (
"271 -12 OFFCURVE",
"343 4 OFFCURVE",
"365 164 CURVE",
"425 591 LINE",
"266 591 LINE",
"199 115 LINE",
"196 92 OFFCURVE",
"188 85 OFFCURVE",
"178 85 CURVE",
"168 85 OFFCURVE",
"162 92 OFFCURVE",
"165 115 CURVE",
"232 591 LINE",
"73 591 LINE",
"13 163 LINE",
"-9 4 OFFCURVE",
"59 -12 OFFCURVE",
"165 -12 CURVE"
);
}
);
};
layerId = "8A3706BD-364F-4FE3-9C2E-7E87DF0DB4CC";
paths = (
{
closed = 1;
nodes = (
"271 -12 OFFCURVE",
"343 4 OFFCURVE",
"365 164 CURVE SMOOTH",
"425 591 LINE",
"266 591 LINE",
"199 115 LINE SMOOTH",
"196 92 OFFCURVE",
"188 85 OFFCURVE",
"178 85 CURVE SMOOTH",
"168 85 OFFCURVE",
"162 92 OFFCURVE",
"165 115 CURVE SMOOTH",
"232 591 LINE",
"73 591 LINE",
"13 163 LINE SMOOTH",
"-9 4 OFFCURVE",
"59 -12 OFFCURVE",
"165 -12 CURVE SMOOTH"
);
}
);
width = 402;
},
{
layerId = "D84909E6-9227-4984-810E-91F1FC034344";
paths = (
{
closed = 1;
nodes = (
"246 -12 OFFCURVE",
"312 5 OFFCURVE",
"327 112 CURVE SMOOTH",
"394 591 LINE",
"371 591 LINE",
"304 113 LINE SMOOTH",
"291 23 OFFCURVE",
"235 6 OFFCURVE",
"175 6 CURVE SMOOTH",
"116 6 OFFCURVE",
"64 23 OFFCURVE",
"77 113 CURVE SMOOTH",
"144 591 LINE",
"120 591 LINE",
"53 112 LINE SMOOTH",
"38 5 OFFCURVE",
"101 -12 OFFCURVE",
"173 -12 CURVE SMOOTH"
);
}
);
width = 418;
}
);
leftKerningGroup = U;
leftMetricsKey = "=O+5";
rightKerningGroup = U;
rightMetricsKey = "=O+5";
unicode = 0055;
},
{
color = 4;
glyphname = V;
lastChange = "2021-05-19 22:43:31 +0000";
layers = (
{
background = {
paths = (
{
closed = 1;
nodes = (
"287 0 LINE",
"459 591 LINE",
"300 591 LINE",
"202 181 LINE",
"197 157 LINE",
"199 181 LINE",
"221 591 LINE",
"56 591 LINE",
"58 0 LINE"
);
}
);
};
layerId = "8A3706BD-364F-4FE3-9C2E-7E87DF0DB4CC";
paths = (
{
closed = 1;
nodes = (
"287 0 LINE",
"459 591 LINE",
"300 591 LINE",
"198 157 LINE",
"196 157 LINE",
"221 591 LINE",
"56 591 LINE",
"58 0 LINE"
);
}
);
width = 419;
},
{
layerId = "D84909E6-9227-4984-810E-91F1FC034344";
paths = (
{
closed = 1;
nodes = (
"129 0 LINE",
"334 591 LINE",
"311 591 LINE",
"125 51 LINE",
"129 51 LINE",
"95 591 LINE",
"73 591 LINE",
"109 0 LINE"
);
}
);
width = 310;
}
);
leftKerningGroup = V;
rightKerningGroup = V;
unicode = 0056;
},
{
glyphname = W;
lastChange = "2021-05-19 22:43:31 +0000";
layers = (
{
background = {
paths = (
{
closed = 1;
nodes = (
"244 0 LINE",
"319 258 LINE",
"321 0 LINE",
"507 0 LINE",
"677 591 LINE",
"512 591 LINE",
"416 200 LINE",
"433 591 LINE",
"300 591 LINE",
"207 200 LINE",
"221 591 LINE",
"56 591 LINE",
"58 0 LINE"
);
}
);
};
layerId = "8A3706BD-364F-4FE3-9C2E-7E87DF0DB4CC";
paths = (
{
closed = 1;
nodes = (
"244 0 LINE",
"319 258 LINE",
"321 0 LINE",
"507 0 LINE",
"677 591 LINE",
"512 591 LINE",
"416 200 LINE",
"433 591 LINE",
"300 591 LINE",
"207 200 LINE",
"221 591 LINE",
"56 591 LINE",
"58 0 LINE"
);
}
);
width = 637;
},
{
layerId = "D84909E6-9227-4984-810E-91F1FC034344";
paths = (
{
closed = 1;
nodes = (
"114 0 LINE",
"296 526 LINE",
"329 0 LINE",
"356 0 LINE",
"536 591 LINE",
"514 591 LINE",
"346 43 LINE",
"313 591 LINE",
"296 591 LINE",
"107 42 LINE",
"95 591 LINE",
"73 591 LINE",
"85 0 LINE"
);
}
);
width = 513;
}
);
leftKerningGroup = W;
rightKerningGroup = W;
unicode = 0057;
},
{
glyphname = X;
lastChange = "2021-05-19 22:43:31 +0000";
layers = (
{
background = {
paths = (
{
closed = 1;
nodes = (
"138 0 LINE",
"189 154 LINE",
"202 0 LINE",
"361 0 LINE",
"330 307 LINE",
"447 591 LINE",
"278 591 LINE",
"227 436 LINE",
"214 591 LINE",
"55 591 LINE",
"94 307 LINE",
"-31 0 LINE"
);
}
);
};
layerId = "8A3706BD-364F-4FE3-9C2E-7E87DF0DB4CC";
paths = (
{
closed = 1;
nodes = (
"138 0 LINE",
"189 154 LINE",
"202 0 LINE",
"361 0 LINE",
"330 307 LINE",
"447 591 LINE",
"278 591 LINE",
"227 436 LINE",
"214 591 LINE",
"55 591 LINE",
"94 307 LINE",
"-31 0 LINE"
);
}
);
width = 403;
},
{
layerId = "D84909E6-9227-4984-810E-91F1FC034344";
paths = (
{
closed = 1;
nodes = (
"11 0 LINE",
"149 288 LINE",
"203 0 LINE",
"227 0 LINE",
"171 297 LINE",
"313 591 LINE",
"291 591 LINE",
"151 304 LINE",
"104 591 LINE",
"81 591 LINE",
"129 298 LINE",
"-14 0 LINE"
);
}
);
width = 287;
}
);
leftKerningGroup = X;
rightKerningGroup = X;
unicode = 0058;
},
{
glyphname = Y;
lastChange = "2021-05-19 22:43:31 +0000";
layers = (
{
background = {
paths = (
{
closed = 1;
nodes = (
"238 0 LINE",
"272 236 LINE",
"436 591 LINE",
"292 591 LINE",
"241 467 LINE",
"225 415 LINE",
"223 467 LINE",
"209 591 LINE",
"52 591 LINE",
"114 245 LINE",
"79 0 LINE"
);
}
);
};
layerId = "8A3706BD-364F-4FE3-9C2E-7E87DF0DB4CC";
paths = (
{
closed = 1;
nodes = (
"238 0 LINE",
"272 236 LINE",
"436 591 LINE",
"292 591 LINE",
"241 467 LINE",
"225 415 LINE",
"223 467 LINE",
"209 591 LINE",
"52 591 LINE",
"114 245 LINE",
"79 0 LINE"
);
}
);
width = 392;
},
{
layerId = "D84909E6-9227-4984-810E-91F1FC034344";
paths = (
{
closed = 1;
nodes = (
"119 0 LINE",
"157 264 LINE",
"322 591 LINE",
"296 591 LINE",
"153 300 LINE",
"149 293 LINE",
"148 300 LINE",
"96 591 LINE",
"69 591 LINE",
"132 265 LINE",
"95 0 LINE"
);
}
);
width = 296;
}
);
leftKerningGroup = Y;
rightKerningGroup = Y;
unicode = 0059;
},
{
glyphname = Z;
lastChange = "2021-05-19 22:43:31 +0000";
layers = (
{
background = {
paths = (
{
closed = 1;
nodes = (
"256 0 LINE",
"272 111 LINE",
"157 111 LINE",
"329 516 LINE",
"340 591 LINE",
"62 591 LINE",
"46 480 LINE",
"143 480 LINE",
"-18 98 LINE",
"-32 0 LINE"
);
}
);
};
layerId = "8A3706BD-364F-4FE3-9C2E-7E87DF0DB4CC";
paths = (
{
closed = 1;
nodes = (
"256 0 LINE",
"272 111 LINE",
"157 111 LINE",
"329 516 LINE",
"340 591 LINE",
"62 591 LINE",
"46 480 LINE",
"143 480 LINE",
"-18 98 LINE",
"-32 0 LINE"
);
}
);
width = 308;
},
{
layerId = "D84909E6-9227-4984-810E-91F1FC034344";
paths = (
{
closed = 1;
nodes = (
"208 0 LINE",
"212 19 LINE",
"14 19 LINE",
"289 569 LINE",
"292 591 LINE",
"82 591 LINE",
"79 572 LINE",
"261 572 LINE",
"-10 22 LINE",
"-14 0 LINE"
);
}
);
width = 266;
}
);
leftKerningGroup = Z;
rightKerningGroup = Z;
unicode = 005A;
},
{
glyphname = a;
lastChange = "2021-05-19 22:43:31 +0000";
layers = (
{
background = {
paths = (
{
closed = 1;
nodes = (
"179 -8 OFFCURVE",
"202 23 OFFCURVE",
"218 47 CURVE",
"210 0 LINE",
"331 0 LINE",
"401 495 LINE",
"246 495 LINE",
"241 459 LINE",
"231 476 OFFCURVE",
"215 500 OFFCURVE",
"162 500 CURVE SMOOTH",
"125 500 OFFCURVE",
"54 489 OFFCURVE",
"41 391 CURVE",
"7 153 LINE",
"-13 3 OFFCURVE",
"48 -8 OFFCURVE",
"121 -8 CURVE SMOOTH"
);
},
{
closed = 1;
nodes = (
"188 335 LINE SMOOTH",
"194 378 OFFCURVE",
"194 409 OFFCURVE",
"215 409 CURVE SMOOTH",
"225 409 OFFCURVE",
"229 407 OFFCURVE",
"233 405 CURVE",
"195 138 LINE SMOOTH",
"192 115 OFFCURVE",
"188 81 OFFCURVE",
"169 81 CURVE SMOOTH",
"154 81 OFFCURVE",
"153 93 OFFCURVE",
"157 123 CURVE SMOOTH"
);
}
);
};
layerId = "8A3706BD-364F-4FE3-9C2E-7E87DF0DB4CC";
paths = (
{
closed = 1;
nodes = (
"179 -8 OFFCURVE",
"202 23 OFFCURVE",
"218 47 CURVE",
"210 0 LINE",
"331 0 LINE",
"401 495 LINE",
"246 495 LINE",
"241 459 LINE",
"231 476 OFFCURVE",
"215 500 OFFCURVE",
"162 500 CURVE SMOOTH",
"125 500 OFFCURVE",
"54 489 OFFCURVE",
"41 391 CURVE SMOOTH",
"7 153 LINE SMOOTH",
"-13 3 OFFCURVE",
"48 -8 OFFCURVE",
"121 -8 CURVE SMOOTH"
);
},
{
closed = 1;
nodes = (
"154 81 OFFCURVE",
"153 93 OFFCURVE",
"157 123 CURVE SMOOTH",
"188 335 LINE SMOOTH",
"194 378 OFFCURVE",
"194 409 OFFCURVE",
"215 409 CURVE SMOOTH",
"225 409 OFFCURVE",
"229 407 OFFCURVE",
"233 405 CURVE",
"195 138 LINE SMOOTH",
"192 115 OFFCURVE",
"188 81 OFFCURVE",
"169 81 CURVE SMOOTH"
);
}
);
width = 391;
},
{
layerId = "D84909E6-9227-4984-810E-91F1FC034344";
paths = (
{
closed = 1;
nodes = (
"190 -8 OFFCURVE",
"227 50 OFFCURVE",
"244 93 CURVE",
"231 0 LINE",
"256 0 LINE",
"326 495 LINE",
"301 495 LINE",
"296 455 LINE",
"286 493 OFFCURVE",
"238 505 OFFCURVE",
"198 505 CURVE SMOOTH",
"141 505 OFFCURVE",
"88 498 OFFCURVE",
"74 384 CURVE SMOOTH",
"29 108 LINE SMOOTH",
"16 -7 OFFCURVE",
"88 -8 OFFCURVE",
"113 -8 CURVE SMOOTH"
);
},
{
closed = 1;
nodes = (
"101 10 OFFCURVE",
"40 14 OFFCURVE",
"53 106 CURVE SMOOTH",
"95 377 LINE SMOOTH",
"103 439 OFFCURVE",
"116 488 OFFCURVE",
"197 488 CURVE SMOOTH",
"276 488 OFFCURVE",
"285 435 OFFCURVE",
"290 422 CURVE",
"258 196 LINE SMOOTH",
"253 163 OFFCURVE",
"219 10 OFFCURVE",
"122 10 CURVE SMOOTH"
);
}
);
width = 350;
}
);
leftKerningGroup = o;
leftMetricsKey = o;
rightKerningGroup = d;
rightMetricsKey = "=n+5";
unicode = 0061;
},
{
color = 4;
glyphname = ae;
lastChange = "2021-05-19 22:43:31 +0000";
layers = (
{
background = {
paths = (
{
closed = 1;
nodes = (
"118 -7 OFFCURVE",
"144 5 OFFCURVE",
"157 18 CURVE",
"168 28 OFFCURVE",
"176 39 OFFCURVE",
"180 49 CURVE",
"173 0 LINE",
"329 0 LINE",
"383 386 LINE",
"397 481 OFFCURVE",
"359 505 OFFCURVE",
"224 505 CURVE",
"87 505 OFFCURVE",
"59 452 OFFCURVE",
"48 378 CURVE",
"40 321 LINE",
"181 321 LINE",
"187 363 LINE",
"194 410 OFFCURVE",
"198 423 OFFCURVE",
"212 423 CURVE",
"226 423 OFFCURVE",
"228 412 OFFCURVE",
"226 397 CURVE",
"221 365 LINE",
"216 325 OFFCURVE",
"207 311 OFFCURVE",
"163 297 CURVE SMOOTH",
"132 287 OFFCURVE",
"93 277 OFFCURVE",
"61 255 CURVE",
"35 237 OFFCURVE",
"15 211 OFFCURVE",
"9 170 CURVE",
"7 159 OFFCURVE",
"-1 100 OFFCURVE",
"-2 89 CURVE",
"-16 -10 OFFCURVE",
"53 -7 OFFCURVE",
"82 -7 CURVE"
);
},
{
closed = 1;
nodes = (
"150 93 OFFCURVE",
"152 111 OFFCURVE",
"154 129 CURVE",
"158 158 LINE",
"158 158 OFFCURVE",
"162 185 OFFCURVE",
"163 190 CURVE",
"166 207 OFFCURVE",
"170 214 OFFCURVE",
"180 224 CURVE SMOOTH",
"189 232 OFFCURVE",
"200 236 OFFCURVE",
"204 241 CURVE",
"190 140 LINE SMOOTH",
"185 106 OFFCURVE",
"182 93 OFFCURVE",
"166 93 CURVE"
);
},
{
closed = 1;
nodes = (
"377 98 LINE",
"374 75 OFFCURVE",
"366 68 OFFCURVE",
"356 68 CURVE",
"346 68 OFFCURVE",
"340 75 OFFCURVE",
"343 98 CURVE",
"362 233 LINE",
"552 233 LINE",
"571 373 LINE",
"585 472 OFFCURVE",
"528 503 OFFCURVE",
"417 503 CURVE",
"306 503 OFFCURVE",
"239 472 OFFCURVE",
"225 373 CURVE",
"196 166 LINE",
"174 7 OFFCURVE",
"240 -2 OFFCURVE",
"346 -2 CURVE",
"452 -2 OFFCURVE",
"520 7 OFFCURVE",
"542 167 CURVE",
"545 188 LINE",
"389 188 LINE"
);
},
{
closed = 1;
nodes = (
"387 416 OFFCURVE",
"395 423 OFFCURVE",
"405 423 CURVE",
"415 423 OFFCURVE",
"421 416 OFFCURVE",
"418 393 CURVE",
"405 300 LINE",
"371 300 LINE",
"384 393 LINE"
);
}
);
};
layerId = "8A3706BD-364F-4FE3-9C2E-7E87DF0DB4CC";
paths = (
{
closed = 1;
nodes = (
"128 -7 OFFCURVE",
"183 13 OFFCURVE",
"215 78 CURVE",
"299 0 LINE",
"353 386 LINE SMOOTH",
"364 464 OFFCURVE",
"336 505 OFFCURVE",
"224 505 CURVE SMOOTH",
"87 505 OFFCURVE",
"59 452 OFFCURVE",
"48 378 CURVE SMOOTH",
"40 321 LINE",
"181 321 LINE",
"187 363 LINE SMOOTH",
"194 410 OFFCURVE",
"198 423 OFFCURVE",
"212 423 CURVE SMOOTH",
"226 423 OFFCURVE",
"228 412 OFFCURVE",
"226 397 CURVE SMOOTH",
"221 365 LINE SMOOTH",
"214 311 OFFCURVE",
"197 308 OFFCURVE",
"137 289 CURVE SMOOTH",
"69 267 OFFCURVE",
"19 239 OFFCURVE",
"9 170 CURVE SMOOTH",
"-2 89 LINE SMOOTH",
"-16 -10 OFFCURVE",
"53 -7 OFFCURVE",
"82 -7 CURVE SMOOTH"
);
},
{
closed = 1;
nodes = (
"150 93 OFFCURVE",
"152 111 OFFCURVE",
"154 129 CURVE SMOOTH",
"163 190 LINE SMOOTH",
"165 207 OFFCURVE",
"170 214 OFFCURVE",
"180 224 CURVE SMOOTH",
"189 232 OFFCURVE",
"200 236 OFFCURVE",
"204 241 CURVE",
"190 140 LINE SMOOTH",
"185 106 OFFCURVE",
"182 93 OFFCURVE",
"166 93 CURVE SMOOTH"
);
},
{
closed = 1;
nodes = (
"452 -2 OFFCURVE",
"520 7 OFFCURVE",
"542 167 CURVE SMOOTH",
"545 188 LINE",
"389 188 LINE",
"377 98 LINE SMOOTH",
"374 75 OFFCURVE",
"366 68 OFFCURVE",
"356 68 CURVE SMOOTH",
"346 68 OFFCURVE",
"340 75 OFFCURVE",
"343 98 CURVE SMOOTH",
"362 233 LINE",
"552 233 LINE",
"571 373 LINE SMOOTH",
"585 472 OFFCURVE",
"528 503 OFFCURVE",
"417 503 CURVE SMOOTH",
"319 503 OFFCURVE",
"256 445 OFFCURVE",
"245 373 CURVE SMOOTH",
"216 166 LINE SMOOTH",
"194 7 OFFCURVE",
"252 -2 OFFCURVE",
"346 -2 CURVE SMOOTH"
);
},
{
closed = 1;
nodes = (
"384 393 LINE SMOOTH",
"387 416 OFFCURVE",
"395 423 OFFCURVE",
"405 423 CURVE SMOOTH",
"415 423 OFFCURVE",
"421 416 OFFCURVE",
"418 393 CURVE SMOOTH",
"405 300 LINE",
"371 300 LINE"
);
}
);
width = 564;
},
{
layerId = "D84909E6-9227-4984-810E-91F1FC034344";
paths = (
{
closed = 1;
nodes = (
"177 -3 OFFCURVE",
"227 21 OFFCURVE",
"256 86 CURVE",
"265 58 LINE",
"313 403 LINE SMOOTH",
"321 456 OFFCURVE",
"318 505 OFFCURVE",
"217 505 CURVE SMOOTH",
"120 505 OFFCURVE",
"91 452 OFFCURVE",
"81 378 CURVE SMOOTH",
"75 334 LINE",
"98 334 LINE",
"104 376 LINE SMOOTH",
"113 446 OFFCURVE",
"135 487 OFFCURVE",
"214 487 CURVE SMOOTH",
"260 487 OFFCURVE",
"306 475 OFFCURVE",
"297 414 CURVE SMOOTH",
"293 386 LINE SMOOTH",
"288 350 OFFCURVE",
"242 321 OFFCURVE",
"159 280 CURVE SMOOTH",
"93 248 OFFCURVE",
"44 211 OFFCURVE",
"35 148 CURVE SMOOTH",
"31 113 LINE SMOOTH",
"15 3 OFFCURVE",
"77 -3 OFFCURVE",
"118 -3 CURVE SMOOTH"
);
},
{
closed = 1;
nodes = (
"91 16 OFFCURVE",
"41 19 OFFCURVE",
"55 114 CURVE SMOOTH",
"59 144 LINE SMOOTH",
"67 201 OFFCURVE",
"104 231 OFFCURVE",
"166 264 CURVE SMOOTH",
"213 288 OFFCURVE",
"262 309 OFFCURVE",
"286 338 CURVE",
"260 157 LINE SMOOTH",
"247 70 OFFCURVE",
"204 16 OFFCURVE",
"125 16 CURVE SMOOTH"
);
},
{
closed = 1;
nodes = (
"449 -2 OFFCURVE",
"482 25 OFFCURVE",
"497 128 CURVE SMOOTH",
"503 172 LINE",
"479 172 LINE",
"473 126 LINE SMOOTH",
"460 41 OFFCURVE",
"439 18 OFFCURVE",
"361 18 CURVE SMOOTH",
"283 18 OFFCURVE",
"268 39 OFFCURVE",
"280 119 CURVE SMOOTH",
"300 262 LINE",
"516 262 LINE",
"533 385 LINE SMOOTH",
"546 477 OFFCURVE",
"520 505 OFFCURVE",
"431 505 CURVE SMOOTH",
"340 505 OFFCURVE",
"306 476 OFFCURVE",
"294 385 CURVE SMOOTH",
"257 121 LINE SMOOTH",
"242 19 OFFCURVE",
"269 -2 OFFCURVE",
"359 -2 CURVE SMOOTH"
);
},
{
closed = 1;
nodes = (
"317 384 LINE SMOOTH",
"327 456 OFFCURVE",
"349 487 OFFCURVE",
"427 487 CURVE SMOOTH",
"505 487 OFFCURVE",
"519 456 OFFCURVE",
"509 384 CURVE SMOOTH",
"494 281 LINE",
"302 281 LINE"
);
}
);
width = 553;
}
);
leftMetricsKey = a;
rightMetricsKey = e;
unicode = 00E6;
},
{
glyphname = b;
lastChange = "2021-05-19 22:43:31 +0000";
layers = (
{
background = {
paths = (
{
closed = 1;
nodes = (
"100 0 LINE",
"109 43 LINE",
"115 26 OFFCURVE",
"141 -7 OFFCURVE",
"199 -7 CURVE SMOOTH",
"275 -7 OFFCURVE",
"337 3 OFFCURVE",
"358 154 CURVE",
"391 391 LINE",
"405 489 OFFCURVE",
"348 505 OFFCURVE",
"299 505 CURVE SMOOTH",
"249 505 OFFCURVE",
"226 479 OFFCURVE",
"211 460 CURVE",
"235 630 LINE",
"79 630 LINE",
"-10 0 LINE"
);
},
{
closed = 1;
nodes = (
"196 110 OFFCURVE",
"192 98 OFFCURVE",
"177 98 CURVE SMOOTH",
"164 98 OFFCURVE",
"162 110 OFFCURVE",
"165 133 CURVE",
"199 378 LINE",
"203 401 OFFCURVE",
"211 408 OFFCURVE",
"221 408 CURVE SMOOTH",
"231 408 OFFCURVE",
"237 401 OFFCURVE",
"233 378 CURVE",
"199 133 LINE SMOOTH"
);
}
);
};
layerId = "8A3706BD-364F-4FE3-9C2E-7E87DF0DB4CC";
paths = (
{
closed = 1;
nodes = (
"275 -7 OFFCURVE",
"337 3 OFFCURVE",
"358 154 CURVE SMOOTH",
"391 391 LINE SMOOTH",
"405 489 OFFCURVE",
"348 505 OFFCURVE",
"299 505 CURVE SMOOTH",
"249 505 OFFCURVE",
"226 479 OFFCURVE",
"211 460 CURVE",
"235 630 LINE",
"79 630 LINE",
"-10 0 LINE",
"100 0 LINE",
"109 43 LINE",
"115 26 OFFCURVE",
"141 -7 OFFCURVE",
"199 -7 CURVE SMOOTH"
);
},
{
closed = 1;
nodes = (
"164 98 OFFCURVE",
"162 110 OFFCURVE",
"165 133 CURVE SMOOTH",
"199 378 LINE SMOOTH",
"203 401 OFFCURVE",
"211 408 OFFCURVE",
"221 408 CURVE SMOOTH",
"231 408 OFFCURVE",
"237 401 OFFCURVE",
"233 378 CURVE SMOOTH",
"199 133 LINE SMOOTH",
"196 110 OFFCURVE",
"192 98 OFFCURVE",
"177 98 CURVE SMOOTH"
);
}
);
width = 391;
},
{
layerId = "D84909E6-9227-4984-810E-91F1FC034344";
paths = (
{
closed = 1;
nodes = (
"262 -7 OFFCURVE",
"280 60 OFFCURVE",
"289 125 CURVE SMOOTH",
"324 375 LINE SMOOTH",
"332 438 OFFCURVE",
"334 505 OFFCURVE",
"223 505 CURVE SMOOTH",
"168 505 OFFCURVE",
"136 488 OFFCURVE",
"117 464 CURVE",
"141 630 LINE",
"118 630 LINE",
"29 0 LINE",
"47 0 LINE",
"56 47 LINE",
"64 16 OFFCURVE",
"85 -7 OFFCURVE",
"150 -7 CURVE SMOOTH"
);
},
{
closed = 1;
nodes = (
"50 13 OFFCURVE",
"67 96 OFFCURVE",
"76 161 CURVE SMOOTH",
"107 383 LINE SMOOTH",
"114 434 OFFCURVE",
"128 485 OFFCURVE",
"219 485 CURVE SMOOTH",
"319 485 OFFCURVE",
"307 422 OFFCURVE",
"299 365 CURVE SMOOTH",
"266 132 LINE SMOOTH",
"257 75 OFFCURVE",
"252 13 OFFCURVE",
"152 13 CURVE SMOOTH"
);
}
);
width = 355;
}
);
leftKerningGroup = b;
leftMetricsKey = n;
rightKerningGroup = o;
rightMetricsKey = o;
unicode = 0062;
},
{
glyphname = c;
lastChange = "2021-05-20 00:58:28 +0000";
layers = (
{
background = {
paths = (
{
closed = 1;
nodes = (
"263 -12 OFFCURVE",
"332 7 OFFCURVE",
"355 167 CURVE",
"361 213 LINE",
"205 213 LINE",
"189 98 LINE",
"186 75 OFFCURVE",
"178 68 OFFCURVE",
"168 68 CURVE",
"158 68 OFFCURVE",
"152 75 OFFCURVE",
"155 98 CURVE",
"197 393 LINE",
"200 416 OFFCURVE",
"208 423 OFFCURVE",
"218 423 CURVE",
"228 423 OFFCURVE",
"234 416 OFFCURVE",
"231 393 CURVE",
"217 294 LINE",
"373 294 LINE",
"384 373 LINE",
"398 472 OFFCURVE",
"340 503 OFFCURVE",
"229 503 CURVE",
"118 503 OFFCURVE",
"52 472 OFFCURVE",
"38 373 CURVE",
"9 166 LINE",
"-14 7 OFFCURVE",
"51 -12 OFFCURVE",
"157 -12 CURVE"
);
}
);
};
layerId = "8A3706BD-364F-4FE3-9C2E-7E87DF0DB4CC";
paths = (
{
closed = 1;
nodes = (
"263 -12 OFFCURVE",
"332 7 OFFCURVE",
"355 167 CURVE SMOOTH",
"361 213 LINE",
"205 213 LINE",
"189 98 LINE SMOOTH",
"186 75 OFFCURVE",
"178 68 OFFCURVE",
"168 68 CURVE SMOOTH",
"158 68 OFFCURVE",
"152 75 OFFCURVE",
"155 98 CURVE SMOOTH",
"197 393 LINE SMOOTH",
"200 416 OFFCURVE",
"208 423 OFFCURVE",
"218 423 CURVE SMOOTH",
"228 423 OFFCURVE",
"234 416 OFFCURVE",
"231 393 CURVE SMOOTH",
"217 294 LINE",
"373 294 LINE",
"384 373 LINE SMOOTH",
"398 472 OFFCURVE",
"340 503 OFFCURVE",
"229 503 CURVE SMOOTH",
"118 503 OFFCURVE",
"52 472 OFFCURVE",
"38 373 CURVE SMOOTH",
"9 166 LINE SMOOTH",
"-14 7 OFFCURVE",
"51 -12 OFFCURVE",
"157 -12 CURVE SMOOTH"
);
}
);
width = 381;
},
{
layerId = "D84909E6-9227-4984-810E-91F1FC034344";
paths = (
{
closed = 1;
nodes = (
"224 -9 OFFCURVE",
"257 19 OFFCURVE",
"272 121 CURVE SMOOTH",
"279 173 LINE",
"255 173 LINE",
"247 119 LINE SMOOTH",
"236 39 OFFCURVE",
"213 11 OFFCURVE",
"135 11 CURVE SMOOTH",
"57 11 OFFCURVE",
"43 39 OFFCURVE",
"55 119 CURVE SMOOTH",
"92 384 LINE SMOOTH",
"102 456 OFFCURVE",
"126 487 OFFCURVE",
"203 487 CURVE SMOOTH",
"281 487 OFFCURVE",
"294 456 OFFCURVE",
"284 384 CURVE SMOOTH",
"276 327 LINE",
"300 327 LINE",
"308 385 LINE SMOOTH",
"321 477 OFFCURVE",
"295 505 OFFCURVE",
"206 505 CURVE SMOOTH",
"115 505 OFFCURVE",
"81 477 OFFCURVE",
"68 385 CURVE SMOOTH",
"31 121 LINE SMOOTH",
"17 19 OFFCURVE",
"43 -9 OFFCURVE",
"134 -9 CURVE SMOOTH"
);
}
);
width = 334;
}
);
leftKerningGroup = o;
leftMetricsKey = o;
rightKerningGroup = c;
rightMetricsKey = "=o-5";
unicode = 0063;
},
{
glyphname = d;
lastChange = "2021-05-19 22:43:31 +0000";
layers = (
{
background = {
paths = (
{
closed = 1;
nodes = (
"331 0 LINE",
"420 630 LINE",
"264 630 LINE",
"240 460 LINE",
"231 479 OFFCURVE",
"213 500 OFFCURVE",
"160 500 CURVE",
"126 500 OFFCURVE",
"54 489 OFFCURVE",
"40 391 CURVE",
"7 154 LINE",
"-14 3 OFFCURVE",
"45 -7 OFFCURVE",
"120 -7 CURVE",
"178 -7 OFFCURVE",
"207 33 OFFCURVE",
"217 47 CURVE",
"226 0 LINE"
);
},
{
closed = 1;
nodes = (
"159 80 OFFCURVE",
"153 87 OFFCURVE",
"157 110 CURVE",
"169 199 OFFCURVE",
"182 289 OFFCURVE",
"194 378 CURVE",
"198 401 OFFCURVE",
"206 408 OFFCURVE",
"216 408 CURVE",
"225 408 OFFCURVE",
"232 405 OFFCURVE",
"232 405 CURVE",
"218 307 OFFCURVE",
"204 208 OFFCURVE",
"191 110 CURVE",
"187 87 OFFCURVE",
"179 80 OFFCURVE",
"169 80 CURVE"
);
}
);
};
layerId = "8A3706BD-364F-4FE3-9C2E-7E87DF0DB4CC";
paths = (
{
closed = 1;
nodes = (
"178 -7 OFFCURVE",
"207 33 OFFCURVE",
"217 47 CURVE",
"226 0 LINE",
"331 0 LINE",
"420 630 LINE",
"264 630 LINE",
"240 460 LINE",
"231 479 OFFCURVE",
"213 500 OFFCURVE",
"160 500 CURVE SMOOTH",
"126 500 OFFCURVE",
"54 489 OFFCURVE",
"40 391 CURVE SMOOTH",
"7 154 LINE SMOOTH",
"-14 3 OFFCURVE",
"45 -7 OFFCURVE",
"120 -7 CURVE SMOOTH"
);
},
{
closed = 1;
nodes = (
"159 80 OFFCURVE",
"153 87 OFFCURVE",
"157 110 CURVE SMOOTH",
"194 378 LINE SMOOTH",
"198 401 OFFCURVE",
"206 408 OFFCURVE",
"216 408 CURVE SMOOTH",
"225 408 OFFCURVE",
"232 405 OFFCURVE",
"232 405 CURVE",
"218 307 OFFCURVE",
"204 208 OFFCURVE",
"191 110 CURVE SMOOTH",
"187 87 OFFCURVE",
"179 80 OFFCURVE",
"169 80 CURVE SMOOTH"
);
}
);
width = 391;
},
{
layerId = "D84909E6-9227-4984-810E-91F1FC034344";
paths = (
{
closed = 1;
nodes = (
"198 -8 OFFCURVE",
"226 17 OFFCURVE",
"243 47 CURVE",
"239 0 LINE",
"256 0 LINE",
"345 630 LINE",
"322 630 LINE",
"299 464 LINE",
"287 488 OFFCURVE",
"259 505 OFFCURVE",
"204 505 CURVE SMOOTH",
"93 505 OFFCURVE",
"76 438 OFFCURVE",
"67 375 CURVE SMOOTH",
"32 125 LINE SMOOTH",
"23 57 OFFCURVE",
"21 -8 OFFCURVE",
"130 -8 CURVE SMOOTH"
);
},
{
closed = 1;
nodes = (
"38 10 OFFCURVE",
"49 73 OFFCURVE",
"57 131 CURVE SMOOTH",
"90 365 LINE SMOOTH",
"98 423 OFFCURVE",
"103 487 OFFCURVE",
"203 487 CURVE SMOOTH",
"273 487 OFFCURVE",
"289 448 OFFCURVE",
"292 422 CURVE",
"279 334 OFFCURVE",
"267 248 OFFCURVE",
"255 160 CURVE SMOOTH",
"246 95 OFFCURVE",
"237 10 OFFCURVE",
"133 10 CURVE SMOOTH"
);
}
);
width = 354;
}
);
leftKerningGroup = o;
leftMetricsKey = o;
rightKerningGroup = d;
unicode = 0064;
},
{
glyphname = eth;
lastChange = "2021-05-20 00:58:28 +0000";
layers = (
{
background = {
paths = (
{
closed = 1;
nodes = (
"264 -12 OFFCURVE",
"332 7 OFFCURVE",
"355 167 CURVE SMOOTH",
"382 358 LINE SMOOTH",
"399 492 OFFCURVE",
"396 567 OFFCURVE",
"372 610 CURVE SMOOTH",
"347 654 OFFCURVE",
"298 662 OFFCURVE",
"224 662 CURVE SMOOTH",
"141 662 OFFCURVE",
"112 653 OFFCURVE",
"113 652 CURVE",
"99 553 LINE",
"137 559 OFFCURVE",
"159 562 OFFCURVE",
"187 562 CURVE SMOOTH",
"234 562 OFFCURVE",
"247 521 OFFCURVE",
"241 479 CURVE",
"236 479 OFFCURVE",
"231 479 OFFCURVE",
"226 479 CURVE SMOOTH",
"115 479 OFFCURVE",
"48 448 OFFCURVE",
"34 349 CURVE SMOOTH",
"9 166 LINE SMOOTH",
"-14 7 OFFCURVE",
"50 -12 OFFCURVE",
"157 -12 CURVE SMOOTH"
);
},
{
closed = 1;
nodes = (
"157 68 OFFCURVE",
"152 75 OFFCURVE",
"155 98 CURVE SMOOTH",
"193 369 LINE SMOOTH",
"196 392 OFFCURVE",
"203 399 OFFCURVE",
"214 399 CURVE SMOOTH",
"225 399 OFFCURVE",
"230 392 OFFCURVE",
"227 369 CURVE SMOOTH",
"189 98 LINE SMOOTH",
"186 75 OFFCURVE",
"179 68 OFFCURVE",
"168 68 CURVE SMOOTH"
);
},
{
closed = 1;
nodes = (
"167 487 LINE",
"393 651 LINE",
"363 691 LINE",
"139 528 LINE"
);
}
);
};
layerId = "8A3706BD-364F-4FE3-9C2E-7E87DF0DB4CC";
paths = (
{
closed = 1;
nodes = (
"264 -8 OFFCURVE",
"332 11 OFFCURVE",
"355 171 CURVE SMOOTH",
"382 358 LINE SMOOTH",
"414 590 OFFCURVE",
"392 662 OFFCURVE",
"230 662 CURVE SMOOTH",
"172 662 OFFCURVE",
"140 657 OFFCURVE",
"113 651 CURVE",
"99 553 LINE",
"137 559 OFFCURVE",
"159 562 OFFCURVE",
"187 562 CURVE SMOOTH",
"234 562 OFFCURVE",
"247 521 OFFCURVE",
"241 479 CURVE",
"230 479 OFFCURVE",
"220 479 OFFCURVE",
"209 479 CURVE SMOOTH",
"115 479 OFFCURVE",
"48 448 OFFCURVE",
"34 349 CURVE SMOOTH",
"9 170 LINE SMOOTH",
"-14 11 OFFCURVE",
"50 -8 OFFCURVE",
"157 -8 CURVE SMOOTH"
);
},
{
closed = 1;
nodes = (
"157 72 OFFCURVE",
"152 79 OFFCURVE",
"155 102 CURVE SMOOTH",
"193 369 LINE SMOOTH",
"196 392 OFFCURVE",
"203 399 OFFCURVE",
"214 399 CURVE SMOOTH",
"225 399 OFFCURVE",
"230 392 OFFCURVE",
"227 369 CURVE SMOOTH",
"189 102 LINE SMOOTH",
"186 79 OFFCURVE",
"179 72 OFFCURVE",
"168 72 CURVE SMOOTH"
);
},
{
closed = 1;
nodes = (
"393 651 LINE",
"363 691 LINE",
"139 528 LINE",
"167 487 LINE"
);
}
);
width = 386;
},
{
hints = (
{
horizontal = 1;
place = "{-55.324, -29.118}";
type = Stem;
},
{
horizontal = 1;
place = "{401.824, -30.088}";
type = Stem;
},
{
horizontal = 1;
place = "{578.471, -29.118}";
type = Stem;
},
{
place = "{1.941, -28.147}";
type = Stem;
},
{
place = "{262.059, -28.147}";
type = Stem;
},
{
place = "{259.147, -26.206}";
type = Stem;
},
{
horizontal = 1;
place = "{-54.353, -31.059}";
type = Stem;
},
{
horizontal = 1;
place = "{429, -32.029}";
type = Stem;
},
{
horizontal = 1;
place = "{580.412, -31.059}";
type = Stem;
},
{
place = "{1.941, -27.176}";
type = Stem;
},
{
place = "{212.559, -27.176}";
type = Stem;
},
{
horizontal = 1;
place = "{471.706, -32.029}";
type = Stem;
},
{
place = "{238.765, 110.647}";
type = Stem;
}
);
layerId = "D84909E6-9227-4984-810E-91F1FC034344";
paths = (
{
closed = 1;
nodes = (
"241 -8 OFFCURVE",
"267 85 OFFCURVE",
"276 154 CURVE SMOOTH",
"313 410 LINE SMOOTH",
"336 577 OFFCURVE",
"345 663 OFFCURVE",
"215 663 CURVE SMOOTH",
"175 663 OFFCURVE",
"141 651 OFFCURVE",
"121 647 CURVE",
"118 629 LINE",
"138 634 OFFCURVE",
"173 643 OFFCURVE",
"211 643 CURVE SMOOTH",
"314 643 OFFCURVE",
"306 577 OFFCURVE",
"293 451 CURVE",
"282 485 OFFCURVE",
"237 495 OFFCURVE",
"198 495 CURVE SMOOTH",
"137 495 OFFCURVE",
"84 487 OFFCURVE",
"67 373 CURVE SMOOTH",
"30 109 LINE SMOOTH",
"14 -6 OFFCURVE",
"84 -8 OFFCURVE",
"129 -8 CURVE SMOOTH"
);
},
{
closed = 1;
nodes = (
"104 10 OFFCURVE",
"41 14 OFFCURVE",
"54 105 CURVE SMOOTH",
"91 368 LINE SMOOTH",
"100 431 OFFCURVE",
"113 478 OFFCURVE",
"196 478 CURVE SMOOTH",
"276 478 OFFCURVE",
"290 422 OFFCURVE",
"289 412 CURVE SMOOTH",
"253 152 LINE SMOOTH",
"243 89 OFFCURVE",
"218 10 OFFCURVE",
"131 10 CURVE SMOOTH"
);
},
{
closed = 1;
nodes = (
"357 676 LINE",
"347 692 LINE",
"176 561 LINE",
"186 546 LINE"
);
}
);
width = 346;
}
);
leftMetricsKey = o;
note = eth;
rightKerningGroup = a;
rightMetricsKey = o;
unicode = 00F0;
},
{
glyphname = e;
lastChange = "2021-05-19 22:43:31 +0000";
layers = (
{
background = {
paths = (
{
closed = 1;
nodes = (
"203 189 LINE",
"192 112 LINE SMOOTH",
"187 78 OFFCURVE",
"178 72 OFFCURVE",
"168 72 CURVE SMOOTH",
"154 72 OFFCURVE",
"150 84 OFFCURVE",
"154 117 CURVE SMOOTH",
"168 225 LINE",
"234 225 OFFCURVE",
"367 252 OFFCURVE",
"383 370 CURVE SMOOTH",
"397 472 OFFCURVE",
"341 502 OFFCURVE",
"210 502 CURVE SMOOTH",
"117 502 OFFCURVE",
"52 472 OFFCURVE",
"38 373 CURVE SMOOTH",
"8 163 LINE SMOOTH",
"-13 15 OFFCURVE",
"50 -13 OFFCURVE",
"157 -13 CURVE SMOOTH",
"280 -13 OFFCURVE",
"333 10 OFFCURVE",
"350 137 CURVE SMOOTH",
"357 189 LINE"
);
},
{
closed = 1;
nodes = (
"188 358 LINE SMOOTH",
"195 416 OFFCURVE",
"202 424 OFFCURVE",
"217 424 CURVE SMOOTH",
"237 424 OFFCURVE",
"231 391 OFFCURVE",
"228 369 CURVE SMOOTH",
"219 303 OFFCURVE",
"192 299 OFFCURVE",
"181 300 CURVE"
);
}
);
};
layerId = "8A3706BD-364F-4FE3-9C2E-7E87DF0DB4CC";
paths = (
{
closed = 1;
nodes = (
"280 -13 OFFCURVE",
"333 10 OFFCURVE",
"350 137 CURVE SMOOTH",
"357 189 LINE",
"203 189 LINE",
"192 112 LINE SMOOTH",
"187 78 OFFCURVE",
"178 72 OFFCURVE",
"168 72 CURVE SMOOTH",
"154 72 OFFCURVE",
"150 84 OFFCURVE",
"154 117 CURVE SMOOTH",
"168 225 LINE",
"234 225 OFFCURVE",
"367 252 OFFCURVE",
"383 370 CURVE SMOOTH",
"397 472 OFFCURVE",
"341 502 OFFCURVE",
"210 502 CURVE SMOOTH",
"117 502 OFFCURVE",
"52 472 OFFCURVE",
"38 373 CURVE SMOOTH",
"8 163 LINE SMOOTH",
"-13 15 OFFCURVE",
"50 -13 OFFCURVE",
"157 -13 CURVE SMOOTH"
);
},
{
closed = 1;
nodes = (
"188 358 LINE SMOOTH",
"195 416 OFFCURVE",
"202 424 OFFCURVE",
"217 424 CURVE SMOOTH",
"237 424 OFFCURVE",
"231 391 OFFCURVE",
"228 369 CURVE SMOOTH",
"219 303 OFFCURVE",
"192 299 OFFCURVE",
"181 300 CURVE"
);
}
);
width = 376;
},
{
layerId = "D84909E6-9227-4984-810E-91F1FC034344";
paths = (
{
closed = 1;
nodes = (
"225 -9 OFFCURVE",
"256 19 OFFCURVE",
"271 121 CURVE SMOOTH",
"278 173 LINE",
"254 173 LINE",
"247 120 LINE SMOOTH",
"236 39 OFFCURVE",
"213 11 OFFCURVE",
"135 11 CURVE SMOOTH",
"57 11 OFFCURVE",
"43 39 OFFCURVE",
"55 120 CURVE SMOOTH",
"70 225 LINE",
"126 234 OFFCURVE",
"287 250 OFFCURVE",
"313 367 CURVE SMOOTH",
"334 464 OFFCURVE",
"306 502 OFFCURVE",
"210 502 CURVE SMOOTH",
"126 502 OFFCURVE",
"81 477 OFFCURVE",
"68 385 CURVE SMOOTH",
"31 121 LINE SMOOTH",
"16 19 OFFCURVE",
"43 -9 OFFCURVE",
"134 -9 CURVE SMOOTH"
);
},
{
closed = 1;
nodes = (
"92 383 LINE SMOOTH",
"102 456 OFFCURVE",
"135 484 OFFCURVE",
"211 484 CURVE SMOOTH",
"291 484 OFFCURVE",
"305 443 OFFCURVE",
"287 369 CURVE SMOOTH",
"266 278 OFFCURVE",
"143 254 OFFCURVE",
"73 247 CURVE"
);
}
);
width = 336;
}
);
leftKerningGroup = o;
leftMetricsKey = o;
rightKerningGroup = e;
rightMetricsKey = "=o-10";
unicode = 0065;
},
{
glyphname = f;
lastChange = "2021-05-19 22:43:31 +0000";
layers = (
{
background = {
paths = (
{
closed = 1;
nodes = (
"235 533 OFFCURVE",
"243 557 OFFCURVE",
"265 557 CURVE",
"291 557 OFFCURVE",
"318 554 OFFCURVE",
"318 554 CURVE",
"327 624 LINE",
"318 624 OFFCURVE",
"261 630 OFFCURVE",
"216 630 CURVE",
"161 630 OFFCURVE",
"91 624 OFFCURVE",
"76 512 CURVE",
"71 476 LINE",
"39 476 LINE",
"26 389 LINE",
"58 389 LINE",
"4 0 LINE",
"160 0 LINE",
"214 389 LINE",
"294 389 LINE",
"307 476 LINE",
"227 476 LINE",
"232 513 LINE"
);
}
);
};
layerId = "8A3706BD-364F-4FE3-9C2E-7E87DF0DB4CC";
paths = (
{
closed = 1;
nodes = (
"160 0 LINE",
"214 389 LINE",
"294 389 LINE",
"307 476 LINE",
"227 476 LINE",
"232 513 LINE SMOOTH",
"235 533 OFFCURVE",
"243 557 OFFCURVE",
"265 557 CURVE SMOOTH",
"291 557 OFFCURVE",
"318 554 OFFCURVE",
"318 554 CURVE",
"327 624 LINE",
"318 624 OFFCURVE",
"261 630 OFFCURVE",
"216 630 CURVE SMOOTH",
"161 630 OFFCURVE",
"91 624 OFFCURVE",
"76 512 CURVE SMOOTH",
"71 476 LINE",
"39 476 LINE",
"26 389 LINE",
"58 389 LINE",
"4 0 LINE"
);
}
);
width = 281;
},
{
layerId = "D84909E6-9227-4984-810E-91F1FC034344";
paths = (
{
closed = 1;
nodes = (
"52 0 LINE",
"117 457 LINE",
"242 457 LINE",
"244 476 LINE",
"119 476 LINE",
"129 543 LINE SMOOTH",
"134 578 OFFCURVE",
"152 617 OFFCURVE",
"192 617 CURVE SMOOTH",
"226 617 OFFCURVE",
"264 612 OFFCURVE",
"264 612 CURVE",
"266 632 LINE",
"251 634 OFFCURVE",
"220 636 OFFCURVE",
"195 636 CURVE SMOOTH",
"143 636 OFFCURVE",
"114 603 OFFCURVE",
"106 546 CURVE SMOOTH",
"96 476 LINE",
"65 476 LINE",
"63 457 LINE",
"94 457 LINE",
"29 0 LINE"
);
}
);
width = 212;
}
);
leftKerningGroup = f;
rightKerningGroup = f;
unicode = 0066;
},
{
glyphname = g;
lastChange = "2021-05-19 22:43:31 +0000";
layers = (
{
background = {
paths = (
{
closed = 1;
nodes = (
"165 122 OFFCURVE",
"159 129 OFFCURVE",
"162 153 CURVE",
"171 215 OFFCURVE",
"182 291 OFFCURVE",
"194 378 CURVE",
"197 401 OFFCURVE",
"205 408 OFFCURVE",
"215 408 CURVE",
"224 408 OFFCURVE",
"228 406 OFFCURVE",
"232 405 CURVE",
"223 344 OFFCURVE",
"217 300 OFFCURVE",
"196 152 CURVE",
"193 129 OFFCURVE",
"185 122 OFFCURVE",
"175 122 CURVE"
);
},
{
closed = 1;
nodes = (
"12 -105 OFFCURVE",
"105 -114 OFFCURVE",
"151 -114 CURVE SMOOTH",
"313 -114 OFFCURVE",
"333 18 OFFCURVE",
"346 106 CURVE",
"356 178 OFFCURVE",
"378 337 OFFCURVE",
"400 495 CURVE",
"395 495 OFFCURVE",
"265 495 OFFCURVE",
"260 495 CURVE",
"254 483 OFFCURVE",
"246 472 OFFCURVE",
"240 460 CURVE",
"232 499 OFFCURVE",
"201 500 OFFCURVE",
"160 500 CURVE",
"126 500 OFFCURVE",
"54 489 OFFCURVE",
"40 391 CURVE",
"19 244 OFFCURVE",
"21 254 OFFCURVE",
"12 196 CURVE",
"-9 45 OFFCURVE",
"31 31 OFFCURVE",
"91 31 CURVE",
"164 31 OFFCURVE",
"177 75 OFFCURVE",
"187 89 CURVE",
"184 67 OFFCURVE",
"181 45 OFFCURVE",
"178 23 CURVE",
"172 -19 OFFCURVE",
"136 -28 OFFCURVE",
"105 -28 CURVE SMOOTH",
"81 -28 OFFCURVE",
"35 -25 OFFCURVE",
"16 -21 CURVE",
"5 -102 LINE"
);
}
);
};
layerId = "8A3706BD-364F-4FE3-9C2E-7E87DF0DB4CC";
paths = (
{
closed = 1;
nodes = (
"312 -121 OFFCURVE",
"333 11 OFFCURVE",
"345 99 CURVE SMOOTH",
"401 495 LINE",
"261 495 LINE",
"240 460 LINE",
"232 499 OFFCURVE",
"202 500 OFFCURVE",
"161 500 CURVE SMOOTH",
"127 500 OFFCURVE",
"54 489 OFFCURVE",
"40 391 CURVE SMOOTH",
"13 196 LINE SMOOTH",
"-8 45 OFFCURVE",
"32 31 OFFCURVE",
"92 31 CURVE SMOOTH",
"165 31 OFFCURVE",
"178 75 OFFCURVE",
"188 89 CURVE",
"178 16 LINE SMOOTH",
"172 -26 OFFCURVE",
"135 -35 OFFCURVE",
"104 -35 CURVE SMOOTH",
"80 -35 OFFCURVE",
"35 -32 OFFCURVE",
"15 -28 CURVE",
"4 -109 LINE",
"12 -112 OFFCURVE",
"104 -121 OFFCURVE",
"150 -121 CURVE SMOOTH"
);
},
{
closed = 1;
nodes = (
"166 122 OFFCURVE",
"159 129 OFFCURVE",
"163 153 CURVE SMOOTH",
"194 378 LINE SMOOTH",
"198 401 OFFCURVE",
"206 408 OFFCURVE",
"216 408 CURVE SMOOTH",
"225 408 OFFCURVE",
"228 406 OFFCURVE",
"232 405 CURVE",
"197 152 LINE SMOOTH",
"193 129 OFFCURVE",
"186 122 OFFCURVE",
"176 122 CURVE SMOOTH"
);
}
);
width = 391;
},
{
layerId = "D84909E6-9227-4984-810E-91F1FC034344";
paths = (
{
closed = 1;
nodes = (
"168 -116 OFFCURVE",
"243 -91 OFFCURVE",
"258 19 CURVE SMOOTH",
"324 492 LINE",
"305 492 LINE",
"295 452 LINE",
"288 491 OFFCURVE",
"238 502 OFFCURVE",
"197 502 CURVE SMOOTH",
"128 502 OFFCURVE",
"83 486 OFFCURVE",
"68 381 CURVE SMOOTH",
"34 137 LINE SMOOTH",
"18 22 OFFCURVE",
"88 20 OFFCURVE",
"131 20 CURVE SMOOTH",
"182 20 OFFCURVE",
"224 40 OFFCURVE",
"244 89 CURVE",
"235 23 LINE SMOOTH",
"218 -102 OFFCURVE",
"133 -98 OFFCURVE",
"102 -98 CURVE SMOOTH",
"78 -98 OFFCURVE",
"49 -93 OFFCURVE",
"34 -91 CURVE",
"32 -109 LINE",
"39 -111 OFFCURVE",
"78 -116 OFFCURVE",
"103 -116 CURVE SMOOTH"
);
},
{
closed = 1;
nodes = (
"109 39 OFFCURVE",
"44 43 OFFCURVE",
"58 134 CURVE SMOOTH",
"92 380 LINE SMOOTH",
"104 460 OFFCURVE",
"131 485 OFFCURVE",
"197 485 CURVE SMOOTH",
"267 485 OFFCURVE",
"284 446 OFFCURVE",
"290 420 CURVE",
"256 181 LINE SMOOTH",
"247 117 OFFCURVE",
"222 39 OFFCURVE",
"135 39 CURVE SMOOTH"
);
}
);
width = 344;
}
);
leftKerningGroup = o;
leftMetricsKey = o;
rightKerningGroup = d;
rightMetricsKey = "=o+5";
unicode = 0067;
},
{
glyphname = h;
lastChange = "2021-05-19 22:43:31 +0000";
layers = (
{
background = {
paths = (
{
closed = 1;
nodes = (
"147 0 LINE",
"199 370 LINE",
"199 375 OFFCURVE",
"206 378 OFFCURVE",
"215 378 CURVE",
"228 378 OFFCURVE",
"232 368 OFFCURVE",
"230 350 CURVE",
"181 0 LINE",
"337 0 LINE",
"389 371 LINE",
"401 457 OFFCURVE",
"385 502 OFFCURVE",
"297 502 CURVE",
"254 502 OFFCURVE",
"210 477 OFFCURVE",
"196 430 CURVE",
"224 630 LINE",
"79 630 LINE",
"-9 0 LINE"
);
}
);
};
layerId = "8A3706BD-364F-4FE3-9C2E-7E87DF0DB4CC";
paths = (
{
closed = 1;
nodes = (
"147 0 LINE",
"199 370 LINE",
"199 375 OFFCURVE",
"206 378 OFFCURVE",
"215 378 CURVE SMOOTH",
"228 378 OFFCURVE",
"232 368 OFFCURVE",
"230 350 CURVE SMOOTH",
"181 0 LINE",
"337 0 LINE",
"389 371 LINE SMOOTH",
"401 457 OFFCURVE",
"385 502 OFFCURVE",
"297 502 CURVE SMOOTH",
"254 502 OFFCURVE",
"210 477 OFFCURVE",
"196 430 CURVE",
"224 630 LINE",
"79 630 LINE",
"-9 0 LINE"
);
}
);
width = 392;
},
{
layerId = "D84909E6-9227-4984-810E-91F1FC034344";
paths = (
{
closed = 1;
nodes = (
"54 0 LINE",
"113 420 LINE",
"118 441 OFFCURVE",
"149 484 OFFCURVE",
"220 484 CURVE SMOOTH",
"320 484 OFFCURVE",
"307 411 OFFCURVE",
"300 363 CURVE SMOOTH",
"249 0 LINE",
"273 0 LINE",
"325 372 LINE SMOOTH",
"334 435 OFFCURVE",
"336 503 OFFCURVE",
"224 503 CURVE SMOOTH",
"172 503 OFFCURVE",
"139 487 OFFCURVE",
"118 462 CURVE",
"142 630 LINE",
"118 630 LINE",
"30 0 LINE"
);
}
);
width = 362;
}
);
leftKerningGroup = b;
leftMetricsKey = n;
rightKerningGroup = n;
rightMetricsKey = n;
unicode = 0068;
},
{
glyphname = i;
lastChange = "2021-05-19 22:43:31 +0000";
layers = (
{
background = {
paths = (
{
closed = 1;
nodes = (
"79 581 OFFCURVE",
"112 548 OFFCURVE",
"154 548 CURVE",
"197 548 OFFCURVE",
"233 581 OFFCURVE",
"232 621 CURVE",
"232 662 OFFCURVE",
"198 695 OFFCURVE",
"155 695 CURVE",
"113 695 OFFCURVE",
"78 662 OFFCURVE",
"78 621 CURVE"
);
},
{
closed = 1;
nodes = (
"146 0 LINE",
"216 495 LINE",
"60 495 LINE",
"-10 0 LINE"
);
}
);
};
layerId = "8A3706BD-364F-4FE3-9C2E-7E87DF0DB4CC";
paths = (
{
closed = 1;
nodes = (
"146 0 LINE",
"216 495 LINE",
"60 495 LINE",
"-10 0 LINE"
);
},
{
closed = 1;
nodes = (
"197 548 OFFCURVE",
"233 581 OFFCURVE",
"232 621 CURVE SMOOTH",
"232 662 OFFCURVE",
"198 695 OFFCURVE",
"155 695 CURVE SMOOTH",
"113 695 OFFCURVE",
"78 662 OFFCURVE",
"78 621 CURVE SMOOTH",
"79 581 OFFCURVE",
"112 548 OFFCURVE",
"154 548 CURVE SMOOTH"
);
}
);
width = 206;
},
{
layerId = "D84909E6-9227-4984-810E-91F1FC034344";
paths = (
{
closed = 1;
nodes = (
"59 0 LINE",
"129 495 LINE",
"106 495 LINE",
"36 0 LINE"
);
},
{
closed = 1;
nodes = (
"150 617 OFFCURVE",
"160 626 OFFCURVE",
"160 637 CURVE SMOOTH",
"160 646 OFFCURVE",
"150 655 OFFCURVE",
"139 655 CURVE SMOOTH",
"128 655 OFFCURVE",
"119 646 OFFCURVE",
"119 637 CURVE SMOOTH",
"119 626 OFFCURVE",
"128 617 OFFCURVE",
"139 617 CURVE SMOOTH"
);
}
);
width = 168;
}
);
leftMetricsKey = n;
rightMetricsKey = d;
unicode = 0069;
},
{
glyphname = idotless;
lastChange = "2021-05-19 22:43:31 +0000";
layers = (
{
background = {
paths = (
{
closed = 1;
nodes = (
"151 0 LINE",
"221 495 LINE",
"65 495 LINE",
"-5 0 LINE"
);
}
);
};
layerId = "8A3706BD-364F-4FE3-9C2E-7E87DF0DB4CC";
paths = (
{
closed = 1;
nodes = (
"151 0 LINE",
"221 495 LINE",
"65 495 LINE",
"-5 0 LINE"
);
}
);
width = 216;
},
{
layerId = "D84909E6-9227-4984-810E-91F1FC034344";
paths = (
{
closed = 1;
nodes = (
"53 0 LINE",
"123 495 LINE",
"100 495 LINE",
"30 0 LINE"
);
}
);
width = 160;
}
);
unicode = 0131;
},
{
glyphname = j;
lastChange = "2021-05-19 22:43:31 +0000";
layers = (
{
background = {
paths = (
{
closed = 1;
nodes = (
"-105 -110 OFFCURVE",
"-78 -112 OFFCURVE",
"-67 -113 CURVE SMOOTH",
"35 -123 OFFCURVE",
"138 -90 OFFCURVE",
"160 69 CURVE",
"220 495 LINE",
"64 495 LINE",
"-3 20 LINE",
"-6 0 OFFCURVE",
"-23 -23 OFFCURVE",
"-53 -26 CURVE SMOOTH",
"-64 -27 OFFCURVE",
"-87 -28 OFFCURVE",
"-101 -28 CURVE",
"-112 -109 LINE"
);
},
{
closed = 1;
nodes = (
"77 581 OFFCURVE",
"106 548 OFFCURVE",
"148 548 CURVE",
"191 548 OFFCURVE",
"231 581 OFFCURVE",
"236 621 CURVE",
"242 662 OFFCURVE",
"212 695 OFFCURVE",
"169 695 CURVE",
"127 695 OFFCURVE",
"88 662 OFFCURVE",
"82 621 CURVE"
);
}
);
};
layerId = "8A3706BD-364F-4FE3-9C2E-7E87DF0DB4CC";
paths = (
{
closed = 1;
nodes = (
"35 -123 OFFCURVE",
"138 -90 OFFCURVE",
"160 69 CURVE SMOOTH",
"220 495 LINE",
"64 495 LINE",
"-3 20 LINE SMOOTH",
"-6 0 OFFCURVE",
"-23 -23 OFFCURVE",
"-53 -26 CURVE SMOOTH",
"-64 -27 OFFCURVE",
"-87 -28 OFFCURVE",
"-101 -28 CURVE",
"-112 -109 LINE",
"-105 -110 OFFCURVE",
"-78 -112 OFFCURVE",
"-67 -113 CURVE SMOOTH"
);
},
{
closed = 1;
nodes = (
"191 548 OFFCURVE",
"231 581 OFFCURVE",
"236 621 CURVE SMOOTH",
"242 662 OFFCURVE",
"212 695 OFFCURVE",
"169 695 CURVE SMOOTH",
"127 695 OFFCURVE",
"88 662 OFFCURVE",
"82 621 CURVE SMOOTH",
"77 581 OFFCURVE",
"106 548 OFFCURVE",
"148 548 CURVE SMOOTH"
);
}
);
width = 207;
},
{
layerId = "D84909E6-9227-4984-810E-91F1FC034344";
paths = (
{
closed = 1;
nodes = (
"-10 -110 OFFCURVE",
"43 -101 OFFCURVE",
"53 -23 CURVE SMOOTH",
"126 495 LINE",
"103 495 LINE",
"31 -22 LINE SMOOTH",
"22 -83 OFFCURVE",
"-14 -94 OFFCURVE",
"-70 -94 CURVE SMOOTH",
"-79 -94 OFFCURVE",
"-90 -93 OFFCURVE",
"-90 -92 CURVE",
"-93 -108 LINE",
"-91 -109 OFFCURVE",
"-80 -110 OFFCURVE",
"-74 -110 CURVE SMOOTH"
);
},
{
closed = 1;
nodes = (
"148 617 OFFCURVE",
"158 626 OFFCURVE",
"158 637 CURVE SMOOTH",
"159 646 OFFCURVE",
"149 655 OFFCURVE",
"138 655 CURVE SMOOTH",
"126 655 OFFCURVE",
"117 646 OFFCURVE",
"117 637 CURVE SMOOTH",
"117 626 OFFCURVE",
"125 617 OFFCURVE",
"137 617 CURVE SMOOTH"
);
}
);
width = 161;
}
);
leftKerningGroup = j;
rightKerningGroup = j;
unicode = 006A;
},
{
color = 4;
glyphname = k;
lastChange = "2021-05-19 22:43:31 +0000";
layers = (
{
background = {
paths = (
{
closed = 1;
nodes = (
"377 0 LINE",
"333 283 LINE",
"449 495 LINE",
"295 495 LINE",
"186 286 LINE",
"208 0 LINE"
);
},
{
closed = 1;
nodes = (
"147 0 LINE",
"235 630 LINE",
"79 630 LINE",
"-9 0 LINE"
);
}
);
};
layerId = "8A3706BD-364F-4FE3-9C2E-7E87DF0DB4CC";
paths = (
{
closed = 1;
nodes = (
"147 0 LINE",
"235 630 LINE",
"79 630 LINE",
"-9 0 LINE"
);
},
{
closed = 1;
nodes = (
"377 0 LINE",
"333 283 LINE",
"449 495 LINE",
"295 495 LINE",
"186 286 LINE",
"208 0 LINE"
);
}
);
width = 416;
},
{
layerId = "D84909E6-9227-4984-810E-91F1FC034344";
paths = (
{
closed = 1;
nodes = (
"52 0 LINE",
"142 636 LINE",
"119 636 LINE",
"29 0 LINE"
);
},
{
closed = 1;
nodes = (
"250 0 LINE",
"143 289 LINE",
"317 495 LINE",
"292 495 LINE",
"117 288 LINE",
"225 0 LINE"
);
}
);
width = 304;
}
);
leftKerningGroup = b;
leftMetricsKey = n;
rightKerningGroup = k;
unicode = 006B;
},
{
glyphname = l;
lastChange = "2021-05-19 22:43:31 +0000";
layers = (
{
background = {
paths = (
{
closed = 1;
nodes = (
"235 630 LINE",
"79 630 LINE",
"-9 0 LINE",
"147 0 LINE"
);
}
);
};
layerId = "8A3706BD-364F-4FE3-9C2E-7E87DF0DB4CC";
paths = (
{
closed = 1;
nodes = (
"147 0 LINE",
"235 630 LINE",
"79 630 LINE",
"-9 0 LINE"
);
}
);
width = 207;
},
{
layerId = "D84909E6-9227-4984-810E-91F1FC034344";
paths = (
{
closed = 1;
nodes = (
"52 0 LINE",
"142 636 LINE",
"119 636 LINE",
"29 0 LINE"
);
}
);
width = 150;
}
);
leftKerningGroup = b;
leftMetricsKey = n;
rightKerningGroup = d;
rightMetricsKey = d;
unicode = 006C;
},
{
glyphname = lslash;
lastChange = "2021-05-19 22:43:31 +0000";
layers = (
{
background = {
paths = (
{
closed = 1;
nodes = (
"183 0 LINE",
"215 227 LINE",
"276 253 LINE",
"285 316 LINE",
"223 290 LINE",
"271 630 LINE",
"115 630 LINE",
"58 221 LINE",
"-2 196 LINE",
"-11 132 LINE",
"49 157 LINE",
"27 0 LINE"
);
}
);
};
layerId = "8A3706BD-364F-4FE3-9C2E-7E87DF0DB4CC";
paths = (
{
closed = 1;
nodes = (
"183 0 LINE",
"215 227 LINE",
"276 253 LINE",
"285 316 LINE",
"223 290 LINE",
"271 630 LINE",
"115 630 LINE",
"58 221 LINE",
"-2 196 LINE",
"-11 132 LINE",
"49 157 LINE",
"27 0 LINE"
);
}
);
width = 300;
},
{
hints = (
{
horizontal = 1;
place = "{-43.676, 21}";
target = up;
type = BottomGhost;
},
{
place = "{77.647, -26.206}";
type = Stem;
}
);
layerId = "D84909E6-9227-4984-810E-91F1FC034344";
paths = (
{
closed = 1;
nodes = (
"100 0 LINE",
"128 194 LINE",
"209 229 LINE",
"212 250 LINE",
"131 216 LINE",
"190 636 LINE",
"168 636 LINE",
"108 205 LINE",
"28 172 LINE",
"26 150 LINE",
"104 183 LINE",
"78 0 LINE"
);
}
);
width = 271;
}
);
note = lslash;
rightKerningGroup = a;
unicode = 0142;
},
{
glyphname = m;
lastChange = "2021-05-19 22:43:31 +0000";
layers = (
{
background = {
paths = (
{
closed = 1;
nodes = (
"147 0 LINE",
"202 390 LINE",
"206 392 OFFCURVE",
"214 393 OFFCURVE",
"219 393 CURVE",
"230 393 OFFCURVE",
"235 383 OFFCURVE",
"232 365 CURVE",
"181 0 LINE",
"337 0 LINE",
"392 390 LINE",
"396 392 OFFCURVE",
"404 393 OFFCURVE",
"409 393 CURVE",
"420 393 OFFCURVE",
"425 383 OFFCURVE",
"422 365 CURVE",
"371 0 LINE",
"527 0 LINE",
"579 371 LINE",
"591 457 OFFCURVE",
"575 502 OFFCURVE",
"487 502 CURVE",
"447 502 OFFCURVE",
"409 475 OFFCURVE",
"390 439 CURVE",
"383 480 OFFCURVE",
"357 502 OFFCURVE",
"297 502 CURVE",
"254 502 OFFCURVE",
"214 471 OFFCURVE",
"196 430 CURVE",
"193 495 LINE",
"60 495 LINE",
"-9 0 LINE"
);
}
);
};
layerId = "8A3706BD-364F-4FE3-9C2E-7E87DF0DB4CC";
paths = (
{
closed = 1;
nodes = (
"147 0 LINE",
"202 390 LINE",
"206 392 OFFCURVE",
"214 393 OFFCURVE",
"219 393 CURVE SMOOTH",
"230 393 OFFCURVE",
"235 383 OFFCURVE",
"232 365 CURVE SMOOTH",
"181 0 LINE",
"337 0 LINE",
"392 390 LINE",
"396 392 OFFCURVE",
"404 393 OFFCURVE",
"409 393 CURVE SMOOTH",
"420 393 OFFCURVE",
"425 383 OFFCURVE",
"422 365 CURVE SMOOTH",
"371 0 LINE",
"527 0 LINE",
"579 371 LINE SMOOTH",
"591 457 OFFCURVE",
"575 502 OFFCURVE",
"487 502 CURVE SMOOTH",
"447 502 OFFCURVE",
"409 475 OFFCURVE",
"390 439 CURVE",
"383 480 OFFCURVE",
"357 502 OFFCURVE",
"297 502 CURVE SMOOTH",
"254 502 OFFCURVE",
"214 471 OFFCURVE",
"196 430 CURVE",
"193 495 LINE",
"60 495 LINE",
"-9 0 LINE"
);
}
);
width = 582;
},
{
layerId = "D84909E6-9227-4984-810E-91F1FC034344";
paths = (
{
closed = 1;
nodes = (
"54 0 LINE",
"111 407 LINE",
"129 447 OFFCURVE",
"163 482 OFFCURVE",
"218 482 CURVE SMOOTH",
"276 482 OFFCURVE",
"307 470 OFFCURVE",
"295 382 CURVE SMOOTH",
"241 0 LINE",
"265 0 LINE",
"319 388 LINE",
"330 441 OFFCURVE",
"378 482 OFFCURVE",
"431 482 CURVE SMOOTH",
"493 482 OFFCURVE",
"518 466 OFFCURVE",
"505 377 CURVE SMOOTH",
"453 0 LINE",
"477 0 LINE",
"529 371 LINE SMOOTH",
"542 464 OFFCURVE",
"528 502 OFFCURVE",
"436 502 CURVE SMOOTH",
"385 502 OFFCURVE",
"345 475 OFFCURVE",
"321 436 CURVE",
"318 483 OFFCURVE",
"290 502 OFFCURVE",
"222 502 CURVE SMOOTH",
"183 502 OFFCURVE",
"133 482 OFFCURVE",
"115 446 CURVE",
"118 495 LINE",
"99 495 LINE",
"30 0 LINE"
);
}
);
width = 566;
}
);
leftKerningGroup = n;
leftMetricsKey = n;
rightKerningGroup = n;
rightMetricsKey = n;
unicode = 006D;
},
{
glyphname = n;
lastChange = "2021-05-19 22:43:31 +0000";
layers = (
{
background = {
paths = (
{
closed = 1;
nodes = (
"147 0 LINE",
"202 390 LINE",
"206 392 OFFCURVE",
"214 393 OFFCURVE",
"219 393 CURVE SMOOTH",
"231 393 OFFCURVE",
"235 383 OFFCURVE",
"232 365 CURVE",
"181 0 LINE",
"337 0 LINE",
"389 371 LINE",
"401 457 OFFCURVE",
"385 502 OFFCURVE",
"297 502 CURVE",
"254 502 OFFCURVE",
"214 471 OFFCURVE",
"196 430 CURVE",
"193 495 LINE",
"60 495 LINE",
"-9 0 LINE"
);
}
);
};
layerId = "8A3706BD-364F-4FE3-9C2E-7E87DF0DB4CC";
paths = (
{
closed = 1;
nodes = (
"147 0 LINE",
"202 390 LINE",
"206 392 OFFCURVE",
"214 393 OFFCURVE",
"219 393 CURVE SMOOTH",
"231 393 OFFCURVE",
"235 383 OFFCURVE",
"232 365 CURVE SMOOTH",
"181 0 LINE",
"337 0 LINE",
"389 371 LINE SMOOTH",
"401 457 OFFCURVE",
"385 502 OFFCURVE",
"297 502 CURVE SMOOTH",
"254 502 OFFCURVE",
"214 471 OFFCURVE",
"196 430 CURVE",
"193 495 LINE",
"60 495 LINE",
"-9 0 LINE"
);
}
);
width = 392;
},
{
layerId = "D84909E6-9227-4984-810E-91F1FC034344";
paths = (
{
closed = 1;
nodes = (
"54 0 LINE",
"111 408 LINE",
"122 437 OFFCURVE",
"149 482 OFFCURVE",
"220 482 CURVE SMOOTH",
"320 482 OFFCURVE",
"308 420 OFFCURVE",
"300 363 CURVE SMOOTH",
"249 0 LINE",
"273 0 LINE",
"324 372 LINE SMOOTH",
"333 435 OFFCURVE",
"336 503 OFFCURVE",
"224 503 CURVE SMOOTH",
"183 503 OFFCURVE",
"137 490 OFFCURVE",
"115 446 CURVE",
"117 495 LINE",
"99 495 LINE",
"30 0 LINE"
);
}
);
width = 362;
}
);
leftKerningGroup = n;
rightKerningGroup = n;
unicode = 006E;
},
{
color = 4;
glyphname = eng;
lastChange = "2021-05-19 22:43:31 +0000";
layers = (
{
background = {
paths = (
{
closed = 1;
nodes = (
"280 -119 OFFCURVE",
"364 -77 OFFCURVE",
"364 66 CURVE SMOOTH",
"364 371 LINE SMOOTH",
"364 458 OFFCURVE",
"342 502 OFFCURVE",
"254 502 CURVE SMOOTH",
"211 502 OFFCURVE",
"175 471 OFFCURVE",
"163 430 CURVE",
"151 495 LINE",
"18 495 LINE",
"18 330 OFFCURVE",
"18 165 OFFCURVE",
"18 0 CURVE",
"174 0 LINE",
"174 130 OFFCURVE",
"174 260 OFFCURVE",
"174 390 CURVE",
"178 393 OFFCURVE",
"186 393 OFFCURVE",
"191 393 CURVE SMOOTH",
"202 393 OFFCURVE",
"208 384 OFFCURVE",
"208 365 CURVE SMOOTH",
"208 6 LINE SMOOTH",
"208 -15 OFFCURVE",
"195 -32 OFFCURVE",
"164 -32 CURVE SMOOTH",
"163 -32 OFFCURVE",
"130 -32 OFFCURVE",
"128 -32 CURVE",
"128 -58 OFFCURVE",
"128 -83 OFFCURVE",
"128 -109 CURVE",
"148 -113 OFFCURVE",
"167 -116 OFFCURVE",
"187 -116 CURVE SMOOTH"
);
}
);
};
layerId = "8A3706BD-364F-4FE3-9C2E-7E87DF0DB4CC";
paths = (
{
closed = 1;
nodes = (
"236 -119 OFFCURVE",
"326 -77 OFFCURVE",
"346 66 CURVE SMOOTH",
"389 371 LINE SMOOTH",
"401 458 OFFCURVE",
"385 502 OFFCURVE",
"297 502 CURVE SMOOTH",
"254 502 OFFCURVE",
"214 471 OFFCURVE",
"196 430 CURVE",
"193 495 LINE",
"60 495 LINE",
"-9 0 LINE",
"147 0 LINE",
"202 390 LINE",
"206 393 OFFCURVE",
"214 393 OFFCURVE",
"219 393 CURVE SMOOTH",
"230 393 OFFCURVE",
"235 384 OFFCURVE",
"232 365 CURVE SMOOTH",
"182 6 LINE SMOOTH",
"179 -15 OFFCURVE",
"163 -32 OFFCURVE",
"132 -32 CURVE SMOOTH",
"131 -32 OFFCURVE",
"98 -32 OFFCURVE",
"96 -32 CURVE",
"86 -109 LINE",
"105 -113 OFFCURVE",
"124 -116 OFFCURVE",
"144 -116 CURVE SMOOTH"
);
}
);
width = 392;
},
{
layerId = "D84909E6-9227-4984-810E-91F1FC034344";
paths = (
{
closed = 1;
nodes = (
"208 -110 OFFCURVE",
"258 -100 OFFCURVE",
"269 -23 CURVE SMOOTH",
"325 372 LINE SMOOTH",
"333 434 OFFCURVE",
"336 503 OFFCURVE",
"224 503 CURVE SMOOTH",
"182 503 OFFCURVE",
"137 490 OFFCURVE",
"115 446 CURVE",
"117 495 LINE",
"99 495 LINE",
"29 0 LINE",
"53 0 LINE",
"111 408 LINE",
"123 437 OFFCURVE",
"148 484 OFFCURVE",
"220 484 CURVE SMOOTH",
"320 484 OFFCURVE",
"308 421 OFFCURVE",
"299 363 CURVE SMOOTH",
"245 -22 LINE SMOOTH",
"236 -84 OFFCURVE",
"202 -94 OFFCURVE",
"147 -94 CURVE SMOOTH",
"138 -94 OFFCURVE",
"126 -93 OFFCURVE",
"125 -92 CURVE",
"123 -108 LINE",
"126 -109 OFFCURVE",
"136 -110 OFFCURVE",
"143 -110 CURVE SMOOTH"
);
}
);
width = 362;
}
);
leftKerningGroup = n;
leftMetricsKey = n;
rightKerningGroup = n;
rightMetricsKey = n;
unicode = 014B;
},
{
glyphname = o;
lastChange = "2021-05-19 22:43:31 +0000";
layers = (
{
background = {
paths = (
{
closed = 1;
nodes = (
"263 -12 OFFCURVE",
"332 7 OFFCURVE",
"355 167 CURVE",
"384 373 LINE",
"398 472 OFFCURVE",
"340 503 OFFCURVE",
"229 503 CURVE",
"118 503 OFFCURVE",
"52 472 OFFCURVE",
"38 373 CURVE",
"9 166 LINE",
"-14 7 OFFCURVE",
"51 -12 OFFCURVE",
"157 -12 CURVE"
);
},
{
closed = 1;
nodes = (
"158 68 OFFCURVE",
"152 75 OFFCURVE",
"155 98 CURVE",
"197 393 LINE",
"200 416 OFFCURVE",
"208 423 OFFCURVE",
"218 423 CURVE",
"228 423 OFFCURVE",
"234 416 OFFCURVE",
"231 393 CURVE",
"189 98 LINE",
"186 75 OFFCURVE",
"178 68 OFFCURVE",
"168 68 CURVE"
);
}
);
};
layerId = "8A3706BD-364F-4FE3-9C2E-7E87DF0DB4CC";
paths = (
{
closed = 1;
nodes = (
"263 -8 OFFCURVE",
"333 11 OFFCURVE",
"355 171 CURVE SMOOTH",
"382 363 LINE SMOOTH",
"397 470 OFFCURVE",
"340 503 OFFCURVE",
"229 503 CURVE SMOOTH",
"118 503 OFFCURVE",
"51 470 OFFCURVE",
"36 363 CURVE SMOOTH",
"9 170 LINE SMOOTH",
"-13 11 OFFCURVE",
"51 -8 OFFCURVE",
"157 -8 CURVE SMOOTH"
);
},
{
closed = 1;
nodes = (
"160 82 OFFCURVE",
"154 89 OFFCURVE",
"157 112 CURVE SMOOTH",
"195 383 LINE SMOOTH",
"198 406 OFFCURVE",
"206 413 OFFCURVE",
"216 413 CURVE SMOOTH",
"226 413 OFFCURVE",
"232 406 OFFCURVE",
"229 383 CURVE SMOOTH",
"191 112 LINE SMOOTH",
"188 89 OFFCURVE",
"180 82 OFFCURVE",
"170 82 CURVE SMOOTH"
);
}
);
width = 386;
},
{
layerId = "D84909E6-9227-4984-810E-91F1FC034344";
paths = (
{
closed = 1;
nodes = (
"247 -7 OFFCURVE",
"265 61 OFFCURVE",
"274 125 CURVE SMOOTH",
"308 372 LINE SMOOTH",
"317 435 OFFCURVE",
"320 503 OFFCURVE",
"207 503 CURVE SMOOTH",
"93 503 OFFCURVE",
"75 435 OFFCURVE",
"66 372 CURVE SMOOTH",
"32 125 LINE SMOOTH",
"23 61 OFFCURVE",
"21 -7 OFFCURVE",
"135 -7 CURVE SMOOTH"
);
},
{
closed = 1;
nodes = (
"45 13 OFFCURVE",
"48 73 OFFCURVE",
"57 130 CURVE SMOOTH",
"90 367 LINE SMOOTH",
"98 423 OFFCURVE",
"112 483 OFFCURVE",
"204 483 CURVE SMOOTH",
"296 483 OFFCURVE",
"292 423 OFFCURVE",
"284 367 CURVE SMOOTH",
"251 130 LINE SMOOTH",
"242 73 OFFCURVE",
"229 13 OFFCURVE",
"137 13 CURVE SMOOTH"
);
}
);
width = 340;
}
);
leftKerningGroup = o;
rightKerningGroup = o;
unicode = 006F;
},
{
glyphname = oslash;
lastChange = "2021-05-19 22:43:31 +0000";
layers = (
{
background = {
paths = (
{
closed = 1;
nodes = (
"269 -12 OFFCURVE",
"339 7 OFFCURVE",
"362 167 CURVE",
"391 373 LINE",
"405 472 OFFCURVE",
"347 503 OFFCURVE",
"236 503 CURVE",
"125 503 OFFCURVE",
"59 472 OFFCURVE",
"45 373 CURVE",
"16 166 LINE",
"-7 7 OFFCURVE",
"57 -12 OFFCURVE",
"163 -12 CURVE"
);
},
{
closed = 1;
nodes = (
"165 68 OFFCURVE",
"159 75 OFFCURVE",
"162 98 CURVE",
"203 393 LINE",
"207 416 OFFCURVE",
"215 423 OFFCURVE",
"225 423 CURVE",
"235 423 OFFCURVE",
"241 416 OFFCURVE",
"237 393 CURVE",
"196 98 LINE",
"193 75 OFFCURVE",
"185 68 OFFCURVE",
"175 68 CURVE"
);
},
{
closed = 1;
nodes = (
"48 -44 LINE",
"388 511 LINE",
"330 511 LINE",
"-9 -44 LINE"
);
}
);
};
components = (
{
name = o;
}
);
layerId = "8A3706BD-364F-4FE3-9C2E-7E87DF0DB4CC";
paths = (
{
closed = 1;
nodes = (
"43 -44 LINE",
"399 523 LINE",
"345 523 LINE",
"-10 -44 LINE"
);
}
);
width = 396;
},
{
components = (
{
alignment = -1;
name = o;
}
);
hints = (
{
horizontal = 1;
place = "{-75.706, 626.029}";
type = Stem;
},
{
place = "{17.471, 318.353}";
type = Stem;
}
);
layerId = "D84909E6-9227-4984-810E-91F1FC034344";
paths = (
{
closed = 1;
nodes = (
"-2 -26 LINE",
"357 516 LINE",
"336 516 LINE",
"-22 -26 LINE"
);
}
);
width = 341;
}
);
unicode = 00F8;
},
{
glyphname = oe;
lastChange = "2021-05-19 22:43:31 +0000";
layers = (
{
background = {
paths = (
{
closed = 1;
nodes = (
"268 -12 OFFCURVE",
"337 7 OFFCURVE",
"360 167 CURVE",
"389 373 LINE",
"403 472 OFFCURVE",
"345 503 OFFCURVE",
"234 503 CURVE",
"123 503 OFFCURVE",
"57 472 OFFCURVE",
"43 373 CURVE",
"14 166 LINE",
"-9 7 OFFCURVE",
"56 -12 OFFCURVE",
"162 -12 CURVE"
);
},
{
closed = 1;
nodes = (
"163 68 OFFCURVE",
"157 75 OFFCURVE",
"160 98 CURVE",
"202 393 LINE",
"205 416 OFFCURVE",
"213 423 OFFCURVE",
"223 423 CURVE",
"233 423 OFFCURVE",
"239 416 OFFCURVE",
"236 393 CURVE",
"194 98 LINE",
"191 75 OFFCURVE",
"183 68 OFFCURVE",
"173 68 CURVE"
);
},
{
closed = 1;
nodes = (
"429 98 LINE",
"426 75 OFFCURVE",
"418 68 OFFCURVE",
"408 68 CURVE",
"398 68 OFFCURVE",
"392 75 OFFCURVE",
"395 98 CURVE",
"414 233 LINE",
"604 233 LINE",
"624 373 LINE",
"638 472 OFFCURVE",
"580 503 OFFCURVE",
"469 503 CURVE",
"358 503 OFFCURVE",
"292 472 OFFCURVE",
"278 373 CURVE",
"249 166 LINE",
"226 7 OFFCURVE",
"291 -12 OFFCURVE",
"397 -12 CURVE",
"503 -12 OFFCURVE",
"572 7 OFFCURVE",
"595 167 CURVE",
"598 188 LINE",
"442 188 LINE"
);
},
{
closed = 1;
nodes = (
"440 416 OFFCURVE",
"448 423 OFFCURVE",
"458 423 CURVE",
"468 423 OFFCURVE",
"474 416 OFFCURVE",
"471 393 CURVE",
"458 300 LINE",
"424 300 LINE",
"437 393 LINE"
);
}
);
};
layerId = "8A3706BD-364F-4FE3-9C2E-7E87DF0DB4CC";
paths = (
{
closed = 1;
nodes = (
"503 -12 OFFCURVE",
"572 7 OFFCURVE",
"595 167 CURVE SMOOTH",
"598 188 LINE",
"442 188 LINE",
"429 98 LINE SMOOTH",
"426 75 OFFCURVE",
"418 68 OFFCURVE",
"408 68 CURVE SMOOTH",
"398 68 OFFCURVE",
"392 75 OFFCURVE",
"395 98 CURVE SMOOTH",
"414 233 LINE",
"604 233 LINE",
"624 373 LINE SMOOTH",
"638 472 OFFCURVE",
"580 503 OFFCURVE",
"469 503 CURVE SMOOTH",
"358 503 OFFCURVE",
"292 472 OFFCURVE",
"278 373 CURVE SMOOTH",
"249 166 LINE SMOOTH",
"226 7 OFFCURVE",
"291 -12 OFFCURVE",
"397 -12 CURVE SMOOTH"
);
},
{
closed = 1;
nodes = (
"268 -12 OFFCURVE",
"337 7 OFFCURVE",
"360 167 CURVE SMOOTH",
"389 373 LINE SMOOTH",
"403 472 OFFCURVE",
"345 503 OFFCURVE",
"234 503 CURVE SMOOTH",
"123 503 OFFCURVE",
"57 472 OFFCURVE",
"43 373 CURVE SMOOTH",
"14 166 LINE SMOOTH",
"-9 7 OFFCURVE",
"56 -12 OFFCURVE",
"162 -12 CURVE SMOOTH"
);
},
{
closed = 1;
nodes = (
"163 68 OFFCURVE",
"157 75 OFFCURVE",
"160 98 CURVE SMOOTH",
"202 393 LINE SMOOTH",
"205 416 OFFCURVE",
"213 423 OFFCURVE",
"223 423 CURVE SMOOTH",
"233 423 OFFCURVE",
"239 416 OFFCURVE",
"236 393 CURVE SMOOTH",
"194 98 LINE SMOOTH",
"191 75 OFFCURVE",
"183 68 OFFCURVE",
"173 68 CURVE SMOOTH"
);
},
{
closed = 1;
nodes = (
"437 393 LINE SMOOTH",
"440 416 OFFCURVE",
"448 423 OFFCURVE",
"458 423 CURVE SMOOTH",
"468 423 OFFCURVE",
"474 416 OFFCURVE",
"471 393 CURVE SMOOTH",
"458 300 LINE",
"424 300 LINE"
);
}
);
width = 631;
},
{
layerId = "D84909E6-9227-4984-810E-91F1FC034344";
paths = (
{
closed = 1;
nodes = (
"452 -9 OFFCURVE",
"485 19 OFFCURVE",
"499 121 CURVE SMOOTH",
"506 172 LINE",
"482 172 LINE",
"475 119 LINE SMOOTH",
"463 39 OFFCURVE",
"440 11 OFFCURVE",
"362 11 CURVE SMOOTH",
"284 11 OFFCURVE",
"271 39 OFFCURVE",
"282 119 CURVE SMOOTH",
"302 262 LINE",
"519 262 LINE",
"536 385 LINE SMOOTH",
"549 477 OFFCURVE",
"523 505 OFFCURVE",
"433 505 CURVE SMOOTH",
"342 505 OFFCURVE",
"309 477 OFFCURVE",
"295 385 CURVE SMOOTH",
"259 121 LINE SMOOTH",
"244 19 OFFCURVE",
"271 -9 OFFCURVE",
"361 -9 CURVE SMOOTH"
);
},
{
closed = 1;
nodes = (
"248 -7 OFFCURVE",
"265 60 OFFCURVE",
"275 125 CURVE SMOOTH",
"308 372 LINE SMOOTH",
"318 435 OFFCURVE",
"320 503 OFFCURVE",
"207 503 CURVE SMOOTH",
"93 503 OFFCURVE",
"75 435 OFFCURVE",
"66 372 CURVE SMOOTH",
"32 125 LINE SMOOTH",
"23 60 OFFCURVE",
"21 -7 OFFCURVE",
"135 -7 CURVE SMOOTH"
);
},
{
closed = 1;
nodes = (
"45 11 OFFCURVE",
"48 72 OFFCURVE",
"57 130 CURVE SMOOTH",
"90 368 LINE SMOOTH",
"98 424 OFFCURVE",
"112 485 OFFCURVE",
"205 485 CURVE SMOOTH",
"296 485 OFFCURVE",
"292 424 OFFCURVE",
"285 368 CURVE SMOOTH",
"251 130 LINE SMOOTH",
"242 72 OFFCURVE",
"229 11 OFFCURVE",
"137 11 CURVE SMOOTH"
);
},
{
closed = 1;
nodes = (
"320 384 LINE SMOOTH",
"329 456 OFFCURVE",
"353 487 OFFCURVE",
"431 487 CURVE SMOOTH",
"509 487 OFFCURVE",
"522 456 OFFCURVE",
"512 384 CURVE SMOOTH",
"497 281 LINE",
"305 281 LINE"
);
}
);
width = 566;
}
);
unicode = 0153;
},
{
glyphname = p;
lastChange = "2021-05-19 22:43:31 +0000";
layers = (
{
background = {
paths = (
{
closed = 1;
nodes = (
"131 -116 LINE",
"152 36 LINE",
"162 14 OFFCURVE",
"181 -6 OFFCURVE",
"226 -6 CURVE",
"285 -6 OFFCURVE",
"340 21 OFFCURVE",
"358 154 CURVE",
"392 391 LINE",
"406 489 OFFCURVE",
"345 503 OFFCURVE",
"296 503 CURVE",
"246 503 OFFCURVE",
"226 479 OFFCURVE",
"211 460 CURVE",
"216 495 LINE",
"60 495 LINE",
"-25 -116 LINE"
);
},
{
closed = 1;
nodes = (
"165 80 OFFCURVE",
"159 87 OFFCURVE",
"162 110 CURVE",
"204 405 LINE",
"204 405 OFFCURVE",
"212 408 OFFCURVE",
"221 408 CURVE",
"231 408 OFFCURVE",
"237 401 OFFCURVE",
"234 378 CURVE",
"196 110 LINE",
"193 87 OFFCURVE",
"185 80 OFFCURVE",
"175 80 CURVE"
);
}
);
};
layerId = "8A3706BD-364F-4FE3-9C2E-7E87DF0DB4CC";
paths = (
{
closed = 1;
nodes = (
"131 -116 LINE",
"152 36 LINE",
"162 14 OFFCURVE",
"181 -6 OFFCURVE",
"226 -6 CURVE SMOOTH",
"285 -6 OFFCURVE",
"340 21 OFFCURVE",
"358 154 CURVE SMOOTH",
"392 391 LINE SMOOTH",
"406 489 OFFCURVE",
"345 503 OFFCURVE",
"296 503 CURVE SMOOTH",
"246 503 OFFCURVE",
"226 479 OFFCURVE",
"211 460 CURVE",
"216 495 LINE",
"60 495 LINE",
"-25 -116 LINE"
);
},
{
closed = 1;
nodes = (
"165 80 OFFCURVE",
"159 87 OFFCURVE",
"162 110 CURVE SMOOTH",
"204 405 LINE",
"204 405 OFFCURVE",
"212 408 OFFCURVE",
"221 408 CURVE SMOOTH",
"231 408 OFFCURVE",
"237 401 OFFCURVE",
"234 378 CURVE SMOOTH",
"196 110 LINE SMOOTH",
"193 87 OFFCURVE",
"185 80 OFFCURVE",
"175 80 CURVE SMOOTH"
);
}
);
width = 392;
},
{
layerId = "D84909E6-9227-4984-810E-91F1FC034344";
paths = (
{
closed = 1;
nodes = (
"37 -116 LINE",
"58 34 LINE",
"69 10 OFFCURVE",
"98 -7 OFFCURVE",
"152 -7 CURVE SMOOTH",
"264 -7 OFFCURVE",
"281 61 OFFCURVE",
"289 125 CURVE SMOOTH",
"324 372 LINE SMOOTH",
"333 435 OFFCURVE",
"334 502 OFFCURVE",
"223 502 CURVE SMOOTH",
"158 502 OFFCURVE",
"131 479 OFFCURVE",
"114 448 CURVE",
"117 495 LINE",
"99 495 LINE",
"14 -116 LINE"
);
},
{
closed = 1;
nodes = (
"61 13 OFFCURVE",
"63 64 OFFCURVE",
"71 123 CURVE SMOOTH",
"101 335 LINE",
"110 399 OFFCURVE",
"118 483 OFFCURVE",
"219 483 CURVE SMOOTH",
"319 483 OFFCURVE",
"307 420 OFFCURVE",
"299 363 CURVE SMOOTH",
"267 132 LINE SMOOTH",
"258 75 OFFCURVE",
"253 13 OFFCURVE",
"153 13 CURVE SMOOTH"
);
}
);
width = 356;
}
);
leftKerningGroup = n;
leftMetricsKey = n;
rightKerningGroup = o;
rightMetricsKey = o;
unicode = 0070;
},
{
color = 4;
glyphname = thorn;
lastChange = "2021-05-19 22:43:31 +0000";
layers = (
{
background = {
paths = (
{
closed = 1;
nodes = (
"131 -116 LINE",
"152 36 LINE",
"156 25 OFFCURVE",
"164 14 OFFCURVE",
"175 7 CURVE SMOOTH",
"187 -1 OFFCURVE",
"203 -6 OFFCURVE",
"226 -6 CURVE SMOOTH",
"285 -6 OFFCURVE",
"340 22 OFFCURVE",
"359 154 CURVE SMOOTH",
"392 391 LINE SMOOTH",
"406 490 OFFCURVE",
"346 503 OFFCURVE",
"297 503 CURVE SMOOTH",
"247 503 OFFCURVE",
"225 479 OFFCURVE",
"212 460 CURVE",
"235 630 LINE",
"79 630 LINE",
"-25 -116 LINE"
);
},
{
closed = 1;
nodes = (
"164 80 OFFCURVE",
"159 87 OFFCURVE",
"162 110 CURVE SMOOTH",
"188 294 LINE SMOOTH",
"191 312 OFFCURVE",
"200 379 OFFCURVE",
"204 405 CURVE",
"212 408 OFFCURVE",
"218 408 OFFCURVE",
"222 408 CURVE SMOOTH",
"232 408 OFFCURVE",
"237 401 OFFCURVE",
"234 378 CURVE SMOOTH",
"196 110 LINE SMOOTH",
"193 87 OFFCURVE",
"186 80 OFFCURVE",
"175 80 CURVE SMOOTH"
);
}
);
};
layerId = "8A3706BD-364F-4FE3-9C2E-7E87DF0DB4CC";
paths = (
{
closed = 1;
nodes = (
"131 -116 LINE",
"152 36 LINE",
"164 6 OFFCURVE",
"190 -6 OFFCURVE",
"226 -6 CURVE SMOOTH",
"285 -6 OFFCURVE",
"340 22 OFFCURVE",
"359 154 CURVE SMOOTH",
"392 391 LINE SMOOTH",
"406 490 OFFCURVE",
"346 503 OFFCURVE",
"297 503 CURVE SMOOTH",
"254 503 OFFCURVE",
"233 488 OFFCURVE",
"212 460 CURVE",
"235 630 LINE",
"79 630 LINE",
"-25 -116 LINE"
);
},
{
closed = 1;
nodes = (
"164 80 OFFCURVE",
"159 87 OFFCURVE",
"162 110 CURVE SMOOTH",
"200 379 LINE SMOOTH",
"203 397 OFFCURVE",
"210 406 OFFCURVE",
"220 406 CURVE SMOOTH",
"230 406 OFFCURVE",
"237 401 OFFCURVE",
"234 378 CURVE SMOOTH",
"196 110 LINE SMOOTH",
"193 87 OFFCURVE",
"186 80 OFFCURVE",
"175 80 CURVE SMOOTH"
);
}
);
width = 392;
},
{
hints = (
{
horizontal = 1;
place = "{-147.529, 21}";
target = up;
type = BottomGhost;
},
{
horizontal = 1;
place = "{-41.735, -19.412}";
type = Stem;
},
{
horizontal = 1;
place = "{440.647, -20.382}";
type = Stem;
},
{
place = "{13.588, -16.5}";
type = Stem;
},
{
place = "{275.647, -16.5}";
type = Stem;
}
);
layerId = "D84909E6-9227-4984-810E-91F1FC034344";
paths = (
{
closed = 1;
nodes = (
"37 -116 LINE",
"57 47 LINE",
"66 16 OFFCURVE",
"87 -7 OFFCURVE",
"152 -7 CURVE SMOOTH",
"264 -7 OFFCURVE",
"281 61 OFFCURVE",
"289 125 CURVE SMOOTH",
"324 375 LINE SMOOTH",
"333 437 OFFCURVE",
"335 503 OFFCURVE",
"224 503 CURVE SMOOTH",
"170 503 OFFCURVE",
"139 483 OFFCURVE",
"116 450 CURVE",
"141 630 LINE",
"118 630 LINE",
"14 -116 LINE"
);
},
{
closed = 1;
nodes = (
"51 10 OFFCURVE",
"67 95 OFFCURVE",
"77 160 CURVE SMOOTH",
"106 369 LINE SMOOTH",
"114 428 OFFCURVE",
"143 485 OFFCURVE",
"219 485 CURVE SMOOTH",
"319 485 OFFCURVE",
"307 422 OFFCURVE",
"299 365 CURVE SMOOTH",
"266 131 LINE SMOOTH",
"258 73 OFFCURVE",
"253 10 OFFCURVE",
"153 10 CURVE SMOOTH"
);
}
);
width = 355;
}
);
leftMetricsKey = n;
note = thorn;
rightKerningGroup = a;
rightMetricsKey = o;
unicode = 00FE;
},
{
glyphname = q;
lastChange = "2021-05-19 22:43:31 +0000";
layers = (
{
background = {
paths = (
{
closed = 1;
nodes = (
"315 -116 LINE",
"401 495 LINE",
"245 495 LINE",
"240 460 LINE",
"230 479 OFFCURVE",
"213 500 OFFCURVE",
"160 500 CURVE",
"126 500 OFFCURVE",
"54 489 OFFCURVE",
"40 391 CURVE",
"7 154 LINE",
"-15 3 OFFCURVE",
"45 -7 OFFCURVE",
"91 -7 CURVE",
"141 -7 OFFCURVE",
"166 16 OFFCURVE",
"181 41 CURVE",
"159 -116 LINE"
);
},
{
closed = 1;
nodes = (
"159 80 OFFCURVE",
"153 87 OFFCURVE",
"156 110 CURVE",
"194 378 LINE",
"197 401 OFFCURVE",
"205 408 OFFCURVE",
"215 408 CURVE",
"224 408 OFFCURVE",
"232 405 OFFCURVE",
"232 405 CURVE",
"190 110 LINE",
"187 87 OFFCURVE",
"179 80 OFFCURVE",
"169 80 CURVE"
);
}
);
};
layerId = "8A3706BD-364F-4FE3-9C2E-7E87DF0DB4CC";
paths = (
{
closed = 1;
nodes = (
"315 -116 LINE",
"401 495 LINE",
"245 495 LINE",
"240 460 LINE",
"230 479 OFFCURVE",
"213 500 OFFCURVE",
"160 500 CURVE SMOOTH",
"126 500 OFFCURVE",
"54 489 OFFCURVE",
"40 391 CURVE SMOOTH",
"7 154 LINE SMOOTH",
"-15 3 OFFCURVE",
"45 -7 OFFCURVE",
"91 -7 CURVE SMOOTH",
"141 -7 OFFCURVE",
"166 16 OFFCURVE",
"181 41 CURVE",
"159 -116 LINE"
);
},
{
closed = 1;
nodes = (
"159 80 OFFCURVE",
"153 87 OFFCURVE",
"156 110 CURVE SMOOTH",
"194 378 LINE SMOOTH",
"197 401 OFFCURVE",
"205 408 OFFCURVE",
"215 408 CURVE SMOOTH",
"224 408 OFFCURVE",
"232 405 OFFCURVE",
"232 405 CURVE",
"190 110 LINE SMOOTH",
"187 87 OFFCURVE",
"179 80 OFFCURVE",
"169 80 CURVE SMOOTH"
);
}
);
width = 391;
},
{
layerId = "D84909E6-9227-4984-810E-91F1FC034344";
paths = (
{
closed = 1;
nodes = (
"240 -116 LINE",
"325 495 LINE",
"307 495 LINE",
"295 452 LINE",
"289 477 OFFCURVE",
"268 502 OFFCURVE",
"203 502 CURVE SMOOTH",
"92 502 OFFCURVE",
"75 435 OFFCURVE",
"66 372 CURVE SMOOTH",
"31 122 LINE SMOOTH",
"22 57 OFFCURVE",
"20 -10 OFFCURVE",
"131 -10 CURVE SMOOTH",
"186 -10 OFFCURVE",
"225 23 OFFCURVE",
"241 59 CURVE",
"217 -116 LINE"
);
},
{
closed = 1;
nodes = (
"36 8 OFFCURVE",
"48 71 OFFCURVE",
"56 129 CURVE SMOOTH",
"89 363 LINE SMOOTH",
"97 421 OFFCURVE",
"102 485 OFFCURVE",
"202 485 CURVE SMOOTH",
"304 485 OFFCURVE",
"289 400 OFFCURVE",
"281 335 CURVE",
"252 136 LINE SMOOTH",
"248 106 OFFCURVE",
"228 8 OFFCURVE",
"136 8 CURVE SMOOTH"
);
}
);
width = 354;
}
);
leftKerningGroup = o;
leftMetricsKey = o;
rightKerningGroup = n;
rightMetricsKey = d;
unicode = 0071;
},
{
glyphname = r;
lastChange = "2021-05-19 22:43:31 +0000";
layers = (
{
background = {
paths = (
{
closed = 1;
nodes = (
"361 499 LINE",
"357 500 OFFCURVE",
"347 500 OFFCURVE",
"342 500 CURVE SMOOTH",
"253 500 OFFCURVE",
"209 396 OFFCURVE",
"190 326 CURVE",
"214 495 LINE",
"60 495 LINE",
"-9 0 LINE",
"145 0 LINE",
"160 101 LINE SMOOTH",
"178 221 OFFCURVE",
"246 347 OFFCURVE",
"326 355 CURVE SMOOTH",
"333 356 OFFCURVE",
"339 355 OFFCURVE",
"342 354 CURVE"
);
}
);
};
layerId = "8A3706BD-364F-4FE3-9C2E-7E87DF0DB4CC";
paths = (
{
closed = 1;
nodes = (
"145 0 LINE",
"160 101 LINE SMOOTH",
"178 221 OFFCURVE",
"246 347 OFFCURVE",
"326 355 CURVE SMOOTH",
"333 356 OFFCURVE",
"339 355 OFFCURVE",
"342 354 CURVE",
"361 499 LINE",
"357 500 OFFCURVE",
"347 500 OFFCURVE",
"342 500 CURVE SMOOTH",
"253 500 OFFCURVE",
"209 396 OFFCURVE",
"190 326 CURVE",
"214 495 LINE",
"60 495 LINE",
"-9 0 LINE"
);
}
);
width = 332;
},
{
layerId = "D84909E6-9227-4984-810E-91F1FC034344";
paths = (
{
closed = 1;
nodes = (
"54 0 LINE",
"76 151 LINE SMOOTH",
"92 265 OFFCURVE",
"162 481 OFFCURVE",
"250 481 CURVE SMOOTH",
"257 481 OFFCURVE",
"263 481 OFFCURVE",
"266 480 CURVE",
"270 499 LINE",
"266 500 OFFCURVE",
"256 500 OFFCURVE",
"251 500 CURVE SMOOTH",
"162 500 OFFCURVE",
"107 345 OFFCURVE",
"94 296 CURVE",
"123 495 LINE",
"99 495 LINE",
"30 0 LINE"
);
}
);
width = 232;
}
);
leftKerningGroup = n;
leftMetricsKey = n;
rightKerningGroup = r;
unicode = 0072;
},
{
glyphname = s;
lastChange = "2021-05-19 22:43:31 +0000";
layers = (
{
background = {
paths = (
{
closed = 1;
nodes = (
"-3 144 LINE",
"-18 39 OFFCURVE",
"11 -14 OFFCURVE",
"151 -14 CURVE",
"291 -14 OFFCURVE",
"339 35 OFFCURVE",
"353 134 CURVE",
"358 170 LINE",
"368 240 OFFCURVE",
"323 267 OFFCURVE",
"278 284 CURVE",
"243 297 OFFCURVE",
"192 303 OFFCURVE",
"199 350 CURVE",
"205 397 LINE",
"207 412 OFFCURVE",
"212 423 OFFCURVE",
"226 423 CURVE",
"240 423 OFFCURVE",
"241 410 OFFCURVE",
"237 384 CURVE",
"229 321 LINE",
"380 321 LINE",
"384 353 LINE",
"398 454 OFFCURVE",
"371 505 OFFCURVE",
"236 505 CURVE",
"101 505 OFFCURVE",
"54 458 OFFCURVE",
"41 363 CURVE",
"37 335 LINE",
"26 260 OFFCURVE",
"72 232 OFFCURVE",
"115 215 CURVE",
"160 195 OFFCURVE",
"194 191 OFFCURVE",
"187 141 CURVE",
"181 95 LINE",
"179 80 OFFCURVE",
"173 68 OFFCURVE",
"160 68 CURVE",
"145 68 OFFCURVE",
"145 82 OFFCURVE",
"149 109 CURVE",
"159 178 LINE",
"2 178 LINE"
);
}
);
};
layerId = "8A3706BD-364F-4FE3-9C2E-7E87DF0DB4CC";
paths = (
{
closed = 1;
nodes = (
"291 -14 OFFCURVE",
"339 35 OFFCURVE",
"353 134 CURVE SMOOTH",
"358 170 LINE SMOOTH",
"368 240 OFFCURVE",
"323 267 OFFCURVE",
"278 284 CURVE SMOOTH",
"243 297 OFFCURVE",
"192 303 OFFCURVE",
"199 350 CURVE SMOOTH",
"205 397 LINE SMOOTH",
"207 412 OFFCURVE",
"212 423 OFFCURVE",
"226 423 CURVE SMOOTH",
"240 423 OFFCURVE",
"241 410 OFFCURVE",
"237 384 CURVE SMOOTH",
"229 321 LINE",
"380 321 LINE",
"384 353 LINE SMOOTH",
"398 454 OFFCURVE",
"371 505 OFFCURVE",
"236 505 CURVE SMOOTH",
"101 505 OFFCURVE",
"54 458 OFFCURVE",
"41 363 CURVE SMOOTH",
"37 335 LINE SMOOTH",
"26 260 OFFCURVE",
"72 232 OFFCURVE",
"115 215 CURVE SMOOTH",
"160 195 OFFCURVE",
"194 191 OFFCURVE",
"187 141 CURVE SMOOTH",
"181 95 LINE SMOOTH",
"179 80 OFFCURVE",
"173 68 OFFCURVE",
"160 68 CURVE SMOOTH",
"145 68 OFFCURVE",
"145 82 OFFCURVE",
"149 109 CURVE SMOOTH",
"159 178 LINE",
"2 178 LINE",
"-3 144 LINE SMOOTH",
"-18 39 OFFCURVE",
"11 -14 OFFCURVE",
"151 -14 CURVE SMOOTH"
);
}
);
width = 382;
},
{
layerId = "D84909E6-9227-4984-810E-91F1FC034344";
paths = (
{
closed = 1;
nodes = (
"240 -6 OFFCURVE",
"260 58 OFFCURVE",
"269 112 CURVE SMOOTH",
"271 129 LINE SMOOTH",
"283 215 OFFCURVE",
"246 235 OFFCURVE",
"188 261 CURVE SMOOTH",
"117 292 OFFCURVE",
"87 316 OFFCURVE",
"96 379 CURVE SMOOTH",
"99 399 LINE SMOOTH",
"106 448 OFFCURVE",
"131 486 OFFCURVE",
"205 486 CURVE SMOOTH",
"266 486 OFFCURVE",
"293 462 OFFCURVE",
"282 380 CURVE SMOOTH",
"276 337 LINE",
"299 337 LINE",
"306 383 LINE SMOOTH",
"319 473 OFFCURVE",
"286 505 OFFCURVE",
"207 505 CURVE SMOOTH",
"124 505 OFFCURVE",
"84 465 OFFCURVE",
"76 405 CURVE SMOOTH",
"72 374 LINE SMOOTH",
"62 302 OFFCURVE",
"102 273 OFFCURVE",
"171 244 CURVE SMOOTH",
"236 218 OFFCURVE",
"254 183 OFFCURVE",
"247 134 CURVE SMOOTH",
"244 113 LINE SMOOTH",
"238 72 OFFCURVE",
"225 13 OFFCURVE",
"135 13 CURVE SMOOTH",
"34 13 OFFCURVE",
"45 67 OFFCURVE",
"54 128 CURVE SMOOTH",
"59 166 LINE",
"35 166 LINE",
"30 127 LINE SMOOTH",
"21 65 OFFCURVE",
"9 -6 OFFCURVE",
"133 -6 CURVE SMOOTH"
);
}
);
width = 333;
}
);
leftKerningGroup = s;
rightKerningGroup = s;
unicode = 0073;
},
{
glyphname = germandbls;
lastChange = "2021-05-19 22:43:31 +0000";
layers = (
{
background = {
paths = (
{
closed = 1;
nodes = (
"-91 -145 OFFCURVE",
"-55 -147 OFFCURVE",
"-40 -147 CURVE SMOOTH",
"46 -147 OFFCURVE",
"163 -125 OFFCURVE",
"186 38 CURVE SMOOTH",
"250 498 LINE SMOOTH",
"255 536 OFFCURVE",
"265 558 OFFCURVE",
"302 558 CURVE SMOOTH",
"346 558 OFFCURVE",
"344 538 OFFCURVE",
"336 483 CURVE SMOOTH",
"329 435 LINE SMOOTH",
"324 396 OFFCURVE",
"316 373 OFFCURVE",
"294 373 CURVE SMOOTH",
"257 373 LINE",
"245 293 LINE",
"263 293 LINE SMOOTH",
"308 293 OFFCURVE",
"305 270 OFFCURVE",
"301 239 CURVE SMOOTH",
"293 186 LINE SMOOTH",
"280 94 OFFCURVE",
"275 78 OFFCURVE",
"238 78 CURVE SMOOTH",
"218 78 LINE",
"207 0 LINE",
"251 0 LINE SMOOTH",
"364 0 OFFCURVE",
"442 16 OFFCURVE",
"457 121 CURVE SMOOTH",
"474 244 LINE SMOOTH",
"483 303 OFFCURVE",
"432 334 OFFCURVE",
"384 338 CURVE",
"385 342 LINE",
"427 345 OFFCURVE",
"476 382 OFFCURVE",
"484 438 CURVE SMOOTH",
"497 533 LINE SMOOTH",
"507 606 OFFCURVE",
"440 631 OFFCURVE",
"311 631 CURVE SMOOTH",
"144 631 OFFCURVE",
"108 597 OFFCURVE",
"97 522 CURVE SMOOTH",
"94 495 LINE",
"51 495 LINE",
"36 389 LINE",
"79 389 LINE",
"26 12 LINE SMOOTH",
"20 -27 OFFCURVE",
"4 -59 OFFCURVE",
"-45 -59 CURVE SMOOTH",
"-58 -59 OFFCURVE",
"-68 -58 OFFCURVE",
"-75 -57 CURVE SMOOTH",
"-80 -56 OFFCURVE",
"-84 -56 OFFCURVE",
"-89 -55 CURVE",
"-89 -60 OFFCURVE",
"-100 -138 OFFCURVE",
"-101 -143 CURVE"
);
}
);
};
layerId = "8A3706BD-364F-4FE3-9C2E-7E87DF0DB4CC";
paths = (
{
closed = 1;
nodes = (
"46 -147 OFFCURVE",
"163 -125 OFFCURVE",
"186 38 CURVE SMOOTH",
"250 498 LINE SMOOTH",
"255 536 OFFCURVE",
"265 558 OFFCURVE",
"302 558 CURVE SMOOTH",
"346 558 OFFCURVE",
"344 538 OFFCURVE",
"336 483 CURVE SMOOTH",
"329 435 LINE SMOOTH",
"324 396 OFFCURVE",
"316 373 OFFCURVE",
"294 373 CURVE SMOOTH",
"257 373 LINE",
"245 293 LINE",
"263 293 LINE SMOOTH",
"308 293 OFFCURVE",
"305 270 OFFCURVE",
"301 239 CURVE SMOOTH",
"293 186 LINE SMOOTH",
"280 94 OFFCURVE",
"275 78 OFFCURVE",
"238 78 CURVE SMOOTH",
"218 78 LINE",
"207 0 LINE",
"251 0 LINE SMOOTH",
"364 0 OFFCURVE",
"442 16 OFFCURVE",
"457 121 CURVE SMOOTH",
"474 244 LINE SMOOTH",
"483 303 OFFCURVE",
"432 334 OFFCURVE",
"384 338 CURVE",
"385 342 LINE",
"427 345 OFFCURVE",
"476 382 OFFCURVE",
"484 438 CURVE SMOOTH",
"497 533 LINE SMOOTH",
"507 606 OFFCURVE",
"440 631 OFFCURVE",
"311 631 CURVE SMOOTH",
"144 631 OFFCURVE",
"108 597 OFFCURVE",
"97 522 CURVE SMOOTH",
"94 495 LINE",
"51 495 LINE",
"36 389 LINE",
"79 389 LINE",
"26 12 LINE SMOOTH",
"20 -27 OFFCURVE",
"4 -59 OFFCURVE",
"-45 -59 CURVE SMOOTH",
"-58 -59 OFFCURVE",
"-68 -58 OFFCURVE",
"-75 -57 CURVE SMOOTH",
"-89 -55 LINE",
"-89 -60 OFFCURVE",
"-100 -138 OFFCURVE",
"-101 -143 CURVE",
"-91 -145 OFFCURVE",
"-55 -147 OFFCURVE",
"-40 -147 CURVE SMOOTH"
);
}
);
width = 499;
},
{
layerId = "D84909E6-9227-4984-810E-91F1FC034344";
paths = (
{
closed = 1;
nodes = (
"17 -147 OFFCURVE",
"44 -114 OFFCURVE",
"52 -55 CURVE SMOOTH",
"134 528 LINE SMOOTH",
"140 566 OFFCURVE",
"155 613 OFFCURVE",
"242 613 CURVE SMOOTH",
"307 613 OFFCURVE",
"335 586 OFFCURVE",
"328 531 CURVE SMOOTH",
"316 445 LINE SMOOTH",
"307 386 OFFCURVE",
"285 349 OFFCURVE",
"219 349 CURVE SMOOTH",
"163 349 LINE",
"161 330 LINE",
"206 330 LINE SMOOTH",
"261 330 OFFCURVE",
"309 311 OFFCURVE",
"299 239 CURVE SMOOTH",
"283 127 LINE SMOOTH",
"270 35 OFFCURVE",
"230 19 OFFCURVE",
"175 19 CURVE SMOOTH",
"97 19 LINE",
"94 0 LINE",
"173 0 LINE SMOOTH",
"242 0 OFFCURVE",
"290 16 OFFCURVE",
"305 121 CURVE SMOOTH",
"322 244 LINE SMOOTH",
"331 303 OFFCURVE",
"301 334 OFFCURVE",
"272 338 CURVE",
"273 342 LINE",
"299 345 OFFCURVE",
"330 382 OFFCURVE",
"338 438 CURVE SMOOTH",
"351 533 LINE SMOOTH",
"361 606 OFFCURVE",
"323 631 OFFCURVE",
"245 631 CURVE SMOOTH",
"144 631 OFFCURVE",
"120 597 OFFCURVE",
"109 522 CURVE SMOOTH",
"106 495 LINE",
"74 495 LINE",
"71 474 LINE",
"102 474 LINE",
"27 -59 LINE SMOOTH",
"22 -98 OFFCURVE",
"5 -130 OFFCURVE",
"-44 -130 CURVE SMOOTH",
"-57 -130 OFFCURVE",
"-66 -129 OFFCURVE",
"-73 -128 CURVE SMOOTH",
"-87 -126 LINE",
"-88 -131 OFFCURVE",
"-88 -138 OFFCURVE",
"-89 -143 CURVE",
"-79 -145 OFFCURVE",
"-55 -147 OFFCURVE",
"-40 -147 CURVE SMOOTH"
);
}
);
width = 347;
}
);
unicode = 00DF;
},
{
glyphname = longs;
lastChange = "2021-05-19 22:43:31 +0000";
layers = (
{
background = {
paths = (
{
closed = 1;
nodes = (
"94 -135 OFFCURVE",
"166 -89 OFFCURVE",
"184 39 CURVE SMOOTH",
"248 490 LINE SMOOTH",
"250 510 OFFCURVE",
"259 540 OFFCURVE",
"282 540 CURVE SMOOTH",
"307 540 OFFCURVE",
"327 538 OFFCURVE",
"354 528 CURVE",
"379 616 LINE",
"351 623 OFFCURVE",
"316 630 OFFCURVE",
"282 630 CURVE SMOOTH",
"191 630 OFFCURVE",
"109 624 OFFCURVE",
"94 512 CURVE SMOOTH",
"84 440 LINE",
"41 440 LINE",
"28 350 LINE",
"71 350 LINE",
"18 -25 LINE",
"15 -34 OFFCURVE",
"8 -42 OFFCURVE",
"0 -48 CURVE SMOOTH",
"-9 -55 OFFCURVE",
"-20 -59 OFFCURVE",
"-30 -59 CURVE SMOOTH",
"-66 -59 LINE",
"-76 -136 LINE",
"-47 -142 OFFCURVE",
"-16 -144 OFFCURVE",
"12 -142 CURVE SMOOTH"
);
}
);
};
layerId = "8A3706BD-364F-4FE3-9C2E-7E87DF0DB4CC";
paths = (
{
closed = 1;
nodes = (
"94 -135 OFFCURVE",
"166 -89 OFFCURVE",
"184 39 CURVE SMOOTH",
"248 490 LINE SMOOTH",
"250 510 OFFCURVE",
"259 540 OFFCURVE",
"282 540 CURVE SMOOTH",
"307 540 OFFCURVE",
"327 538 OFFCURVE",
"354 528 CURVE",
"379 616 LINE",
"351 623 OFFCURVE",
"316 630 OFFCURVE",
"282 630 CURVE SMOOTH",
"191 630 OFFCURVE",
"109 624 OFFCURVE",
"94 512 CURVE SMOOTH",
"84 440 LINE",
"41 440 LINE",
"28 350 LINE",
"71 350 LINE",
"18 -25 LINE",
"15 -34 OFFCURVE",
"8 -42 OFFCURVE",
"0 -48 CURVE SMOOTH",
"-9 -55 OFFCURVE",
"-20 -59 OFFCURVE",
"-30 -59 CURVE SMOOTH",
"-66 -59 LINE",
"-76 -136 LINE",
"-47 -142 OFFCURVE",
"-16 -144 OFFCURVE",
"12 -142 CURVE SMOOTH"
);
}
);
width = 310;
},
{
layerId = "D84909E6-9227-4984-810E-91F1FC034344";
paths = (
{
closed = 1;
nodes = (
"26 -147 OFFCURVE",
"54 -113 OFFCURVE",
"62 -55 CURVE SMOOTH",
"146 542 LINE SMOOTH",
"151 577 OFFCURVE",
"170 617 OFFCURVE",
"210 617 CURVE SMOOTH",
"247 617 OFFCURVE",
"272 612 OFFCURVE",
"299 607 CURVE",
"305 625 LINE",
"276 632 OFFCURVE",
"249 636 OFFCURVE",
"213 636 CURVE SMOOTH",
"160 636 OFFCURVE",
"131 604 OFFCURVE",
"124 546 CURVE SMOOTH",
"108 440 LINE",
"77 440 LINE",
"75 420 LINE",
"106 420 LINE",
"39 -54 LINE",
"34 -88 OFFCURVE",
"16 -127 OFFCURVE",
"-24 -128 CURVE SMOOTH",
"-41 -128 OFFCURVE",
"-57 -127 OFFCURVE",
"-72 -126 CURVE SMOOTH",
"-95 -123 LINE",
"-97 -143 LINE",
"-83 -146 OFFCURVE",
"-52 -147 OFFCURVE",
"-27 -147 CURVE SMOOTH"
);
}
);
width = 213;
}
);
unicode = 017F;
},
{
glyphname = t;
lastChange = "2021-05-19 22:43:31 +0000";
layers = (
{
background = {
paths = (
{
closed = 1;
nodes = (
"213 -5 OFFCURVE",
"260 9 OFFCURVE",
"260 9 CURVE",
"272 101 LINE",
"272 101 OFFCURVE",
"241 98 OFFCURVE",
"225 98 CURVE",
"193 98 OFFCURVE",
"191 122 OFFCURVE",
"194 142 CURVE",
"231 405 LINE",
"315 405 LINE",
"328 495 LINE",
"244 495 LINE",
"256 585 LINE",
"135 585 LINE",
"102 495 LINE",
"39 484 LINE",
"26 405 LINE",
"75 405 LINE",
"34 115 LINE",
"19 3 OFFCURVE",
"103 -5 OFFCURVE",
"168 -5 CURVE"
);
}
);
};
layerId = "8A3706BD-364F-4FE3-9C2E-7E87DF0DB4CC";
paths = (
{
closed = 1;
nodes = (
"213 -5 OFFCURVE",
"260 9 OFFCURVE",
"260 9 CURVE",
"272 101 LINE",
"272 101 OFFCURVE",
"241 98 OFFCURVE",
"225 98 CURVE SMOOTH",
"193 98 OFFCURVE",
"191 122 OFFCURVE",
"194 142 CURVE SMOOTH",
"231 405 LINE",
"315 405 LINE",
"328 495 LINE",
"244 495 LINE",
"256 585 LINE",
"135 585 LINE",
"102 495 LINE",
"39 484 LINE",
"26 405 LINE",
"75 405 LINE",
"34 115 LINE SMOOTH",
"19 3 OFFCURVE",
"103 -5 OFFCURVE",
"168 -5 CURVE SMOOTH"
);
}
);
width = 306;
},
{
layerId = "D84909E6-9227-4984-810E-91F1FC034344";
paths = (
{
closed = 1;
nodes = (
"122 0 OFFCURVE",
"145 2 OFFCURVE",
"160 4 CURVE",
"163 23 LINE",
"149 22 OFFCURVE",
"126 20 OFFCURVE",
"107 20 CURVE SMOOTH",
"58 20 OFFCURVE",
"49 50 OFFCURVE",
"56 94 CURVE SMOOTH",
"110 476 LINE",
"227 476 LINE",
"229 495 LINE",
"112 495 LINE",
"125 589 LINE",
"110 589 LINE",
"89 495 LINE",
"47 490 LINE",
"45 476 LINE",
"87 476 LINE",
"32 90 LINE SMOOTH",
"24 32 OFFCURVE",
"41 0 OFFCURVE",
"96 0 CURVE SMOOTH"
);
}
);
width = 221;
}
);
leftKerningGroup = t;
rightKerningGroup = t;
unicode = 0074;
},
{
glyphname = u;
lastChange = "2021-05-19 22:43:31 +0000";
layers = (
{
background = {
paths = (
{
closed = 1;
nodes = (
"143 -7 OFFCURVE",
"183 24 OFFCURVE",
"201 65 CURVE",
"204 0 LINE",
"337 0 LINE",
"406 495 LINE",
"250 495 LINE",
"195 105 LINE",
"191 103 OFFCURVE",
"183 102 OFFCURVE",
"178 102 CURVE",
"167 102 OFFCURVE",
"162 112 OFFCURVE",
"165 130 CURVE",
"216 495 LINE",
"60 495 LINE",
"8 124 LINE",
"-4 38 OFFCURVE",
"12 -7 OFFCURVE",
"100 -7 CURVE"
);
}
);
};
layerId = "8A3706BD-364F-4FE3-9C2E-7E87DF0DB4CC";
paths = (
{
closed = 1;
nodes = (
"143 -7 OFFCURVE",
"183 24 OFFCURVE",
"201 65 CURVE",
"204 0 LINE",
"337 0 LINE",
"406 495 LINE",
"250 495 LINE",
"195 105 LINE",
"191 103 OFFCURVE",
"183 102 OFFCURVE",
"178 102 CURVE SMOOTH",
"167 102 OFFCURVE",
"162 112 OFFCURVE",
"165 130 CURVE SMOOTH",
"216 495 LINE",
"60 495 LINE",
"8 124 LINE SMOOTH",
"-4 38 OFFCURVE",
"12 -7 OFFCURVE",
"100 -7 CURVE SMOOTH"
);
}
);
width = 397;
},
{
layerId = "D84909E6-9227-4984-810E-91F1FC034344";
paths = (
{
closed = 1;
nodes = (
"179 -8 OFFCURVE",
"225 5 OFFCURVE",
"247 49 CURVE",
"242 0 LINE",
"263 0 LINE",
"332 495 LINE",
"308 495 LINE",
"251 87 LINE",
"241 57 OFFCURVE",
"213 11 OFFCURVE",
"142 11 CURVE SMOOTH",
"42 11 OFFCURVE",
"54 74 OFFCURVE",
"62 132 CURVE SMOOTH",
"113 495 LINE",
"89 495 LINE",
"37 123 LINE SMOOTH",
"28 60 OFFCURVE",
"26 -8 OFFCURVE",
"138 -8 CURVE SMOOTH"
);
}
);
width = 361;
}
);
leftMetricsKey = "=o+5";
rightMetricsKey = d;
unicode = 0075;
},
{
glyphname = v;
lastChange = "2021-05-19 22:43:31 +0000";
layers = (
{
background = {
paths = (
{
closed = 1;
nodes = (
"30 495 LINE",
"48 0 LINE",
"198 0 LINE",
"230 23 OFFCURVE",
"302 122 OFFCURVE",
"341 220 CURVE SMOOTH",
"380 318 OFFCURVE",
"391 459 OFFCURVE",
"371 495 CURVE",
"229 495 LINE",
"243 451 OFFCURVE",
"241 381 OFFCURVE",
"230 306 CURVE SMOOTH",
"216 214 OFFCURVE",
"184 146 OFFCURVE",
"178 146 CURVE",
"178 495 LINE"
);
}
);
};
layerId = "8A3706BD-364F-4FE3-9C2E-7E87DF0DB4CC";
paths = (
{
closed = 1;
nodes = (
"198 0 LINE",
"230 23 OFFCURVE",
"302 122 OFFCURVE",
"341 220 CURVE SMOOTH",
"380 318 OFFCURVE",
"391 459 OFFCURVE",
"371 495 CURVE",
"229 495 LINE",
"243 451 OFFCURVE",
"241 381 OFFCURVE",
"230 306 CURVE SMOOTH",
"216 214 OFFCURVE",
"184 146 OFFCURVE",
"178 146 CURVE",
"178 495 LINE",
"30 495 LINE",
"48 0 LINE"
);
}
);
width = 370;
},
{
layerId = "D84909E6-9227-4984-810E-91F1FC034344";
paths = (
{
closed = 1;
nodes = (
"94 0 LINE",
"113 13 OFFCURVE",
"212 139 OFFCURVE",
"262 255 CURVE SMOOTH",
"298 336 OFFCURVE",
"314 442 OFFCURVE",
"285 495 CURVE",
"259 495 LINE",
"286 436 OFFCURVE",
"281 364 OFFCURVE",
"242 265 CURVE SMOOTH",
"200 159 OFFCURVE",
"103 38 OFFCURVE",
"92 30 CURVE",
"73 495 LINE",
"48 495 LINE",
"68 0 LINE"
);
}
);
width = 292;
}
);
leftKerningGroup = v;
rightKerningGroup = v;
unicode = 0076;
},
{
glyphname = w;
lastChange = "2021-05-19 22:43:31 +0000";
layers = (
{
background = {
paths = (
{
closed = 1;
nodes = (
"275 471 LINE",
"312 0 LINE",
"427 0 LINE",
"467 13 OFFCURVE",
"545 139 OFFCURVE",
"576 211 CURVE SMOOTH",
"631 337 OFFCURVE",
"634 459 OFFCURVE",
"618 495 CURVE",
"472 495 LINE",
"486 451 OFFCURVE",
"483 373 OFFCURVE",
"478 330 CURVE SMOOTH",
"472 279 OFFCURVE",
"446 233 OFFCURVE",
"424 224 CURVE",
"403 471 LINE"
);
},
{
closed = 1;
nodes = (
"173 495 LINE",
"33 495 LINE",
"53 0 LINE",
"194 0 LINE"
);
},
{
closed = 1;
nodes = (
"217 0 LINE",
"301 229 LINE",
"274 471 LINE",
"101 0 LINE"
);
}
);
};
layerId = "8A3706BD-364F-4FE3-9C2E-7E87DF0DB4CC";
paths = (
{
closed = 1;
nodes = (
"427 0 LINE",
"467 13 OFFCURVE",
"545 139 OFFCURVE",
"576 211 CURVE SMOOTH",
"631 337 OFFCURVE",
"634 459 OFFCURVE",
"618 495 CURVE",
"472 495 LINE",
"486 451 OFFCURVE",
"483 373 OFFCURVE",
"478 330 CURVE SMOOTH",
"472 279 OFFCURVE",
"446 233 OFFCURVE",
"424 224 CURVE",
"403 471 LINE",
"275 471 LINE",
"312 0 LINE"
);
},
{
closed = 1;
nodes = (
"194 0 LINE",
"173 495 LINE",
"33 495 LINE",
"53 0 LINE"
);
},
{
closed = 1;
nodes = (
"217 0 LINE",
"301 229 LINE",
"274 471 LINE",
"101 0 LINE"
);
}
);
width = 614;
},
{
layerId = "D84909E6-9227-4984-810E-91F1FC034344";
paths = (
{
closed = 1;
nodes = (
"339 0 LINE",
"357 13 OFFCURVE",
"457 139 OFFCURVE",
"507 255 CURVE SMOOTH",
"543 337 OFFCURVE",
"559 442 OFFCURVE",
"530 495 CURVE",
"504 495 LINE",
"531 436 OFFCURVE",
"526 363 OFFCURVE",
"487 266 CURVE SMOOTH",
"445 161 OFFCURVE",
"349 41 OFFCURVE",
"337 32 CURVE",
"315 471 LINE",
"291 471 LINE",
"314 0 LINE"
);
},
{
closed = 1;
nodes = (
"94 0 LINE",
"73 495 LINE",
"49 495 LINE",
"69 0 LINE"
);
},
{
closed = 1;
nodes = (
"95 0 LINE",
"312 464 LINE",
"290 471 LINE",
"70 0 LINE"
);
}
);
width = 544;
}
);
unicode = 0077;
},
{
glyphname = x;
lastChange = "2021-05-19 22:43:31 +0000";
layers = (
{
background = {
paths = (
{
closed = 1;
nodes = (
"99 0 LINE",
"114 52 OFFCURVE",
"137 107 OFFCURVE",
"161 115 CURVE",
"189 102 OFFCURVE",
"179 36 OFFCURVE",
"182 0 CURVE",
"339 0 LINE",
"341 113 OFFCURVE",
"300 244 OFFCURVE",
"268 264 CURVE",
"298 283 OFFCURVE",
"388 409 OFFCURVE",
"409 495 CURVE",
"272 495 LINE",
"255 422 OFFCURVE",
"227 376 OFFCURVE",
"205 367 CURVE",
"180 382 OFFCURVE",
"163 455 OFFCURVE",
"166 495 CURVE",
"43 495 LINE",
"35 422 OFFCURVE",
"61 295 OFFCURVE",
"102 264 CURVE",
"67 236 OFFCURVE",
"-17 101 OFFCURVE",
"-41 0 CURVE"
);
}
);
};
layerId = "8A3706BD-364F-4FE3-9C2E-7E87DF0DB4CC";
paths = (
{
closed = 1;
nodes = (
"99 0 LINE",
"114 52 OFFCURVE",
"137 107 OFFCURVE",
"161 115 CURVE",
"189 102 OFFCURVE",
"179 36 OFFCURVE",
"182 0 CURVE",
"339 0 LINE",
"341 113 OFFCURVE",
"300 244 OFFCURVE",
"268 264 CURVE",
"298 283 OFFCURVE",
"388 409 OFFCURVE",
"409 495 CURVE",
"272 495 LINE",
"255 422 OFFCURVE",
"227 376 OFFCURVE",
"205 367 CURVE",
"180 382 OFFCURVE",
"163 455 OFFCURVE",
"166 495 CURVE",
"43 495 LINE",
"35 422 OFFCURVE",
"61 295 OFFCURVE",
"102 264 CURVE",
"67 236 OFFCURVE",
"-17 101 OFFCURVE",
"-41 0 CURVE"
);
}
);
width = 368;
},
{
layerId = "D84909E6-9227-4984-810E-91F1FC034344";
paths = (
{
closed = 1;
nodes = (
"2 0 LINE",
"42 130 OFFCURVE",
"125 221 OFFCURVE",
"149 240 CURVE",
"179 217 OFFCURVE",
"225 90 OFFCURVE",
"223 0 CURVE",
"247 0 LINE",
"249 113 OFFCURVE",
"195 244 OFFCURVE",
"163 264 CURVE",
"193 283 OFFCURVE",
"280 409 OFFCURVE",
"301 495 CURVE",
"277 495 LINE",
"265 437 OFFCURVE",
"184 302 OFFCURVE",
"151 285 CURVE",
"114 314 OFFCURVE",
"82 418 OFFCURVE",
"86 495 CURVE",
"62 495 LINE",
"54 422 OFFCURVE",
"96 295 OFFCURVE",
"137 264 CURVE",
"102 236 OFFCURVE",
"2 101 OFFCURVE",
"-22 0 CURVE"
);
}
);
width = 286;
}
);
unicode = 0078;
},
{
color = 4;
glyphname = y;
lastChange = "2021-05-19 22:43:31 +0000";
layers = (
{
background = {
paths = (
{
closed = 1;
nodes = (
"30 495 LINE",
"75 -33 LINE",
"203 80 LINE",
"190 495 LINE"
);
},
{
closed = 1;
nodes = (
"150 -53 OFFCURVE",
"-32 -21 CURVE",
"-43 -103 LINE",
"-11 -113 OFFCURVE",
"44 -118 OFFCURVE",
"79 -118 CURVE SMOOTH",
"298 -118 OFFCURVE",
"403 219 OFFCURVE",
"421 410 CURVE SMOOTH",
"424 442 OFFCURVE",
"423 471 OFFCURVE",
"418 495 CURVE",
"267 495 LINE",
"274 465 OFFCURVE",
"274 426 OFFCURVE",
"257 279 CURVE SMOOTH",
"243 157 OFFCURVE"
);
}
);
};
layerId = "8A3706BD-364F-4FE3-9C2E-7E87DF0DB4CC";
paths = (
{
closed = 1;
nodes = (
"185 -118 OFFCURVE",
"269 -33 OFFCURVE",
"328 78 CURVE SMOOTH",
"389 194 OFFCURVE",
"422 339 OFFCURVE",
"422 448 CURVE SMOOTH",
"422 467 OFFCURVE",
"421 482 OFFCURVE",
"418 495 CURVE",
"267 495 LINE",
"270 483 OFFCURVE",
"271 467 OFFCURVE",
"271 448 CURVE SMOOTH",
"271 361 OFFCURVE",
"257 238 OFFCURVE",
"226 162 CURVE SMOOTH",
"188 69 OFFCURVE",
"103 -22 OFFCURVE",
"27 -22 CURVE SMOOTH",
"-1 -22 OFFCURVE",
"-20 -19 OFFCURVE",
"-34 -16 CURVE",
"-43 -103 LINE",
"-11 -113 OFFCURVE",
"30 -118 OFFCURVE",
"79 -118 CURVE SMOOTH"
);
},
{
closed = 1;
nodes = (
"206 27 LINE",
"190 495 LINE",
"30 495 LINE",
"77 -51 LINE"
);
}
);
width = 410;
},
{
layerId = "D84909E6-9227-4984-810E-91F1FC034344";
paths = (
{
closed = 1;
nodes = (
"74 -116 OFFCURVE",
"176 -14 OFFCURVE",
"235 106 CURVE SMOOTH",
"282 205 OFFCURVE",
"319 354 OFFCURVE",
"319 454 CURVE SMOOTH",
"319 471 OFFCURVE",
"318 483 OFFCURVE",
"316 495 CURVE",
"290 495 LINE",
"292 487 OFFCURVE",
"294 471 OFFCURVE",
"294 450 CURVE SMOOTH",
"294 350 OFFCURVE",
"263 222 OFFCURVE",
"219 129 CURVE SMOOTH",
"160 2 OFFCURVE",
"65 -94 OFFCURVE",
"-44 -94 CURVE SMOOTH",
"-57 -94 OFFCURVE",
"-67 -93 OFFCURVE",
"-76 -90 CURVE",
"-80 -112 LINE",
"-71 -115 OFFCURVE",
"-56 -116 OFFCURVE",
"-42 -116 CURVE SMOOTH"
);
},
{
closed = 1;
nodes = (
"100 -54 LINE",
"79 495 LINE",
"54 495 LINE",
"76 -57 LINE"
);
}
);
width = 321;
}
);
unicode = 0079;
},
{
glyphname = z;
lastChange = "2021-05-19 22:43:31 +0000";
layers = (
{
background = {
paths = (
{
closed = 1;
nodes = (
"269 0 LINE",
"284 105 LINE",
"172 105 LINE",
"330 429 LINE",
"339 495 LINE",
"60 495 LINE",
"46 396 LINE",
"149 396 LINE",
"-16 60 LINE",
"-25 0 LINE"
);
}
);
};
layerId = "8A3706BD-364F-4FE3-9C2E-7E87DF0DB4CC";
paths = (
{
closed = 1;
nodes = (
"269 0 LINE",
"284 105 LINE",
"172 105 LINE",
"330 429 LINE",
"339 495 LINE",
"60 495 LINE",
"46 396 LINE",
"149 396 LINE",
"-16 60 LINE",
"-25 0 LINE"
);
}
);
width = 314;
},
{
layerId = "D84909E6-9227-4984-810E-91F1FC034344";
paths = (
{
closed = 1;
nodes = (
"190 0 LINE",
"194 21 LINE",
"12 21 LINE",
"258 483 LINE",
"260 495 LINE",
"59 495 LINE",
"56 475 LINE",
"228 475 LINE",
"-17 11 LINE",
"-19 0 LINE"
);
}
);
width = 241;
}
);
unicode = 007A;
},
{
glyphname = f_f;
lastChange = "2021-05-20 00:58:28 +0000";
layers = (
{
anchors = (
{
name = caret_1;
position = "{230, 0}";
}
);
background = {
paths = (
{
closed = 1;
nodes = (
"589 557 OFFCURVE",
"616 554 OFFCURVE",
"616 554 CURVE",
"625 624 LINE",
"616 624 OFFCURVE",
"559 630 OFFCURVE",
"514 630 CURVE SMOOTH",
"459 630 OFFCURVE",
"389 624 OFFCURVE",
"374 512 CURVE SMOOTH",
"369 476 LINE",
"227 476 LINE",
"232 513 LINE SMOOTH",
"235 533 OFFCURVE",
"243 557 OFFCURVE",
"265 557 CURVE SMOOTH",
"291 557 OFFCURVE",
"318 554 OFFCURVE",
"318 554 CURVE",
"327 624 LINE",
"318 624 OFFCURVE",
"261 630 OFFCURVE",
"216 630 CURVE SMOOTH",
"161 630 OFFCURVE",
"91 624 OFFCURVE",
"76 512 CURVE SMOOTH",
"71 476 LINE",
"39 476 LINE",
"26 389 LINE",
"58 389 LINE",
"4 0 LINE",
"160 0 LINE",
"214 389 LINE",
"356 389 LINE",
"302 0 LINE",
"458 0 LINE",
"512 389 LINE",
"592 389 LINE",
"605 476 LINE",
"525 476 LINE",
"530 513 LINE SMOOTH",
"533 533 OFFCURVE",
"541 557 OFFCURVE",
"563 557 CURVE SMOOTH"
);
}
);
};
layerId = "8A3706BD-364F-4FE3-9C2E-7E87DF0DB4CC";
paths = (
{
closed = 1;
nodes = (
"160 0 LINE",
"214 389 LINE",
"356 389 LINE",
"302 0 LINE",
"458 0 LINE",
"512 389 LINE",
"592 389 LINE",
"605 476 LINE",
"525 476 LINE",
"530 513 LINE SMOOTH",
"533 533 OFFCURVE",
"541 557 OFFCURVE",
"563 557 CURVE SMOOTH",
"589 557 OFFCURVE",
"616 554 OFFCURVE",
"616 554 CURVE",
"625 624 LINE",
"616 624 OFFCURVE",
"559 630 OFFCURVE",
"514 630 CURVE SMOOTH",
"459 630 OFFCURVE",
"390 624 OFFCURVE",
"374 512 CURVE SMOOTH",
"369 476 LINE",
"227 476 LINE",
"232 513 LINE SMOOTH",
"235 533 OFFCURVE",
"243 557 OFFCURVE",
"265 557 CURVE SMOOTH",
"291 557 OFFCURVE",
"318 554 OFFCURVE",
"318 554 CURVE",
"327 624 LINE",
"318 624 OFFCURVE",
"261 630 OFFCURVE",
"216 630 CURVE SMOOTH",
"161 630 OFFCURVE",
"92 624 OFFCURVE",
"76 512 CURVE SMOOTH",
"71 476 LINE",
"39 476 LINE",
"26 389 LINE",
"58 389 LINE",
"4 0 LINE"
);
}
);
width = 579;
},
{
anchors = (
{
name = caret_1;
position = "{172, 0}";
}
);
layerId = "D84909E6-9227-4984-810E-91F1FC034344";
paths = (
{
closed = 1;
nodes = (
"52 0 LINE",
"117 457 LINE",
"332 457 LINE",
"267 0 LINE",
"290 0 LINE",
"355 457 LINE",
"479 457 LINE",
"482 476 LINE",
"357 476 LINE",
"367 543 LINE SMOOTH",
"372 578 OFFCURVE",
"390 617 OFFCURVE",
"430 617 CURVE SMOOTH",
"464 617 OFFCURVE",
"501 612 OFFCURVE",
"501 612 CURVE",
"504 632 LINE",
"489 634 OFFCURVE",
"458 636 OFFCURVE",
"432 636 CURVE SMOOTH",
"380 636 OFFCURVE",
"352 603 OFFCURVE",
"344 546 CURVE SMOOTH",
"334 476 LINE",
"119 476 LINE",
"129 543 LINE SMOOTH",
"134 578 OFFCURVE",
"152 617 OFFCURVE",
"192 617 CURVE SMOOTH",
"226 617 OFFCURVE",
"264 612 OFFCURVE",
"264 612 CURVE",
"266 632 LINE",
"251 634 OFFCURVE",
"220 636 OFFCURVE",
"195 636 CURVE SMOOTH",
"143 636 OFFCURVE",
"114 603 OFFCURVE",
"106 546 CURVE SMOOTH",
"96 476 LINE",
"65 476 LINE",
"63 457 LINE",
"94 457 LINE",
"29 0 LINE"
);
}
);
width = 449;
}
);
leftMetricsKey = f;
rightMetricsKey = f;
},
{
glyphname = f_f_i;
lastChange = "2021-05-20 00:58:28 +0000";
layers = (
{
anchors = (
{
name = caret_1;
position = "{238, 0}";
},
{
name = caret_2;
position = "{522, 0}";
}
);
background = {
paths = (
{
closed = 1;
nodes = (
"160 0 LINE",
"214 389 LINE",
"356 389 LINE",
"302 0 LINE",
"458 0 LINE",
"512 389 LINE",
"637 389 LINE",
"583 0 LINE",
"739 0 LINE",
"806 476 LINE",
"525 476 LINE",
"530 513 LINE SMOOTH",
"533 533 OFFCURVE",
"541 557 OFFCURVE",
"590 557 CURVE SMOOTH",
"645 557 OFFCURVE",
"716 550 OFFCURVE",
"742 539 CURVE",
"752 609 LINE",
"697 630 OFFCURVE",
"617 630 OFFCURVE",
"585 630 CURVE SMOOTH",
"459 630 OFFCURVE",
"389 624 OFFCURVE",
"374 512 CURVE SMOOTH",
"369 476 LINE",
"227 476 LINE",
"232 513 LINE SMOOTH",
"235 533 OFFCURVE",
"243 557 OFFCURVE",
"265 557 CURVE SMOOTH",
"291 557 OFFCURVE",
"318 554 OFFCURVE",
"318 554 CURVE",
"327 624 LINE",
"318 624 OFFCURVE",
"261 630 OFFCURVE",
"216 630 CURVE SMOOTH",
"161 630 OFFCURVE",
"91 624 OFFCURVE",
"76 512 CURVE SMOOTH",
"71 476 LINE",
"39 476 LINE",
"26 389 LINE",
"58 389 LINE",
"4 0 LINE"
);
}
);
};
layerId = "8A3706BD-364F-4FE3-9C2E-7E87DF0DB4CC";
paths = (
{
closed = 1;
nodes = (
"160 0 LINE",
"214 389 LINE",
"356 389 LINE",
"302 0 LINE",
"458 0 LINE",
"512 389 LINE",
"637 389 LINE",
"583 0 LINE",
"739 0 LINE",
"806 476 LINE",
"525 476 LINE",
"530 513 LINE SMOOTH",
"533 533 OFFCURVE",
"541 557 OFFCURVE",
"590 557 CURVE SMOOTH",
"645 557 OFFCURVE",
"716 550 OFFCURVE",
"742 539 CURVE",
"752 609 LINE",
"697 630 OFFCURVE",
"617 630 OFFCURVE",
"585 630 CURVE SMOOTH",
"459 630 OFFCURVE",
"390 624 OFFCURVE",
"374 512 CURVE SMOOTH",
"369 476 LINE",
"227 476 LINE",
"232 513 LINE SMOOTH",
"235 533 OFFCURVE",
"243 557 OFFCURVE",
"265 557 CURVE SMOOTH",
"291 557 OFFCURVE",
"318 554 OFFCURVE",
"318 554 CURVE",
"327 624 LINE",
"318 624 OFFCURVE",
"261 630 OFFCURVE",
"216 630 CURVE SMOOTH",
"161 630 OFFCURVE",
"92 624 OFFCURVE",
"76 512 CURVE SMOOTH",
"71 476 LINE",
"39 476 LINE",
"26 389 LINE",
"58 389 LINE",
"4 0 LINE"
);
}
);
width = 799;
},
{
anchors = (
{
name = caret_1;
position = "{160, 0}";
},
{
name = caret_2;
position = "{413, 0}";
}
);
layerId = "D84909E6-9227-4984-810E-91F1FC034344";
paths = (
{
closed = 1;
nodes = (
"52 0 LINE",
"117 457 LINE",
"332 457 LINE",
"267 0 LINE",
"290 0 LINE",
"355 457 LINE",
"564 457 LINE",
"500 0 LINE",
"523 0 LINE",
"590 476 LINE",
"357 476 LINE",
"367 543 LINE SMOOTH",
"372 578 OFFCURVE",
"390 617 OFFCURVE",
"465 617 CURVE SMOOTH",
"505 617 OFFCURVE",
"571 605 OFFCURVE",
"604 594 CURVE",
"607 614 LINE",
"550 636 OFFCURVE",
"494 636 OFFCURVE",
"468 636 CURVE SMOOTH",
"380 636 OFFCURVE",
"352 603 OFFCURVE",
"344 546 CURVE SMOOTH",
"334 476 LINE",
"119 476 LINE",
"129 543 LINE SMOOTH",
"134 578 OFFCURVE",
"152 617 OFFCURVE",
"192 617 CURVE SMOOTH",
"226 617 OFFCURVE",
"264 612 OFFCURVE",
"264 612 CURVE",
"266 632 LINE",
"251 634 OFFCURVE",
"220 636 OFFCURVE",
"195 636 CURVE SMOOTH",
"143 636 OFFCURVE",
"114 603 OFFCURVE",
"106 546 CURVE SMOOTH",
"96 476 LINE",
"65 476 LINE",
"63 457 LINE",
"94 457 LINE",
"29 0 LINE"
);
}
);
width = 621;
}
);
leftMetricsKey = f;
rightMetricsKey = i;
},
{
glyphname = longs_t;
lastChange = "2021-05-20 00:58:28 +0000";
layers = (
{
anchors = (
{
name = caret_1;
position = "{263, 0}";
}
);
background = {
paths = (
{
closed = 1;
nodes = (
"94 -135 OFFCURVE",
"166 -89 OFFCURVE",
"184 39 CURVE SMOOTH",
"248 490 LINE SMOOTH",
"250 510 OFFCURVE",
"258 536 OFFCURVE",
"282 540 CURVE SMOOTH",
"340 549 OFFCURVE",
"392 540 OFFCURVE",
"423 537 CURVE SMOOTH",
"444 610 LINE SMOOTH",
"416 617 OFFCURVE",
"316 630 OFFCURVE",
"282 630 CURVE SMOOTH",
"191 630 OFFCURVE",
"109 624 OFFCURVE",
"94 512 CURVE SMOOTH",
"84 440 LINE",
"41 440 LINE",
"28 350 LINE",
"71 350 LINE",
"18 -25 LINE",
"15 -34 OFFCURVE",
"8 -42 OFFCURVE",
"0 -48 CURVE SMOOTH",
"-9 -55 OFFCURVE",
"-20 -59 OFFCURVE",
"-30 -59 CURVE SMOOTH",
"-66 -59 LINE",
"-76 -136 LINE",
"-47 -142 OFFCURVE",
"-16 -144 OFFCURVE",
"12 -142 CURVE SMOOTH"
);
},
{
closed = 1;
nodes = (
"518 -5 OFFCURVE",
"565 9 OFFCURVE",
"565 9 CURVE SMOOTH",
"578 101 LINE SMOOTH",
"578 101 OFFCURVE",
"547 98 OFFCURVE",
"531 98 CURVE SMOOTH",
"499 98 OFFCURVE",
"497 122 OFFCURVE",
"500 142 CURVE SMOOTH",
"537 405 LINE",
"621 405 LINE",
"633 495 LINE",
"549 495 LINE",
"565 610 LINE",
"444 610 LINE",
"407 495 LINE",
"341 472 LINE",
"332 405 LINE",
"381 405 LINE",
"340 115 LINE SMOOTH",
"324 3 OFFCURVE",
"408 -5 OFFCURVE",
"473 -5 CURVE SMOOTH"
);
}
);
};
layerId = "8A3706BD-364F-4FE3-9C2E-7E87DF0DB4CC";
paths = (
{
closed = 1;
nodes = (
"94 -135 OFFCURVE",
"166 -89 OFFCURVE",
"184 39 CURVE SMOOTH",
"248 490 LINE SMOOTH",
"251 510 OFFCURVE",
"258 536 OFFCURVE",
"282 540 CURVE SMOOTH",
"340 549 OFFCURVE",
"392 540 OFFCURVE",
"423 537 CURVE",
"444 610 LINE",
"416 617 OFFCURVE",
"316 630 OFFCURVE",
"282 630 CURVE SMOOTH",
"191 630 OFFCURVE",
"110 624 OFFCURVE",
"94 512 CURVE SMOOTH",
"84 440 LINE",
"41 440 LINE",
"28 350 LINE",
"71 350 LINE",
"18 -25 LINE",
"15 -34 OFFCURVE",
"8 -42 OFFCURVE",
"0 -48 CURVE SMOOTH",
"-9 -55 OFFCURVE",
"-20 -59 OFFCURVE",
"-30 -59 CURVE SMOOTH",
"-66 -59 LINE",
"-76 -136 LINE",
"-47 -142 OFFCURVE",
"-16 -144 OFFCURVE",
"12 -142 CURVE SMOOTH"
);
},
{
closed = 1;
nodes = (
"518 -5 OFFCURVE",
"565 9 OFFCURVE",
"565 9 CURVE",
"578 101 LINE",
"578 101 OFFCURVE",
"547 98 OFFCURVE",
"531 98 CURVE SMOOTH",
"499 98 OFFCURVE",
"497 122 OFFCURVE",
"500 142 CURVE SMOOTH",
"537 405 LINE",
"621 405 LINE",
"633 495 LINE",
"549 495 LINE",
"565 610 LINE",
"444 610 LINE",
"407 495 LINE",
"341 472 LINE",
"332 405 LINE",
"381 405 LINE",
"340 115 LINE SMOOTH",
"324 3 OFFCURVE",
"408 -5 OFFCURVE",
"473 -5 CURVE SMOOTH"
);
}
);
width = 611;
},
{
anchors = (
{
name = caret_1;
position = "{170, 0}";
}
);
layerId = "D84909E6-9227-4984-810E-91F1FC034344";
paths = (
{
closed = 1;
nodes = (
"26 -147 OFFCURVE",
"53 -113 OFFCURVE",
"62 -55 CURVE SMOOTH",
"146 542 LINE SMOOTH",
"151 577 OFFCURVE",
"170 617 OFFCURVE",
"210 617 CURVE SMOOTH",
"248 617 OFFCURVE",
"315 609 OFFCURVE",
"342 604 CURVE",
"348 617 LINE",
"319 624 OFFCURVE",
"249 636 OFFCURVE",
"213 636 CURVE SMOOTH",
"160 636 OFFCURVE",
"132 604 OFFCURVE",
"124 546 CURVE SMOOTH",
"108 440 LINE",
"77 440 LINE",
"75 420 LINE",
"106 420 LINE",
"39 -54 LINE",
"34 -88 OFFCURVE",
"16 -127 OFFCURVE",
"-24 -128 CURVE SMOOTH",
"-41 -128 OFFCURVE",
"-57 -128 OFFCURVE",
"-72 -126 CURVE SMOOTH",
"-95 -123 LINE",
"-97 -143 LINE",
"-83 -146 OFFCURVE",
"-52 -147 OFFCURVE",
"-27 -147 CURVE SMOOTH"
);
},
{
closed = 1;
nodes = (
"344 0 OFFCURVE",
"368 2 OFFCURVE",
"383 4 CURVE",
"386 23 LINE",
"371 22 OFFCURVE",
"349 20 OFFCURVE",
"329 20 CURVE SMOOTH",
"281 20 OFFCURVE",
"273 50 OFFCURVE",
"279 94 CURVE SMOOTH",
"332 476 LINE",
"449 476 LINE",
"452 495 LINE",
"335 495 LINE",
"351 617 LINE",
"336 617 LINE",
"312 495 LINE",
"269 488 LINE",
"268 476 LINE",
"309 476 LINE",
"255 90 LINE SMOOTH",
"246 32 OFFCURVE",
"263 0 OFFCURVE",
"319 0 CURVE SMOOTH"
);
}
);
width = 444;
}
);
leftMetricsKey = longs;
rightMetricsKey = t;
},
{
glyphname = s_t;
lastChange = "2021-05-19 22:43:31 +0000";
layers = (
{
anchors = (
{
name = caret_1;
position = "{387, 0}";
}
);
background = {
paths = (
{
closed = 1;
nodes = (
"21 144 LINE",
"21 39 OFFCURVE",
"57 -14 OFFCURVE",
"197 -14 CURVE",
"337 -14 OFFCURVE",
"379 35 OFFCURVE",
"379 134 CURVE",
"379 170 LINE",
"379 240 OFFCURVE",
"330 267 OFFCURVE",
"283 284 CURVE",
"246 297 OFFCURVE",
"194 303 OFFCURVE",
"194 350 CURVE",
"194 397 LINE",
"194 412 OFFCURVE",
"201 423 OFFCURVE",
"215 423 CURVE",
"231 423 OFFCURVE",
"234 410 OFFCURVE",
"234 384 CURVE",
"234 321 LINE",
"379 321 LINE",
"379 353 LINE",
"379 454 OFFCURVE",
"345 505 OFFCURVE",
"210 505 CURVE",
"75 505 OFFCURVE",
"34 458 OFFCURVE",
"34 363 CURVE",
"34 335 LINE",
"34 260 OFFCURVE",
"84 232 OFFCURVE",
"129 215 CURVE",
"177 195 OFFCURVE",
"212 191 OFFCURVE",
"212 141 CURVE",
"212 95 LINE",
"212 80 OFFCURVE",
"208 68 OFFCURVE",
"195 68 CURVE",
"180 68 OFFCURVE",
"178 82 OFFCURVE",
"178 109 CURVE",
"178 178 LINE",
"21 178 LINE"
);
},
{
closed = 1;
nodes = (
"665 -5 OFFCURVE",
"710 9 OFFCURVE",
"710 9 CURVE",
"710 101 LINE",
"710 101 OFFCURVE",
"679 98 OFFCURVE",
"663 98 CURVE",
"631 98 OFFCURVE",
"626 122 OFFCURVE",
"626 142 CURVE",
"626 405 LINE",
"710 405 LINE",
"710 495 LINE",
"626 495 LINE",
"626 585 LINE",
"505 585 LINE",
"484 495 LINE",
"421 472 LINE",
"421 405 LINE",
"470 405 LINE",
"470 115 LINE",
"470 3 OFFCURVE",
"555 -5 OFFCURVE",
"620 -5 CURVE"
);
},
{
closed = 1;
nodes = (
"587 607 OFFCURVE",
"523 639 OFFCURVE",
"428 639 CURVE SMOOTH",
"312 639 OFFCURVE",
"265 624 OFFCURVE",
"266 483 CURVE",
"264 348 LINE",
"379 353 LINE",
"379 373 LINE SMOOTH",
"379 539 OFFCURVE",
"386 562 OFFCURVE",
"431 563 CURVE SMOOTH",
"456 564 OFFCURVE",
"506 550 OFFCURVE",
"512 548 CURVE",
"626 585 LINE"
);
}
);
};
layerId = "8A3706BD-364F-4FE3-9C2E-7E87DF0DB4CC";
paths = (
{
closed = 1;
nodes = (
"291 -14 OFFCURVE",
"340 35 OFFCURVE",
"354 134 CURVE SMOOTH",
"359 170 LINE SMOOTH",
"369 240 OFFCURVE",
"324 267 OFFCURVE",
"279 284 CURVE SMOOTH",
"244 297 OFFCURVE",
"192 303 OFFCURVE",
"199 350 CURVE SMOOTH",
"206 397 LINE SMOOTH",
"208 412 OFFCURVE",
"217 423 OFFCURVE",
"231 423 CURVE SMOOTH",
"247 423 OFFCURVE",
"248 410 OFFCURVE",
"244 384 CURVE SMOOTH",
"235 321 LINE",
"380 321 LINE",
"385 353 LINE SMOOTH",
"401 454 OFFCURVE",
"372 505 OFFCURVE",
"237 505 CURVE SMOOTH",
"102 505 OFFCURVE",
"55 458 OFFCURVE",
"41 363 CURVE SMOOTH",
"37 335 LINE SMOOTH",
"26 260 OFFCURVE",
"73 232 OFFCURVE",
"115 215 CURVE SMOOTH",
"160 195 OFFCURVE",
"196 191 OFFCURVE",
"188 141 CURVE SMOOTH",
"181 95 LINE SMOOTH",
"179 80 OFFCURVE",
"174 68 OFFCURVE",
"161 68 CURVE SMOOTH",
"146 68 OFFCURVE",
"145 82 OFFCURVE",
"149 109 CURVE SMOOTH",
"159 178 LINE",
"2 178 LINE",
"-3 144 LINE SMOOTH",
"-18 39 OFFCURVE",
"11 -14 OFFCURVE",
"151 -14 CURVE SMOOTH"
);
},
{
closed = 1;
nodes = (
"620 -5 OFFCURVE",
"667 9 OFFCURVE",
"667 9 CURVE",
"680 101 LINE",
"680 101 OFFCURVE",
"649 98 OFFCURVE",
"633 98 CURVE SMOOTH",
"601 98 OFFCURVE",
"599 122 OFFCURVE",
"602 142 CURVE SMOOTH",
"639 405 LINE",
"723 405 LINE",
"736 495 LINE",
"652 495 LINE",
"664 585 LINE",
"543 585 LINE",
"510 495 LINE",
"443 472 LINE",
"434 405 LINE",
"483 405 LINE",
"442 115 LINE SMOOTH",
"426 3 OFFCURVE",
"510 -5 OFFCURVE",
"575 -5 CURVE SMOOTH"
);
},
{
closed = 1;
nodes = (
"385 353 LINE",
"388 373 LINE SMOOTH",
"413 539 OFFCURVE",
"421 562 OFFCURVE",
"466 563 CURVE SMOOTH",
"491 564 OFFCURVE",
"539 550 OFFCURVE",
"545 548 CURVE",
"664 585 LINE",
"628 607 OFFCURVE",
"569 639 OFFCURVE",
"474 639 CURVE SMOOTH",
"358 639 OFFCURVE",
"312 624 OFFCURVE",
"290 483 CURVE SMOOTH",
"269 348 LINE"
);
}
);
width = 713;
},
{
anchors = (
{
name = caret_1;
position = "{311, 0}";
}
);
layerId = "D84909E6-9227-4984-810E-91F1FC034344";
paths = (
{
closed = 1;
nodes = (
"239 -6 OFFCURVE",
"261 58 OFFCURVE",
"268 112 CURVE SMOOTH",
"270 129 LINE SMOOTH",
"280 215 OFFCURVE",
"245 235 OFFCURVE",
"188 261 CURVE SMOOTH",
"116 292 OFFCURVE",
"89 316 OFFCURVE",
"96 379 CURVE SMOOTH",
"98 399 LINE SMOOTH",
"103 448 OFFCURVE",
"131 486 OFFCURVE",
"204 486 CURVE SMOOTH",
"265 486 OFFCURVE",
"294 462 OFFCURVE",
"282 380 CURVE SMOOTH",
"276 337 LINE",
"299 337 LINE",
"305 383 LINE SMOOTH",
"317 473 OFFCURVE",
"285 505 OFFCURVE",
"206 505 CURVE SMOOTH",
"123 505 OFFCURVE",
"83 465 OFFCURVE",
"75 405 CURVE SMOOTH",
"71 374 LINE SMOOTH",
"62 302 OFFCURVE",
"102 273 OFFCURVE",
"171 244 CURVE SMOOTH",
"235 218 OFFCURVE",
"253 183 OFFCURVE",
"246 134 CURVE SMOOTH",
"243 113 LINE SMOOTH",
"237 72 OFFCURVE",
"225 13 OFFCURVE",
"135 13 CURVE SMOOTH",
"34 13 OFFCURVE",
"43 67 OFFCURVE",
"53 128 CURVE SMOOTH",
"59 166 LINE",
"35 166 LINE",
"29 127 LINE SMOOTH",
"20 65 OFFCURVE",
"8 -6 OFFCURVE",
"132 -6 CURVE SMOOTH"
);
},
{
closed = 1;
nodes = (
"464 0 OFFCURVE",
"487 2 OFFCURVE",
"503 4 CURVE",
"505 23 LINE",
"492 22 OFFCURVE",
"469 20 OFFCURVE",
"450 20 CURVE SMOOTH",
"401 20 OFFCURVE",
"392 50 OFFCURVE",
"398 94 CURVE SMOOTH",
"452 476 LINE",
"569 476 LINE",
"572 495 LINE",
"455 495 LINE",
"468 589 LINE",
"453 589 LINE",
"432 495 LINE",
"390 488 LINE",
"387 476 LINE",
"429 476 LINE",
"375 90 LINE SMOOTH",
"367 32 OFFCURVE",
"383 0 OFFCURVE",
"438 0 CURVE SMOOTH"
);
},
{
closed = 1;
nodes = (
"302 354 LINE",
"324 493 LINE SMOOTH",
"335 564 OFFCURVE",
"364 583 OFFCURVE",
"399 583 CURVE SMOOTH",
"424 583 OFFCURVE",
"455 576 OFFCURVE",
"459 573 CURVE",
"468 589 LINE",
"458 592 OFFCURVE",
"437 602 OFFCURVE",
"398 602 CURVE SMOOTH",
"358 602 OFFCURVE",
"312 589 OFFCURVE",
"302 497 CURVE SMOOTH",
"286 354 LINE"
);
}
);
width = 563;
}
);
leftMetricsKey = s;
rightMetricsKey = t;
},
{
glyphname = t_i;
lastChange = "2021-05-20 00:58:28 +0000";
layers = (
{
anchors = (
{
name = caret_1;
position = "{286, 0}";
}
);
background = {
paths = (
{
closed = 1;
nodes = (
"213 -5 OFFCURVE",
"260 9 OFFCURVE",
"260 9 CURVE",
"273 101 LINE",
"273 101 OFFCURVE",
"241 98 OFFCURVE",
"225 98 CURVE SMOOTH",
"193 98 OFFCURVE",
"192 122 OFFCURVE",
"194 142 CURVE SMOOTH",
"231 405 LINE",
"370 405 LINE",
"314 0 LINE",
"470 0 LINE",
"539 495 LINE",
"244 495 LINE",
"257 585 LINE",
"136 585 LINE",
"102 495 LINE",
"36 472 LINE",
"26 405 LINE",
"75 405 LINE",
"35 115 LINE SMOOTH",
"19 3 OFFCURVE",
"103 -5 OFFCURVE",
"168 -5 CURVE SMOOTH"
);
},
{
closed = 1;
nodes = (
"511 548 OFFCURVE",
"550 581 OFFCURVE",
"556 621 CURVE SMOOTH",
"562 662 OFFCURVE",
"531 695 OFFCURVE",
"488 695 CURVE SMOOTH",
"446 695 OFFCURVE",
"408 662 OFFCURVE",
"402 621 CURVE SMOOTH",
"396 581 OFFCURVE",
"426 548 OFFCURVE",
"468 548 CURVE SMOOTH"
);
}
);
};
layerId = "8A3706BD-364F-4FE3-9C2E-7E87DF0DB4CC";
paths = (
{
closed = 1;
nodes = (
"213 -5 OFFCURVE",
"260 9 OFFCURVE",
"260 9 CURVE",
"273 101 LINE",
"273 101 OFFCURVE",
"241 98 OFFCURVE",
"225 98 CURVE SMOOTH",
"193 98 OFFCURVE",
"191 122 OFFCURVE",
"194 142 CURVE SMOOTH",
"231 405 LINE",
"370 405 LINE",
"314 0 LINE",
"470 0 LINE",
"539 495 LINE",
"244 495 LINE",
"257 585 LINE",
"136 585 LINE",
"102 495 LINE",
"36 472 LINE",
"26 405 LINE",
"75 405 LINE",
"35 115 LINE SMOOTH",
"20 3 OFFCURVE",
"103 -5 OFFCURVE",
"168 -5 CURVE SMOOTH"
);
},
{
closed = 1;
nodes = (
"511 548 OFFCURVE",
"550 581 OFFCURVE",
"556 621 CURVE SMOOTH",
"562 662 OFFCURVE",
"531 695 OFFCURVE",
"488 695 CURVE SMOOTH",
"446 695 OFFCURVE",
"408 662 OFFCURVE",
"402 621 CURVE SMOOTH",
"396 581 OFFCURVE",
"426 548 OFFCURVE",
"468 548 CURVE SMOOTH"
);
}
);
width = 530;
},
{
anchors = (
{
name = caret_1;
position = "{209, 0}";
}
);
layerId = "D84909E6-9227-4984-810E-91F1FC034344";
paths = (
{
closed = 1;
nodes = (
"122 0 OFFCURVE",
"146 2 OFFCURVE",
"161 4 CURVE",
"163 23 LINE",
"150 22 OFFCURVE",
"127 20 OFFCURVE",
"108 20 CURVE SMOOTH",
"59 20 OFFCURVE",
"50 50 OFFCURVE",
"56 94 CURVE SMOOTH",
"110 476 LINE",
"331 476 LINE",
"265 0 LINE",
"288 0 LINE",
"358 495 LINE",
"113 495 LINE",
"126 589 LINE",
"111 589 LINE",
"90 495 LINE",
"48 488 LINE",
"45 476 LINE",
"87 476 LINE",
"33 90 LINE SMOOTH",
"25 32 OFFCURVE",
"41 0 OFFCURVE",
"96 0 CURVE SMOOTH"
);
},
{
closed = 1;
nodes = (
"377 617 OFFCURVE",
"388 626 OFFCURVE",
"390 637 CURVE SMOOTH",
"391 646 OFFCURVE",
"383 655 OFFCURVE",
"372 655 CURVE SMOOTH",
"360 655 OFFCURVE",
"350 646 OFFCURVE",
"349 637 CURVE SMOOTH",
"347 626 OFFCURVE",
"354 617 OFFCURVE",
"366 617 CURVE SMOOTH"
);
}
);
width = 398;
}
);
leftMetricsKey = t;
rightMetricsKey = i;
},
{
color = 4;
glyphname = "Be-cy";
lastChange = "2021-05-19 22:43:31 +0000";
layers = (
{
background = {
paths = (
{
closed = 1;
nodes = (
"200 0 LINE SMOOTH",
"276 0 OFFCURVE",
"338 10 OFFCURVE",
"359 161 CURVE SMOOTH",
"382 324 LINE SMOOTH",
"396 423 OFFCURVE",
"336 436 OFFCURVE",
"287 436 CURVE SMOOTH",
"208 436 LINE",
"214 480 LINE",
"369 480 LINE",
"385 591 LINE",
"74 591 LINE",
"-10 0 LINE"
);
},
{
closed = 1;
nodes = (
"171 177 OFFCURVE",
"181 244 OFFCURVE",
"190 311 CURVE SMOOTH",
"193 334 OFFCURVE",
"200 341 OFFCURVE",
"211 341 CURVE SMOOTH",
"222 341 OFFCURVE",
"227 334 OFFCURVE",
"224 311 CURVE SMOOTH",
"215 244 OFFCURVE",
"205 177 OFFCURVE",
"196 110 CURVE SMOOTH",
"193 87 OFFCURVE",
"186 80 OFFCURVE",
"175 80 CURVE SMOOTH",
"164 80 OFFCURVE",
"159 87 OFFCURVE",
"162 110 CURVE SMOOTH"
);
}
);
};
layerId = "8A3706BD-364F-4FE3-9C2E-7E87DF0DB4CC";
paths = (
{
closed = 1;
nodes = (
"200 0 LINE SMOOTH",
"276 0 OFFCURVE",
"338 10 OFFCURVE",
"359 161 CURVE SMOOTH",
"382 324 LINE SMOOTH",
"396 423 OFFCURVE",
"336 436 OFFCURVE",
"287 436 CURVE SMOOTH",
"208 436 LINE",
"214 480 LINE",
"369 480 LINE",
"385 591 LINE",
"74 591 LINE",
"-10 0 LINE"
);
},
{
closed = 1;
nodes = (
"158 80 LINE",
"194 341 LINE",
"211 341 LINE",
"222 341 OFFCURVE",
"227 334 OFFCURVE",
"224 311 CURVE SMOOTH",
"196 110 LINE SMOOTH",
"193 87 OFFCURVE",
"186 80 OFFCURVE",
"175 80 CURVE"
);
}
);
width = 391;
},
{
hints = (
{
horizontal = 1;
place = "{-40.765, -25.235}";
type = Stem;
},
{
horizontal = 1;
place = "{365.912, -25.235}";
type = Stem;
},
{
horizontal = 1;
place = "{516.353, -24.265}";
type = Stem;
},
{
place = "{7.765, -21.353}";
type = Stem;
},
{
place = "{232.941, -21.353}";
type = Stem;
}
);
layerId = "D84909E6-9227-4984-810E-91F1FC034344";
paths = (
{
closed = 1;
nodes = (
"177 0 LINE SMOOTH",
"271 0 OFFCURVE",
"305 48 OFFCURVE",
"318 141 CURVE SMOOTH",
"341 304 LINE SMOOTH",
"353 387 OFFCURVE",
"335 435 OFFCURVE",
"237 435 CURVE SMOOTH",
"129 435 LINE",
"148 571 LINE",
"371 571 LINE",
"374 591 LINE",
"127 591 LINE",
"43 0 LINE"
);
},
{
closed = 1;
nodes = (
"71 18 LINE",
"126 417 LINE",
"231 417 LINE",
"324 417 OFFCURVE",
"325 357 OFFCURVE",
"316 297 CURVE SMOOTH",
"294 141 LINE SMOOTH",
"285 73 OFFCURVE",
"264 18 OFFCURVE",
"178 18 CURVE"
);
}
);
width = 382;
}
);
leftMetricsKey = H;
note = uni0411;
rightMetricsKey = o;
unicode = 0411;
},
{
glyphname = "Ge-cy";
lastChange = "2021-05-19 22:43:31 +0000";
layers = (
{
background = {
paths = (
{
closed = 1;
nodes = (
"149 0 LINE",
"217 480 LINE",
"337 480 LINE",
"353 591 LINE",
"67 591 LINE",
"-17 0 LINE"
);
}
);
};
layerId = "8A3706BD-364F-4FE3-9C2E-7E87DF0DB4CC";
paths = (
{
closed = 1;
nodes = (
"149 0 LINE",
"217 480 LINE",
"337 480 LINE",
"353 591 LINE",
"67 591 LINE",
"-17 0 LINE"
);
}
);
width = 321;
},
{
hints = (
{
horizontal = 1;
place = "{-40.765, 21}";
target = up;
type = BottomGhost;
},
{
horizontal = 1;
place = "{516.353, -24.265}";
type = Stem;
},
{
place = "{7.765, -21.353}";
type = Stem;
}
);
layerId = "D84909E6-9227-4984-810E-91F1FC034344";
paths = (
{
closed = 1;
nodes = (
"32 0 LINE",
"112 571 LINE",
"333 571 LINE",
"337 591 LINE",
"91 591 LINE",
"7 0 LINE"
);
}
);
width = 314;
}
);
note = uni0413;
unicode = 0413;
},
{
glyphname = "Gje-cy";
lastChange = "2021-05-19 22:43:31 +0000";
layers = (
{
background = {
paths = (
{
closed = 1;
nodes = (
"55 591 LINE",
"-28 0 LINE",
"138 0 LINE",
"206 480 LINE",
"326 480 LINE",
"341 591 LINE"
);
},
{
closed = 1;
nodes = (
"346 750 LINE",
"216 750 LINE",
"110 646 LINE",
"208 646 LINE"
);
}
);
};
layerId = "8A3706BD-364F-4FE3-9C2E-7E87DF0DB4CC";
paths = (
{
closed = 1;
nodes = (
"138 0 LINE",
"206 480 LINE",
"326 480 LINE",
"341 591 LINE",
"55 591 LINE",
"-28 0 LINE"
);
},
{
closed = 1;
nodes = (
"208 646 LINE",
"346 750 LINE",
"216 750 LINE",
"110 646 LINE"
);
}
);
width = 326;
},
{
hints = (
{
horizontal = 1;
place = "{-50.471, 21}";
target = up;
type = BottomGhost;
},
{
horizontal = 1;
place = "{506.647, -33.971}";
type = Stem;
},
{
place = "{-1.941, -31.059}";
type = Stem;
}
);
layerId = "D84909E6-9227-4984-810E-91F1FC034344";
paths = (
{
closed = 1;
nodes = (
"22 0 LINE",
"102 571 LINE",
"317 571 LINE",
"320 591 LINE",
"80 591 LINE",
"-3 0 LINE"
);
},
{
closed = 1;
nodes = (
"184 644 LINE",
"288 736 LINE",
"251 736 LINE",
"164 644 LINE"
);
}
);
width = 338;
}
);
note = uni0403;
unicode = 0403;
},
{
color = 4;
glyphname = "De-cy";
lastChange = "2021-05-19 22:43:31 +0000";
layers = (
{
background = {
paths = (
{
closed = 1;
nodes = (
"-30 -119 LINE",
"99 -119 LINE",
"111 -32 LINE",
"453 -32 LINE",
"441 -119 LINE",
"570 -119 LINE",
"601 100 LINE",
"492 100 LINE",
"561 591 LINE",
"222 591 LINE",
"213 530 OFFCURVE",
"156 289 OFFCURVE",
"123 177 CURVE SMOOTH",
"112 140 OFFCURVE",
"81 103 OFFCURVE",
"58 100 CURVE",
"36 100 OFFCURVE",
"23 100 OFFCURVE",
"1 100 CURVE"
);
},
{
closed = 1;
nodes = (
"262 111 OFFCURVE",
"279 155 OFFCURVE",
"288 194 CURVE SMOOTH",
"310 289 OFFCURVE",
"332 385 OFFCURVE",
"354 480 CURVE",
"389 480 LINE",
"336 100 LINE",
"241 100 LINE"
);
}
);
};
layerId = "8A3706BD-364F-4FE3-9C2E-7E87DF0DB4CC";
paths = (
{
closed = 1;
nodes = (
"99 -119 LINE",
"111 -32 LINE",
"453 -32 LINE",
"441 -119 LINE",
"570 -119 LINE",
"601 100 LINE",
"492 100 LINE",
"561 591 LINE",
"222 591 LINE",
"213 530 OFFCURVE",
"156 289 OFFCURVE",
"123 177 CURVE SMOOTH",
"112 140 OFFCURVE",
"81 103 OFFCURVE",
"58 100 CURVE",
"1 100 LINE",
"-30 -119 LINE"
);
},
{
closed = 1;
nodes = (
"262 111 OFFCURVE",
"279 155 OFFCURVE",
"288 194 CURVE SMOOTH",
"354 480 LINE",
"389 480 LINE",
"336 100 LINE",
"241 100 LINE"
);
}
);
width = 640;
},
{
hints = (
{
horizontal = 1;
place = "{-33, -17.471}";
type = Stem;
},
{
horizontal = 1;
place = "{524.118, -16.5}";
type = Stem;
},
{
place = "{-23.294, -13.588}";
type = Stem;
},
{
place = "{106.765, -13.588}";
type = Stem;
},
{
place = "{286.324, -12.618}";
type = Stem;
},
{
place = "{363, -12.618}";
type = Stem;
}
);
layerId = "D84909E6-9227-4984-810E-91F1FC034344";
paths = (
{
closed = 1;
nodes = (
"14 -102 LINE",
"29 -1 LINE",
"425 -1 LINE",
"410 -102 LINE",
"434 -102 LINE",
"452 18 LINE",
"372 18 LINE",
"452 591 LINE",
"223 591 LINE",
"190 433 OFFCURVE",
"156 270 OFFCURVE",
"122 110 CURVE SMOOTH",
"107 41 OFFCURVE",
"86 21 OFFCURVE",
"53 18 CURVE",
"8 18 LINE",
"-10 -102 LINE"
);
},
{
closed = 1;
nodes = (
"133 40 OFFCURVE",
"141 85 OFFCURVE",
"149 116 CURVE SMOOTH",
"243 571 LINE",
"424 571 LINE",
"347 18 LINE",
"108 18 LINE"
);
}
);
width = 523;
}
);
note = uni0414;
unicode = 0414;
},
{
glyphname = "Zhe-cy";
lastChange = "2021-05-19 22:43:31 +0000";
layers = (
{
background = {
paths = (
{
closed = 1;
nodes = (
"145 0 LINE",
"241 265 LINE",
"264 265 LINE",
"226 0 LINE",
"385 0 LINE",
"423 265 LINE",
"450 265 LINE",
"470 0 LINE",
"647 0 LINE",
"589 307 LINE",
"729 591 LINE",
"546 591 LINE",
"462 350 LINE",
"435 350 LINE",
"469 591 LINE",
"310 591 LINE",
"276 350 LINE",
"253 350 LINE",
"237 591 LINE",
"54 591 LINE",
"114 307 LINE",
"-32 0 LINE"
);
}
);
};
layerId = "8A3706BD-364F-4FE3-9C2E-7E87DF0DB4CC";
paths = (
{
closed = 1;
nodes = (
"145 0 LINE",
"241 265 LINE",
"264 265 LINE",
"226 0 LINE",
"385 0 LINE",
"423 265 LINE",
"450 265 LINE",
"470 0 LINE",
"647 0 LINE",
"589 307 LINE",
"729 591 LINE",
"546 591 LINE",
"462 350 LINE",
"435 350 LINE",
"469 591 LINE",
"310 591 LINE",
"276 350 LINE",
"253 350 LINE",
"237 591 LINE",
"54 591 LINE",
"114 307 LINE",
"-32 0 LINE"
);
}
);
width = 699;
},
{
hints = (
{
horizontal = 1;
place = "{-40.765, 21}";
target = up;
type = BottomGhost;
},
{
horizontal = 1;
place = "{246.529, -24.265}";
type = Stem;
},
{
horizontal = 1;
place = "{532.853, -20}";
target = down;
type = TopGhost;
},
{
place = "{232.941, -20.382}";
type = Stem;
},
{
horizontal = 1;
place = "{531.882, -20}";
target = down;
type = TopGhost;
}
);
layerId = "D84909E6-9227-4984-810E-91F1FC034344";
paths = (
{
closed = 1;
nodes = (
"36 0 LINE",
"249 295 LINE",
"281 295 LINE",
"240 0 LINE",
"265 0 LINE",
"307 295 LINE",
"338 295 LINE",
"467 0 LINE",
"497 0 LINE",
"362 306 LINE",
"575 591 LINE",
"546 591 LINE",
"340 314 LINE",
"309 314 LINE",
"348 590 LINE",
"323 590 LINE",
"284 314 LINE",
"252 314 LINE",
"125 591 LINE",
"98 591 LINE",
"228 306 LINE",
"7 0 LINE"
);
}
);
width = 587;
}
);
note = uni0416;
unicode = 0416;
},
{
glyphname = "Ii-cy";
lastChange = "2021-05-19 22:43:31 +0000";
layers = (
{
background = {
paths = (
{
closed = 1;
nodes = (
"120 0 LINE",
"228 245 LINE",
"193 0 LINE",
"332 0 LINE",
"416 591 LINE",
"278 591 LINE",
"167 316 LINE",
"206 591 LINE",
"67 591 LINE",
"-17 0 LINE"
);
}
);
};
layerId = "8A3706BD-364F-4FE3-9C2E-7E87DF0DB4CC";
paths = (
{
closed = 1;
nodes = (
"120 0 LINE",
"228 245 LINE",
"193 0 LINE",
"332 0 LINE",
"416 591 LINE",
"278 591 LINE",
"167 316 LINE",
"206 591 LINE",
"67 591 LINE",
"-17 0 LINE"
);
}
);
width = 399;
},
{
hints = (
{
horizontal = 1;
place = "{-40.765, 21}";
target = up;
type = BottomGhost;
},
{
horizontal = 1;
place = "{532.853, -20}";
target = down;
type = TopGhost;
},
{
place = "{7.765, -21.353}";
type = Stem;
},
{
place = "{256.235, -20.382}";
type = Stem;
},
{
horizontal = 1;
place = "{-40.765, 2.912}";
type = Stem;
}
);
layerId = "D84909E6-9227-4984-810E-91F1FC034344";
paths = (
{
closed = 1;
nodes = (
"34 0 LINE",
"337 527 LINE",
"262 0 LINE",
"286 0 LINE",
"370 591 LINE",
"346 591 LINE",
"39 53 LINE",
"115 591 LINE",
"91 591 LINE",
"7 0 LINE"
);
}
);
width = 378;
}
);
note = uni0418;
unicode = 0418;
},
{
glyphname = "Iigrave-cy";
lastChange = "2021-05-19 22:43:31 +0000";
layers = (
{
background = {
components = (
{
name = breve;
transform = "{1, 0, 0.14054, 1, -41, 23}";
}
);
paths = (
{
closed = 1;
nodes = (
"105 0 LINE",
"145 85 OFFCURVE",
"184 170 OFFCURVE",
"224 255 CURVE",
"188 0 LINE",
"324 0 LINE",
"393 495 LINE",
"258 495 LINE",
"156 278 LINE",
"186 495 LINE",
"50 495 LINE",
"-19 0 LINE"
);
}
);
};
components = (
{
name = breve;
transform = "{1, 0, 0.14054, 1, -41, 23}";
}
);
layerId = "8A3706BD-364F-4FE3-9C2E-7E87DF0DB4CC";
paths = (
{
closed = 1;
nodes = (
"105 0 LINE",
"145 85 OFFCURVE",
"184 170 OFFCURVE",
"224 255 CURVE",
"188 0 LINE",
"324 0 LINE",
"393 495 LINE",
"258 495 LINE",
"156 278 LINE",
"186 495 LINE",
"50 495 LINE",
"-19 0 LINE"
);
}
);
width = 393;
},
{
components = (
{
alignment = -1;
name = breve;
transform = "{1, 0, 0.14054, 1, -6, 1}";
}
);
hints = (
{
horizontal = 1;
place = "{-42.706, 21}";
target = up;
type = BottomGhost;
},
{
horizontal = 1;
place = "{436.765, -20}";
target = down;
type = TopGhost;
},
{
horizontal = 1;
place = "{513.441, -30.088}";
type = Stem;
},
{
place = "{5.824, -23.294}";
type = Stem;
},
{
place = "{228.088, -23.294}";
type = Stem;
},
{
horizontal = 1;
place = "{-42.706, -3.882}";
type = Stem;
},
{
horizontal = 1;
place = "{399.882, -5.824}";
type = Stem;
},
{
place = "{36.882, -27.176}";
type = Stem;
},
{
place = "{199.941, -28.147}";
type = Stem;
}
);
layerId = "D84909E6-9227-4984-810E-91F1FC034344";
paths = (
{
closed = 1;
nodes = (
"29 0 LINE",
"120 151 OFFCURVE",
"207 299 OFFCURVE",
"297 450 CURVE",
"234 0 LINE",
"257 0 LINE",
"326 494 LINE",
"301 494 LINE",
"35 47 LINE",
"98 494 LINE",
"74 494 LINE",
"5 0 LINE"
);
}
);
width = 350;
}
);
leftKerningGroup = uni0431;
note = uni0439;
unicode = 040D;
},
{
glyphname = "Ka-cy";
lastChange = "2021-05-19 22:43:31 +0000";
layers = (
{
background = {
paths = (
{
closed = 1;
nodes = (
"142 0 LINE",
"176 240 LINE",
"220 240 LINE",
"250 0 LINE",
"421 0 LINE",
"367 307 LINE",
"503 591 LINE",
"334 591 LINE",
"229 344 LINE",
"191 344 LINE",
"226 591 LINE",
"67 591 LINE",
"-17 0 LINE"
);
}
);
};
layerId = "8A3706BD-364F-4FE3-9C2E-7E87DF0DB4CC";
paths = (
{
closed = 1;
nodes = (
"142 0 LINE",
"176 240 LINE",
"220 240 LINE",
"250 0 LINE",
"421 0 LINE",
"367 307 LINE",
"503 591 LINE",
"334 591 LINE",
"229 344 LINE",
"191 344 LINE",
"226 591 LINE",
"67 591 LINE",
"-17 0 LINE"
);
}
);
width = 468;
},
{
hints = (
{
horizontal = 1;
place = "{-40.765, 21}";
target = up;
type = BottomGhost;
},
{
horizontal = 1;
place = "{246.529, -24.265}";
type = Stem;
},
{
horizontal = 1;
place = "{532.853, -20}";
target = down;
type = TopGhost;
},
{
place = "{7.765, -21.353}";
type = Stem;
}
);
layerId = "D84909E6-9227-4984-810E-91F1FC034344";
paths = (
{
closed = 1;
nodes = (
"31 0 LINE",
"73 294 LINE",
"112 294 LINE",
"239 0 LINE",
"270 0 LINE",
"136 306 LINE",
"348 591 LINE",
"319 591 LINE",
"113 314 LINE",
"76 314 LINE",
"115 591 LINE",
"91 591 LINE",
"7 0 LINE"
);
}
);
width = 341;
}
);
note = uni041A;
unicode = 041A;
},
{
glyphname = "Kje-cy";
lastChange = "2021-05-19 22:43:31 +0000";
layers = (
{
background = {
paths = (
{
closed = 1;
nodes = (
"133 0 LINE",
"167 240 LINE",
"211 240 LINE",
"241 0 LINE",
"412 0 LINE",
"357 307 LINE",
"493 591 LINE",
"324 591 LINE",
"219 344 LINE",
"181 344 LINE",
"216 591 LINE",
"57 591 LINE",
"-26 0 LINE"
);
},
{
closed = 1;
nodes = (
"286 624 LINE",
"423 728 LINE",
"267 728 LINE",
"188 624 LINE"
);
}
);
};
layerId = "8A3706BD-364F-4FE3-9C2E-7E87DF0DB4CC";
paths = (
{
closed = 1;
nodes = (
"133 0 LINE",
"167 240 LINE",
"211 240 LINE",
"241 0 LINE",
"412 0 LINE",
"357 307 LINE",
"493 591 LINE",
"324 591 LINE",
"219 344 LINE",
"181 344 LINE",
"216 591 LINE",
"57 591 LINE",
"-26 0 LINE"
);
},
{
closed = 1;
nodes = (
"286 624 LINE",
"423 728 LINE",
"267 728 LINE",
"188 624 LINE"
);
}
);
width = 468;
},
{
hints = (
{
horizontal = 1;
place = "{-48.529, 21}";
target = up;
type = BottomGhost;
},
{
horizontal = 1;
place = "{525.088, -20}";
target = down;
type = TopGhost;
},
{
place = "{0, -29.118}";
type = Stem;
},
{
horizontal = 1;
place = "{564.882, 34.941}";
type = Stem;
},
{
place = "{78.618, 62.118}";
type = Stem;
}
);
layerId = "D84909E6-9227-4984-810E-91F1FC034344";
paths = (
{
closed = 1;
nodes = (
"23 0 LINE",
"65 294 LINE",
"104 294 LINE",
"231 0 LINE",
"262 0 LINE",
"128 306 LINE",
"339 591 LINE",
"310 591 LINE",
"104 314 LINE",
"67 314 LINE",
"106 591 LINE",
"82 591 LINE",
"-1 0 LINE"
);
},
{
closed = 1;
nodes = (
"187 632 LINE",
"266 709 LINE",
"234 709 LINE",
"171 632 LINE"
);
}
);
width = 353;
}
);
note = uni040C;
unicode = 040C;
},
{
glyphname = "El-cy";
lastChange = "2021-05-19 22:43:31 +0000";
layers = (
{
background = {
paths = (
{
closed = 1;
nodes = (
"67 0 LINE SMOOTH",
"178 0 OFFCURVE",
"182 61 OFFCURVE",
"195 116 CURVE SMOOTH",
"275 480 LINE",
"308 480 LINE",
"240 0 LINE",
"399 0 LINE",
"483 591 LINE",
"135 591 LINE",
"41 156 LINE SMOOTH",
"33 118 OFFCURVE",
"-1 79 OFFCURVE",
"-25 79 CURVE",
"-37 0 LINE"
);
}
);
};
layerId = "8A3706BD-364F-4FE3-9C2E-7E87DF0DB4CC";
paths = (
{
closed = 1;
nodes = (
"67 0 LINE SMOOTH",
"178 0 OFFCURVE",
"182 61 OFFCURVE",
"195 116 CURVE SMOOTH",
"275 480 LINE",
"308 480 LINE",
"240 0 LINE",
"399 0 LINE",
"483 591 LINE",
"135 591 LINE",
"41 156 LINE SMOOTH",
"33 118 OFFCURVE",
"-1 79 OFFCURVE",
"-25 79 CURVE",
"-37 0 LINE"
);
}
);
width = 466;
},
{
hints = (
{
horizontal = 1;
place = "{-40.765, -25.235}";
type = Stem;
},
{
horizontal = 1;
place = "{516.353, -24.265}";
type = Stem;
},
{
place = "{46.588, -21.353}";
type = Stem;
},
{
place = "{226.147, -20.382}";
type = Stem;
}
);
layerId = "D84909E6-9227-4984-810E-91F1FC034344";
paths = (
{
closed = 1;
nodes = (
"-12 0 LINE SMOOTH",
"37 6 OFFCURVE",
"54 56 OFFCURVE",
"60 83 CURVE SMOOTH",
"162 571 LINE",
"369 571 LINE",
"289 0 LINE",
"314 0 LINE",
"398 591 LINE",
"142 591 LINE",
"38 92 LINE SMOOTH",
"26 37 OFFCURVE",
"8 18 OFFCURVE",
"-19 18 CURVE",
"-22 0 LINE"
);
}
);
width = 405;
}
);
note = uni041B;
unicode = 041B;
},
{
glyphname = "Pe-cy";
lastChange = "2021-05-19 22:43:31 +0000";
layers = (
{
background = {
paths = (
{
closed = 1;
nodes = (
"432 591 LINE",
"67 591 LINE",
"-17 0 LINE",
"149 0 LINE",
"217 480 LINE",
"250 480 LINE",
"182 0 LINE",
"348 0 LINE"
);
}
);
};
layerId = "8A3706BD-364F-4FE3-9C2E-7E87DF0DB4CC";
paths = (
{
closed = 1;
nodes = (
"149 0 LINE",
"217 480 LINE",
"250 480 LINE",
"182 0 LINE",
"348 0 LINE",
"432 591 LINE",
"67 591 LINE",
"-17 0 LINE"
);
}
);
width = 415;
},
{
hints = (
{
horizontal = 1;
place = "{-40.765, 21}";
target = up;
type = BottomGhost;
},
{
horizontal = 1;
place = "{516.353, -24.265}";
type = Stem;
},
{
place = "{7.765, -20.382}";
type = Stem;
},
{
place = "{234.882, -20.382}";
type = Stem;
}
);
layerId = "D84909E6-9227-4984-810E-91F1FC034344";
paths = (
{
closed = 1;
nodes = (
"33 0 LINE",
"113 571 LINE",
"321 571 LINE",
"240 0 LINE",
"266 0 LINE",
"350 591 LINE",
"91 591 LINE",
"7 0 LINE"
);
}
);
width = 357;
}
);
note = uni041F;
unicode = 041F;
},
{
color = 4;
glyphname = "U-cy";
lastChange = "2021-05-19 22:43:31 +0000";
layers = (
{
background = {
paths = (
{
closed = 1;
nodes = (
"-2 -12 OFFCURVE",
"46 -20 OFFCURVE",
"92 -20 CURVE",
"188 -20 OFFCURVE",
"243 29 OFFCURVE",
"285 158 CURVE",
"432 591 LINE",
"284 591 LINE",
"202 273 LINE",
"198 250 LINE",
"199 258 OFFCURVE",
"199 265 OFFCURVE",
"200 273 CURVE",
"209 591 LINE",
"48 591 LINE",
"76 112 LINE",
"78 69 OFFCURVE",
"48 69 OFFCURVE",
"24 69 CURVE",
"11 69 OFFCURVE",
"-15 75 OFFCURVE",
"-15 75 CURVE",
"-26 -5 LINE"
);
}
);
};
layerId = "8A3706BD-364F-4FE3-9C2E-7E87DF0DB4CC";
paths = (
{
closed = 1;
nodes = (
"188 -20 OFFCURVE",
"241 29 OFFCURVE",
"285 158 CURVE SMOOTH",
"432 591 LINE",
"284 591 LINE",
"199 248 LINE",
"197 248 LINE",
"209 591 LINE",
"48 591 LINE",
"73 144 LINE SMOOTH",
"74 123 OFFCURVE",
"77 112 OFFCURVE",
"75 99 CURVE SMOOTH",
"71 69 OFFCURVE",
"45 69 OFFCURVE",
"24 69 CURVE SMOOTH",
"11 69 OFFCURVE",
"-4 71 OFFCURVE",
"-15 75 CURVE",
"-26 -5 LINE",
"-2 -12 OFFCURVE",
"46 -20 OFFCURVE",
"92 -20 CURVE SMOOTH"
);
}
);
width = 394;
},
{
hints = (
{
horizontal = 1;
place = "{-42.706, -24.265}";
type = Stem;
},
{
horizontal = 1;
place = "{533.824, -20}";
target = down;
type = TopGhost;
},
{
place = "{-30.088, 217.412}";
type = Stem;
},
{
horizontal = 1;
place = "{-39.794, 21}";
target = up;
type = BottomGhost;
}
);
layerId = "D84909E6-9227-4984-810E-91F1FC034344";
paths = (
{
closed = 1;
nodes = (
"74 -4 OFFCURVE",
"105 28 OFFCURVE",
"138 114 CURVE SMOOTH",
"320 591 LINE",
"296 591 LINE",
"119 130 LINE",
"121 130 LINE",
"78 591 LINE",
"52 591 LINE",
"101 95 LINE SMOOTH",
"92 70 OFFCURVE",
"81 51 OFFCURVE",
"67 38 CURVE SMOOTH",
"48 20 OFFCURVE",
"28 15 OFFCURVE",
"11 15 CURVE SMOOTH",
"-2 15 OFFCURVE",
"-12 17 OFFCURVE",
"-19 18 CURVE",
"-21 0 LINE",
"-12 -1 OFFCURVE",
"-2 -4 OFFCURVE",
"12 -4 CURVE SMOOTH"
);
}
);
width = 288;
}
);
note = uni0423;
unicode = 0423;
},
{
color = 4;
glyphname = "Ef-cy";
lastChange = "2021-05-19 22:43:31 +0000";
layers = (
{
background = {
paths = (
{
closed = 1;
nodes = (
"327 -39 LINE",
"343 76 LINE",
"385 76 LINE SMOOTH",
"478 76 OFFCURVE",
"538 106 OFFCURVE",
"551 201 CURVE SMOOTH",
"580 402 LINE SMOOTH",
"588 462 OFFCURVE",
"557 503 OFFCURVE",
"469 503 CURVE SMOOTH",
"403 503 LINE",
"415 591 LINE",
"259 591 LINE",
"247 503 LINE",
"181 503 LINE SMOOTH",
"93 503 OFFCURVE",
"50 462 OFFCURVE",
"42 402 CURVE SMOOTH",
"13 201 LINE SMOOTH",
"0 106 OFFCURVE",
"52 76 OFFCURVE",
"145 76 CURVE SMOOTH",
"187 76 LINE",
"171 -39 LINE"
);
},
{
closed = 1;
nodes = (
"172 156 OFFCURVE",
"167 163 OFFCURVE",
"170 186 CURVE SMOOTH",
"180 252 OFFCURVE",
"189 319 OFFCURVE",
"198 385 CURVE SMOOTH",
"202 408 OFFCURVE",
"209 415 OFFCURVE",
"220 415 CURVE SMOOTH",
"225 415 OFFCURVE",
"230 415 OFFCURVE",
"235 415 CURVE",
"222 329 OFFCURVE",
"210 242 OFFCURVE",
"198 156 CURVE",
"193 156 OFFCURVE",
"188 156 OFFCURVE",
"183 156 CURVE SMOOTH"
);
},
{
closed = 1;
nodes = (
"366 242 OFFCURVE",
"378 329 OFFCURVE",
"391 415 CURVE",
"396 415 OFFCURVE",
"401 415 OFFCURVE",
"406 415 CURVE SMOOTH",
"417 415 OFFCURVE",
"422 408 OFFCURVE",
"418 385 CURVE SMOOTH",
"409 319 OFFCURVE",
"400 252 OFFCURVE",
"390 186 CURVE SMOOTH",
"387 163 OFFCURVE",
"380 156 OFFCURVE",
"369 156 CURVE SMOOTH",
"364 156 OFFCURVE",
"359 156 OFFCURVE",
"354 156 CURVE"
);
}
);
};
layerId = "8A3706BD-364F-4FE3-9C2E-7E87DF0DB4CC";
paths = (
{
closed = 1;
nodes = (
"327 -39 LINE",
"343 76 LINE",
"385 76 LINE SMOOTH",
"478 76 OFFCURVE",
"538 106 OFFCURVE",
"551 201 CURVE SMOOTH",
"580 402 LINE SMOOTH",
"588 462 OFFCURVE",
"557 503 OFFCURVE",
"469 503 CURVE SMOOTH",
"403 503 LINE",
"415 591 LINE",
"259 591 LINE",
"247 503 LINE",
"181 503 LINE SMOOTH",
"93 503 OFFCURVE",
"50 462 OFFCURVE",
"42 402 CURVE SMOOTH",
"13 201 LINE SMOOTH",
"0 106 OFFCURVE",
"52 76 OFFCURVE",
"145 76 CURVE SMOOTH",
"187 76 LINE",
"171 -39 LINE"
);
},
{
closed = 1;
nodes = (
"172 156 OFFCURVE",
"167 163 OFFCURVE",
"170 186 CURVE SMOOTH",
"198 385 LINE SMOOTH",
"202 408 OFFCURVE",
"209 415 OFFCURVE",
"220 415 CURVE SMOOTH",
"235 415 LINE",
"198 156 LINE",
"183 156 LINE SMOOTH"
);
},
{
closed = 1;
nodes = (
"354 156 LINE",
"391 415 LINE",
"406 415 LINE SMOOTH",
"417 415 OFFCURVE",
"422 408 OFFCURVE",
"418 385 CURVE SMOOTH",
"390 186 LINE SMOOTH",
"387 163 OFFCURVE",
"380 156 OFFCURVE",
"369 156 CURVE SMOOTH"
);
}
);
width = 578;
},
{
hints = (
{
horizontal = 1;
place = "{16.5, -24.265}";
type = Stem;
},
{
horizontal = 1;
place = "{461.029, -25.235}";
type = Stem;
},
{
place = "{7.765, -20.382}";
type = Stem;
},
{
place = "{160.147, -20.382}";
type = Stem;
},
{
place = "{312.529, -21.353}";
type = Stem;
},
{
horizontal = 1;
place = "{461.029, 31.059}";
type = Stem;
},
{
horizontal = 1;
place = "{-40.765, 33}";
type = Stem;
}
);
layerId = "D84909E6-9227-4984-810E-91F1FC034344";
paths = (
{
closed = 1;
nodes = (
"197 -1 LINE",
"206 60 LINE",
"218 60 LINE SMOOTH",
"316 60 OFFCURVE",
"368 93 OFFCURVE",
"383 202 CURVE SMOOTH",
"409 390 LINE SMOOTH",
"424 497 OFFCURVE",
"381 532 OFFCURVE",
"285 532 CURVE SMOOTH",
"272 532 LINE",
"281 591 LINE",
"256 591 LINE",
"247 532 LINE",
"230 532 LINE SMOOTH",
"134 532 OFFCURVE",
"83 489 OFFCURVE",
"70 393 CURVE SMOOTH",
"42 199 LINE SMOOTH",
"29 102 OFFCURVE",
"68 60 OFFCURVE",
"164 60 CURVE SMOOTH",
"181 60 LINE",
"172 -1 LINE"
);
},
{
closed = 1;
nodes = (
"89 78 OFFCURVE",
"55 115 OFFCURVE",
"68 202 CURVE SMOOTH",
"94 390 LINE SMOOTH",
"107 476 OFFCURVE",
"151 514 OFFCURVE",
"229 514 CURVE SMOOTH",
"245 514 LINE",
"183 78 LINE",
"167 78 LINE SMOOTH"
);
},
{
closed = 1;
nodes = (
"208 78 LINE",
"270 514 LINE",
"281 514 LINE SMOOTH",
"359 514 OFFCURVE",
"399 483 OFFCURVE",
"385 388 CURVE SMOOTH",
"359 203 LINE SMOOTH",
"345 107 OFFCURVE",
"298 78 OFFCURVE",
"220 78 CURVE SMOOTH"
);
}
);
width = 438;
}
);
leftMetricsKey = o;
note = uni0424;
rightMetricsKey = o;
unicode = 0424;
},
{
glyphname = "Che-cy";
lastChange = "2021-05-19 22:43:31 +0000";
layers = (
{
background = {
paths = (
{
closed = 1;
nodes = (
"327 0 LINE",
"411 591 LINE",
"252 591 LINE",
"202 241 LINE",
"198 238 OFFCURVE",
"190 238 OFFCURVE",
"185 238 CURVE SMOOTH",
"174 238 OFFCURVE",
"169 247 OFFCURVE",
"172 266 CURVE SMOOTH",
"218 591 LINE",
"62 591 LINE",
"16 265 LINE SMOOTH",
"3 178 OFFCURVE",
"19 134 OFFCURVE",
"107 134 CURVE SMOOTH",
"140 134 OFFCURVE",
"178 147 OFFCURVE",
"191 158 CURVE",
"168 0 LINE"
);
}
);
};
layerId = "8A3706BD-364F-4FE3-9C2E-7E87DF0DB4CC";
paths = (
{
closed = 1;
nodes = (
"327 0 LINE",
"411 591 LINE",
"252 591 LINE",
"202 241 LINE",
"198 238 OFFCURVE",
"190 238 OFFCURVE",
"185 238 CURVE SMOOTH",
"174 238 OFFCURVE",
"169 247 OFFCURVE",
"172 266 CURVE SMOOTH",
"218 591 LINE",
"62 591 LINE",
"16 265 LINE SMOOTH",
"3 178 OFFCURVE",
"19 134 OFFCURVE",
"107 134 CURVE SMOOTH",
"140 134 OFFCURVE",
"178 147 OFFCURVE",
"191 158 CURVE",
"168 0 LINE"
);
}
);
width = 394;
},
{
hints = (
{
horizontal = 1;
place = "{-40.765, 21}";
target = up;
type = BottomGhost;
},
{
horizontal = 1;
place = "{90.265, -23.294}";
type = Stem;
},
{
horizontal = 1;
place = "{532.853, -20}";
target = down;
type = TopGhost;
},
{
place = "{-16.5, -21.353}";
type = Stem;
},
{
place = "{207.706, -21.353}";
type = Stem;
}
);
layerId = "D84909E6-9227-4984-810E-91F1FC034344";
paths = (
{
closed = 1;
nodes = (
"261 0 LINE",
"345 591 LINE",
"321 591 LINE",
"264 193 LINE",
"252 183 OFFCURVE",
"221 156 OFFCURVE",
"154 156 CURVE SMOOTH",
"72 156 OFFCURVE",
"59 195 OFFCURVE",
"69 268 CURVE SMOOTH",
"115 591 LINE",
"91 591 LINE",
"45 270 LINE SMOOTH",
"35 195 OFFCURVE",
"38 135 OFFCURVE",
"149 135 CURVE SMOOTH",
"196 135 OFFCURVE",
"240 154 OFFCURVE",
"261 170 CURVE",
"237 0 LINE"
);
}
);
width = 352;
}
);
note = uni0427;
unicode = 0427;
},
{
glyphname = "Tse-cy";
lastChange = "2021-05-19 22:43:31 +0000";
layers = (
{
background = {
paths = (
{
closed = 1;
nodes = (
"430 -99 LINE",
"453 69 LINE",
"371 69 LINE",
"444 591 LINE",
"278 591 LINE",
"211 111 LINE",
"172 111 LINE",
"239 591 LINE",
"73 591 LINE",
"-10 0 LINE",
"319 0 LINE",
"306 -99 LINE"
);
}
);
};
layerId = "8A3706BD-364F-4FE3-9C2E-7E87DF0DB4CC";
paths = (
{
closed = 1;
nodes = (
"430 -99 LINE",
"453 69 LINE",
"371 69 LINE",
"444 591 LINE",
"278 591 LINE",
"211 111 LINE",
"172 111 LINE",
"239 591 LINE",
"73 591 LINE",
"-10 0 LINE",
"319 0 LINE",
"306 -99 LINE"
);
}
);
width = 493;
},
{
hints = (
{
horizontal = 1;
place = "{-34.941, -18.441}";
type = Stem;
},
{
horizontal = 1;
place = "{538.676, -20}";
target = down;
type = TopGhost;
},
{
place = "{13.588, -14.559}";
type = Stem;
},
{
place = "{240.706, -14.559}";
type = Stem;
}
);
layerId = "D84909E6-9227-4984-810E-91F1FC034344";
paths = (
{
closed = 1;
nodes = (
"275 -75 LINE",
"288 19 LINE",
"274 19 LINE",
"355 591 LINE",
"329 591 LINE",
"249 20 LINE",
"41 20 LINE",
"122 591 LINE",
"96 591 LINE",
"13 0 LINE",
"262 0 LINE",
"251 -75 LINE"
);
}
);
width = 371;
}
);
note = uni0426;
unicode = 0426;
},
{
glyphname = "Sha-cy";
lastChange = "2021-05-19 22:43:31 +0000";
layers = (
{
background = {
paths = (
{
closed = 1;
nodes = (
"559 0 LINE",
"643 591 LINE",
"477 591 LINE",
"409 111 LINE",
"370 111 LINE",
"438 591 LINE",
"272 591 LINE",
"204 111 LINE",
"165 111 LINE",
"233 591 LINE",
"67 591 LINE",
"-17 0 LINE"
);
}
);
};
layerId = "8A3706BD-364F-4FE3-9C2E-7E87DF0DB4CC";
paths = (
{
closed = 1;
nodes = (
"559 0 LINE",
"643 591 LINE",
"477 591 LINE",
"409 111 LINE",
"370 111 LINE",
"438 591 LINE",
"272 591 LINE",
"204 111 LINE",
"165 111 LINE",
"233 591 LINE",
"67 591 LINE",
"-17 0 LINE"
);
}
);
width = 626;
},
{
hints = (
{
horizontal = 1;
place = "{-40.765, -25.235}";
type = Stem;
},
{
horizontal = 1;
place = "{532.853, -20}";
target = down;
type = TopGhost;
},
{
place = "{7.765, -21.353}";
type = Stem;
},
{
place = "{231, -20.382}";
type = Stem;
},
{
place = "{455.206, -20.382}";
type = Stem;
}
);
layerId = "D84909E6-9227-4984-810E-91F1FC034344";
paths = (
{
closed = 1;
nodes = (
"492 0 LINE",
"576 591 LINE",
"551 591 LINE",
"470 19 LINE",
"265 19 LINE",
"346 591 LINE",
"321 591 LINE",
"240 19 LINE",
"35 19 LINE",
"116 591 LINE",
"91 591 LINE",
"7 0 LINE"
);
}
);
width = 583;
}
);
note = uni0428;
unicode = 0428;
},
{
glyphname = "Shcha-cy";
lastChange = "2021-05-19 22:43:31 +0000";
layers = (
{
background = {
paths = (
{
closed = 1;
nodes = (
"524 0 LINE",
"511 -99 LINE",
"635 -99 LINE",
"658 69 LINE",
"576 69 LINE",
"649 591 LINE",
"483 591 LINE",
"416 111 LINE",
"377 111 LINE",
"444 591 LINE",
"278 591 LINE",
"211 111 LINE",
"172 111 LINE",
"239 591 LINE",
"73 591 LINE",
"-10 0 LINE"
);
}
);
};
layerId = "8A3706BD-364F-4FE3-9C2E-7E87DF0DB4CC";
paths = (
{
closed = 1;
nodes = (
"635 -99 LINE",
"658 69 LINE",
"576 69 LINE",
"649 591 LINE",
"483 591 LINE",
"416 111 LINE",
"377 111 LINE",
"444 591 LINE",
"278 591 LINE",
"211 111 LINE",
"172 111 LINE",
"239 591 LINE",
"73 591 LINE",
"-10 0 LINE",
"524 0 LINE",
"511 -99 LINE"
);
}
);
width = 703;
},
{
hints = (
{
horizontal = 1;
place = "{-34.941, -19.412}";
type = Stem;
},
{
horizontal = 1;
place = "{538.676, -20}";
target = down;
type = TopGhost;
},
{
place = "{13.588, -15.529}";
type = Stem;
},
{
place = "{236.824, -14.559}";
type = Stem;
},
{
place = "{461.029, -14.559}";
type = Stem;
}
);
layerId = "D84909E6-9227-4984-810E-91F1FC034344";
paths = (
{
closed = 1;
nodes = (
"501 -75 LINE",
"514 18 LINE",
"500 18 LINE",
"581 591 LINE",
"556 591 LINE",
"475 19 LINE",
"270 19 LINE",
"351 591 LINE",
"326 591 LINE",
"245 19 LINE",
"40 19 LINE",
"121 591 LINE",
"96 591 LINE",
"13 0 LINE",
"488 0 LINE",
"477 -75 LINE"
);
}
);
width = 592;
}
);
note = uni0429;
unicode = 0429;
},
{
glyphname = "Dzhe-cy";
lastChange = "2021-05-19 22:43:31 +0000";
layers = (
{
background = {
paths = (
{
closed = 1;
nodes = (
"212 -99 LINE",
"225 0 LINE",
"361 0 LINE",
"444 591 LINE",
"278 591 LINE",
"211 111 LINE",
"172 111 LINE",
"239 591 LINE",
"73 591 LINE",
"-10 0 LINE",
"126 0 LINE",
"113 -99 LINE"
);
}
);
};
layerId = "8A3706BD-364F-4FE3-9C2E-7E87DF0DB4CC";
paths = (
{
closed = 1;
nodes = (
"212 -99 LINE",
"225 0 LINE",
"361 0 LINE",
"444 591 LINE",
"278 591 LINE",
"211 111 LINE",
"172 111 LINE",
"239 591 LINE",
"73 591 LINE",
"-10 0 LINE",
"126 0 LINE",
"113 -99 LINE"
);
}
);
width = 421;
},
{
hints = (
{
horizontal = 1;
place = "{-33.971, -18.441}";
type = Stem;
},
{
horizontal = 1;
place = "{539.647, -20}";
target = down;
type = TopGhost;
},
{
place = "{14.559, -14.559}";
type = Stem;
},
{
place = "{122.294, -14.559}";
type = Stem;
},
{
place = "{231.971, -14.559}";
type = Stem;
}
);
layerId = "D84909E6-9227-4984-810E-91F1FC034344";
paths = (
{
closed = 1;
nodes = (
"135 -99 LINE",
"148 0 LINE",
"262 0 LINE",
"345 591 LINE",
"321 591 LINE",
"241 19 LINE",
"42 19 LINE",
"122 591 LINE",
"97 591 LINE",
"14 0 LINE",
"126 0 LINE",
"113 -99 LINE"
);
}
);
width = 346;
}
);
note = uni040F;
unicode = 040F;
},
{
color = 4;
glyphname = "Softsign-cy";
lastChange = "2021-05-19 22:43:31 +0000";
layers = (
{
background = {
paths = (
{
closed = 1;
nodes = (
"200 0 LINE SMOOTH",
"276 0 OFFCURVE",
"338 10 OFFCURVE",
"359 161 CURVE SMOOTH",
"382 324 LINE SMOOTH",
"396 423 OFFCURVE",
"336 436 OFFCURVE",
"287 436 CURVE SMOOTH",
"208 436 LINE",
"230 591 LINE",
"74 591 LINE",
"-10 0 LINE"
);
},
{
closed = 1;
nodes = (
"170 164 OFFCURVE",
"183 257 OFFCURVE",
"194 341 CURVE",
"211 341 LINE SMOOTH",
"227 341 OFFCURVE",
"227 330 OFFCURVE",
"221 291 CURVE SMOOTH",
"217 258 OFFCURVE",
"208 199 OFFCURVE",
"204 166 CURVE SMOOTH",
"193 87 OFFCURVE",
"190 80 OFFCURVE",
"176 80 CURVE SMOOTH",
"170 80 OFFCURVE",
"164 80 OFFCURVE",
"158 80 CURVE"
);
}
);
};
layerId = "8A3706BD-364F-4FE3-9C2E-7E87DF0DB4CC";
paths = (
{
closed = 1;
nodes = (
"200 0 LINE SMOOTH",
"276 0 OFFCURVE",
"338 10 OFFCURVE",
"359 161 CURVE SMOOTH",
"382 324 LINE SMOOTH",
"396 423 OFFCURVE",
"336 436 OFFCURVE",
"287 436 CURVE SMOOTH",
"208 436 LINE",
"230 591 LINE",
"74 591 LINE",
"-10 0 LINE"
);
},
{
closed = 1;
nodes = (
"194 341 LINE",
"211 341 LINE SMOOTH",
"223 341 OFFCURVE",
"228 334 OFFCURVE",
"224 312 CURVE SMOOTH",
"198 119 LINE SMOOTH",
"194 89 OFFCURVE",
"189 80 OFFCURVE",
"175 80 CURVE SMOOTH",
"158 80 LINE"
);
}
);
width = 391;
},
{
hints = (
{
horizontal = 1;
place = "{-39.794, -24.265}";
type = Stem;
},
{
horizontal = 1;
place = "{366.882, -24.265}";
type = Stem;
},
{
place = "{8.735, -20.382}";
type = Stem;
},
{
place = "{233.912, -20.382}";
type = Stem;
}
);
layerId = "D84909E6-9227-4984-810E-91F1FC034344";
paths = (
{
closed = 1;
nodes = (
"163 0 LINE SMOOTH",
"258 0 OFFCURVE",
"290 48 OFFCURVE",
"304 141 CURVE SMOOTH",
"327 304 LINE SMOOTH",
"339 387 OFFCURVE",
"320 435 OFFCURVE",
"222 435 CURVE SMOOTH",
"115 435 LINE",
"136 589 LINE",
"112 589 LINE",
"30 0 LINE"
);
},
{
closed = 1;
nodes = (
"112 417 LINE",
"217 417 LINE SMOOTH",
"309 417 OFFCURVE",
"311 357 OFFCURVE",
"302 297 CURVE SMOOTH",
"281 141 LINE SMOOTH",
"268 54 OFFCURVE",
"236 18 OFFCURVE",
"163 18 CURVE SMOOTH",
"56 18 LINE"
);
}
);
width = 368;
}
);
leftMetricsKey = n;
note = uni042C;
rightMetricsKey = o;
unicode = 042C;
},
{
glyphname = "Hardsign-cy";
lastChange = "2021-05-19 22:43:31 +0000";
layers = (
{
background = {
paths = (
{
closed = 1;
nodes = (
"222 0 LINE SMOOTH",
"298 0 OFFCURVE",
"360 10 OFFCURVE",
"381 161 CURVE SMOOTH",
"404 324 LINE SMOOTH",
"418 423 OFFCURVE",
"358 436 OFFCURVE",
"309 436 CURVE SMOOTH",
"230 436 LINE",
"252 591 LINE",
"47 591 LINE",
"31 480 LINE",
"80 480 LINE",
"12 0 LINE"
);
},
{
closed = 1;
nodes = (
"192 164 OFFCURVE",
"205 257 OFFCURVE",
"216 341 CURVE",
"233 341 LINE SMOOTH",
"249 341 OFFCURVE",
"249 330 OFFCURVE",
"243 291 CURVE SMOOTH",
"239 258 OFFCURVE",
"230 199 OFFCURVE",
"226 166 CURVE SMOOTH",
"215 87 OFFCURVE",
"212 80 OFFCURVE",
"198 80 CURVE SMOOTH",
"192 80 OFFCURVE",
"186 80 OFFCURVE",
"180 80 CURVE"
);
}
);
};
layerId = "8A3706BD-364F-4FE3-9C2E-7E87DF0DB4CC";
paths = (
{
closed = 1;
nodes = (
"222 0 LINE SMOOTH",
"298 0 OFFCURVE",
"360 10 OFFCURVE",
"381 161 CURVE SMOOTH",
"404 324 LINE SMOOTH",
"418 423 OFFCURVE",
"358 436 OFFCURVE",
"309 436 CURVE SMOOTH",
"230 436 LINE",
"252 591 LINE",
"47 591 LINE",
"31 480 LINE",
"80 480 LINE",
"12 0 LINE"
);
},
{
closed = 1;
nodes = (
"192 164 OFFCURVE",
"205 257 OFFCURVE",
"216 341 CURVE",
"233 341 LINE SMOOTH",
"249 341 OFFCURVE",
"249 330 OFFCURVE",
"243 291 CURVE SMOOTH",
"239 258 OFFCURVE",
"230 199 OFFCURVE",
"226 166 CURVE SMOOTH",
"215 87 OFFCURVE",
"212 80 OFFCURVE",
"198 80 CURVE SMOOTH",
"180 80 LINE"
);
}
);
width = 425;
},
{
hints = (
{
horizontal = 1;
place = "{-40.765, -25.235}";
type = Stem;
},
{
horizontal = 1;
place = "{365.912, -25.235}";
type = Stem;
},
{
horizontal = 1;
place = "{516.353, -24.265}";
type = Stem;
},
{
place = "{76.676, -20.382}";
type = Stem;
},
{
place = "{301.853, -21.353}";
type = Stem;
}
);
layerId = "D84909E6-9227-4984-810E-91F1FC034344";
paths = (
{
closed = 1;
nodes = (
"172 0 LINE SMOOTH",
"266 0 OFFCURVE",
"300 48 OFFCURVE",
"313 141 CURVE SMOOTH",
"336 304 LINE SMOOTH",
"348 387 OFFCURVE",
"330 435 OFFCURVE",
"232 435 CURVE SMOOTH",
"125 435 LINE",
"147 591 LINE",
"52 591 LINE",
"48 571 LINE",
"119 571 LINE",
"38 0 LINE"
);
},
{
closed = 1;
nodes = (
"85 150 OFFCURVE",
"104 284 OFFCURVE",
"122 417 CURVE",
"227 417 LINE SMOOTH",
"321 417 OFFCURVE",
"320 358 OFFCURVE",
"311 296 CURVE SMOOTH",
"304 245 OFFCURVE",
"297 193 OFFCURVE",
"289 143 CURVE SMOOTH",
"280 73 OFFCURVE",
"259 18 OFFCURVE",
"173 18 CURVE SMOOTH",
"66 18 LINE"
);
}
);
width = 384;
}
);
note = uni042A;
unicode = 042A;
},
{
glyphname = "Yeru-cy";
lastChange = "2021-05-19 22:43:31 +0000";
layers = (
{
background = {
paths = (
{
closed = 1;
nodes = (
"193 0 LINE SMOOTH",
"269 0 OFFCURVE",
"331 10 OFFCURVE",
"352 161 CURVE SMOOTH",
"375 324 LINE SMOOTH",
"389 423 OFFCURVE",
"329 436 OFFCURVE",
"280 436 CURVE SMOOTH",
"201 436 LINE",
"223 591 LINE",
"67 591 LINE",
"-17 0 LINE"
);
},
{
closed = 1;
nodes = (
"163 164 OFFCURVE",
"176 257 OFFCURVE",
"187 341 CURVE",
"204 341 LINE SMOOTH",
"220 341 OFFCURVE",
"220 330 OFFCURVE",
"214 291 CURVE SMOOTH",
"210 258 OFFCURVE",
"201 199 OFFCURVE",
"197 166 CURVE SMOOTH",
"186 87 OFFCURVE",
"183 80 OFFCURVE",
"169 80 CURVE SMOOTH",
"163 80 OFFCURVE",
"157 80 OFFCURVE",
"151 80 CURVE"
);
},
{
closed = 1;
nodes = (
"539 0 LINE",
"623 591 LINE",
"464 591 LINE",
"380 0 LINE"
);
}
);
};
layerId = "8A3706BD-364F-4FE3-9C2E-7E87DF0DB4CC";
paths = (
{
closed = 1;
nodes = (
"193 0 LINE SMOOTH",
"269 0 OFFCURVE",
"331 10 OFFCURVE",
"352 161 CURVE SMOOTH",
"375 324 LINE SMOOTH",
"389 423 OFFCURVE",
"329 436 OFFCURVE",
"280 436 CURVE SMOOTH",
"201 436 LINE",
"223 591 LINE",
"67 591 LINE",
"-17 0 LINE"
);
},
{
closed = 1;
nodes = (
"163 164 OFFCURVE",
"176 257 OFFCURVE",
"187 341 CURVE",
"204 341 LINE SMOOTH",
"220 341 OFFCURVE",
"220 330 OFFCURVE",
"214 291 CURVE SMOOTH",
"210 258 OFFCURVE",
"201 199 OFFCURVE",
"197 166 CURVE SMOOTH",
"186 87 OFFCURVE",
"183 80 OFFCURVE",
"169 80 CURVE SMOOTH",
"151 80 LINE"
);
},
{
closed = 1;
nodes = (
"539 0 LINE",
"623 591 LINE",
"464 591 LINE",
"380 0 LINE"
);
}
);
width = 606;
},
{
hints = (
{
horizontal = 1;
place = "{-40.765, -25.235}";
type = Stem;
},
{
horizontal = 1;
place = "{365.912, -25.235}";
type = Stem;
},
{
horizontal = 1;
place = "{532.853, -20}";
target = down;
type = TopGhost;
},
{
place = "{7.765, -21.353}";
type = Stem;
},
{
place = "{231.971, -21.353}";
type = Stem;
},
{
place = "{327.088, -21.353}";
type = Stem;
}
);
layerId = "D84909E6-9227-4984-810E-91F1FC034344";
paths = (
{
closed = 1;
nodes = (
"141 0 LINE SMOOTH",
"235 0 OFFCURVE",
"269 48 OFFCURVE",
"282 141 CURVE SMOOTH",
"305 304 LINE SMOOTH",
"317 387 OFFCURVE",
"299 435 OFFCURVE",
"200 435 CURVE SMOOTH",
"93 435 LINE",
"114 589 LINE",
"90 589 LINE",
"7 0 LINE"
);
},
{
closed = 1;
nodes = (
"53 150 OFFCURVE",
"72 284 OFFCURVE",
"90 417 CURVE",
"195 417 LINE SMOOTH",
"288 417 OFFCURVE",
"289 357 OFFCURVE",
"280 297 CURVE SMOOTH",
"273 245 OFFCURVE",
"266 194 OFFCURVE",
"258 143 CURVE SMOOTH",
"249 73 OFFCURVE",
"228 18 OFFCURVE",
"142 18 CURVE SMOOTH",
"35 18 LINE"
);
},
{
closed = 1;
nodes = (
"362 0 LINE",
"446 591 LINE",
"422 591 LINE",
"338 0 LINE"
);
}
);
width = 454;
}
);
note = uni042B;
unicode = 042B;
},
{
glyphname = "Lje-cy";
lastChange = "2021-05-19 22:43:31 +0000";
layers = (
{
background = {
paths = (
{
closed = 1;
nodes = (
"67 0 LINE SMOOTH",
"178 0 OFFCURVE",
"182 61 OFFCURVE",
"195 116 CURVE SMOOTH",
"275 480 LINE",
"308 480 LINE",
"240 0 LINE",
"399 0 LINE",
"483 591 LINE",
"135 591 LINE",
"41 156 LINE SMOOTH",
"33 118 OFFCURVE",
"-1 79 OFFCURVE",
"-25 79 CURVE",
"-37 0 LINE"
);
},
{
closed = 1;
nodes = (
"450 0 LINE SMOOTH",
"526 0 OFFCURVE",
"588 10 OFFCURVE",
"609 161 CURVE SMOOTH",
"632 324 LINE SMOOTH",
"646 423 OFFCURVE",
"586 436 OFFCURVE",
"537 436 CURVE SMOOTH",
"458 436 LINE",
"480 591 LINE",
"324 591 LINE",
"240 0 LINE"
);
},
{
closed = 1;
nodes = (
"424 164 OFFCURVE",
"437 257 OFFCURVE",
"448 341 CURVE",
"465 341 LINE SMOOTH",
"481 341 OFFCURVE",
"481 330 OFFCURVE",
"475 291 CURVE SMOOTH",
"471 258 OFFCURVE",
"462 199 OFFCURVE",
"458 166 CURVE SMOOTH",
"447 87 OFFCURVE",
"444 80 OFFCURVE",
"430 80 CURVE SMOOTH",
"424 80 OFFCURVE",
"418 80 OFFCURVE",
"412 80 CURVE"
);
}
);
};
layerId = "8A3706BD-364F-4FE3-9C2E-7E87DF0DB4CC";
paths = (
{
closed = 1;
nodes = (
"67 0 LINE SMOOTH",
"178 0 OFFCURVE",
"182 61 OFFCURVE",
"195 116 CURVE SMOOTH",
"275 480 LINE",
"308 480 LINE",
"240 0 LINE",
"399 0 LINE",
"483 591 LINE",
"135 591 LINE",
"41 156 LINE SMOOTH",
"33 118 OFFCURVE",
"-1 79 OFFCURVE",
"-25 79 CURVE",
"-37 0 LINE"
);
},
{
closed = 1;
nodes = (
"424 164 OFFCURVE",
"437 257 OFFCURVE",
"448 341 CURVE",
"465 341 LINE SMOOTH",
"481 341 OFFCURVE",
"481 330 OFFCURVE",
"475 291 CURVE SMOOTH",
"471 258 OFFCURVE",
"462 199 OFFCURVE",
"458 166 CURVE SMOOTH",
"447 87 OFFCURVE",
"444 80 OFFCURVE",
"430 80 CURVE SMOOTH",
"412 80 LINE"
);
},
{
closed = 1;
nodes = (
"450 0 LINE SMOOTH",
"526 0 OFFCURVE",
"588 10 OFFCURVE",
"609 161 CURVE SMOOTH",
"632 324 LINE SMOOTH",
"646 423 OFFCURVE",
"586 436 OFFCURVE",
"537 436 CURVE SMOOTH",
"458 436 LINE",
"480 591 LINE",
"324 591 LINE",
"240 0 LINE"
);
}
);
width = 653;
},
{
hints = (
{
horizontal = 1;
place = "{-40.765, -25.235}";
type = Stem;
},
{
horizontal = 1;
place = "{365.912, -25.235}";
type = Stem;
},
{
horizontal = 1;
place = "{516.353, -24.265}";
type = Stem;
},
{
place = "{85.412, -21.353}";
type = Stem;
},
{
place = "{265.941, -21.353}";
type = Stem;
},
{
place = "{490.147, -21.353}";
type = Stem;
},
{
horizontal = 1;
place = "{-40.765, -25.235}";
type = Stem;
},
{
horizontal = 1;
place = "{516.353, -24.265}";
type = Stem;
},
{
place = "{46.588, -21.353}";
type = Stem;
},
{
place = "{226.147, -20.382}";
type = Stem;
},
{
horizontal = 1;
place = "{-40.765, -25.235}";
type = Stem;
},
{
horizontal = 1;
place = "{365.912, -25.235}";
type = Stem;
},
{
place = "{398.912, -21.353}";
type = Stem;
},
{
place = "{624.088, -21.353}";
type = Stem;
}
);
layerId = "D84909E6-9227-4984-810E-91F1FC034344";
paths = (
{
closed = 1;
nodes = (
"-12 0 LINE SMOOTH",
"37 6 OFFCURVE",
"54 56 OFFCURVE",
"60 83 CURVE SMOOTH",
"162 571 LINE",
"369 571 LINE",
"289 0 LINE",
"314 0 LINE",
"398 591 LINE",
"142 591 LINE",
"38 92 LINE SMOOTH",
"26 37 OFFCURVE",
"8 18 OFFCURVE",
"-19 18 CURVE",
"-22 0 LINE"
);
},
{
closed = 1;
nodes = (
"335 150 OFFCURVE",
"354 284 OFFCURVE",
"371 417 CURVE",
"477 417 LINE SMOOTH",
"569 417 OFFCURVE",
"570 357 OFFCURVE",
"561 297 CURVE SMOOTH",
"554 245 OFFCURVE",
"547 194 OFFCURVE",
"540 143 CURVE SMOOTH",
"530 73 OFFCURVE",
"509 18 OFFCURVE",
"423 18 CURVE SMOOTH",
"316 18 LINE"
);
},
{
closed = 1;
nodes = (
"422 0 LINE SMOOTH",
"516 0 OFFCURVE",
"550 48 OFFCURVE",
"563 141 CURVE SMOOTH",
"586 304 LINE SMOOTH",
"598 387 OFFCURVE",
"580 435 OFFCURVE",
"482 435 CURVE SMOOTH",
"375 435 LINE",
"396 589 LINE",
"372 589 LINE",
"289 0 LINE"
);
}
);
width = 635;
}
);
note = uni0409;
unicode = 0409;
},
